FiraSans-CondensedBold.ufo
<glyph name="exclam" format="2">
  <advance width="222"/>
  <unicode hex="0021"/>
  <outline>
    <contour>
      <point x="210" y="696" type="line"/>
      <point x="12" y="696" type="line"/>
      <point x="39" y="267" type="line"/>
      <point x="183" y="267" type="line"/>
    </contour>
    <contour>
      <point x="111" y="181" type="curve" smooth="yes"/>
      <point x="52" y="181"/>
      <point x="13" y="133"/>
      <point x="13" y="80" type="curve" smooth="yes"/>
      <point x="13" y="27"/>
      <point x="52" y="-20"/>
      <point x="111" y="-20" type="curve" smooth="yes"/>
      <point x="170" y="-20"/>
      <point x="209" y="27"/>
      <point x="209" y="80" type="curve" smooth="yes"/>
      <point x="209" y="133"/>
      <point x="170" y="181"/>
    </contour>
  </outline>
</glyph>
<glyph name="numbersign" format="2">
  <advance width="491"/>
  <unicode hex="0023"/>
  <outline>
    <contour>
      <point x="463" y="680" type="line"/>
      <point x="317" y="680" type="line"/>
      <point x="227" y="0" type="line"/>
      <point x="373" y="0" type="line"/>
    </contour>
    <contour>
      <point x="449" y="255" type="line"/>
      <point x="12" y="255" type="line"/>
      <point x="12" y="136" type="line"/>
      <point x="449" y="136" type="line"/>
    </contour>
    <contour>
      <point x="264" y="680" type="line"/>
      <point x="118" y="680" type="line"/>
      <point x="28" y="0" type="line"/>
      <point x="174" y="0" type="line"/>
    </contour>
    <contour>
      <point x="479" y="556" type="line"/>
      <point x="42" y="556" type="line"/>
      <point x="42" y="437" type="line"/>
      <point x="479" y="437" type="line"/>
    </contour>
  </outline>
</glyph>
<glyph name="dollar" format="2">
  <advance width="470"/>
  <unicode hex="0024"/>
  <outline>
    <contour>
      <point x="307" y="5" type="line"/>
      <point x="182" y="-1" type="line"/>
      <point x="182" y="-164" type="line"/>
      <point x="307" y="-164" type="line"/>
    </contour>
    <contour>
      <point x="307" y="833" type="line"/>
      <point x="182" y="833" type="line"/>
      <point x="182" y="672" type="line"/>
      <point x="307" y="677" type="line"/>
    </contour>
    <contour>
      <point x="238" y="690" type="curve" smooth="yes"/>
      <point x="112" y="690"/>
      <point x="15" y="613"/>
      <point x="15" y="487" type="curve" smooth="yes"/>
      <point x="15" y="392"/>
      <point x="56" y="338"/>
      <point x="187" y="279" type="curve" smooth="yes"/>
      <point x="246" y="253"/>
      <point x="269" y="229"/>
      <point x="269" y="190" type="curve" smooth="yes"/>
      <point x="269" y="154"/>
      <point x="255" y="125"/>
      <point x="206" y="125" type="curve" smooth="yes"/>
      <point x="160" y="125"/>
      <point x="121" y="149"/>
      <point x="79" y="186" type="curve"/>
      <point x="-8" y="88" type="line"/>
      <point x="41" y="35"/>
      <point x="110" y="-10"/>
      <point x="222" y="-10" type="curve" smooth="yes"/>
      <point x="371" y="-10"/>
      <point x="462" y="78"/>
      <point x="462" y="207" type="curve" smooth="yes"/>
      <point x="462" y="323"/>
      <point x="411" y="372"/>
      <point x="301" y="424" type="curve" smooth="yes"/>
      <point x="230" y="457"/>
      <point x="207" y="471"/>
      <point x="207" y="504" type="curve" smooth="yes"/>
      <point x="207" y="534"/>
      <point x="223" y="556"/>
      <point x="263" y="556" type="curve" smooth="yes"/>
      <point x="300" y="556"/>
      <point x="336" y="538"/>
      <point x="372" y="506" type="curve"/>
      <point x="450" y="601" type="line"/>
      <point x="397" y="658"/>
      <point x="331" y="690"/>
    </contour>
  </outline>
</glyph>
<glyph name="ampersand" format="2">
  <advance width="684"/>
  <unicode hex="0026"/>
  <outline>
    <contour>
      <point x="271" y="716" type="curve" smooth="yes"/>
      <point x="129" y="716"/>
      <point x="65" y="629"/>
      <point x="65" y="542" type="curve" smooth="yes"/>
      <point x="65" y="482"/>
      <point x="77" y="443"/>
      <point x="148" y="370" type="curve"/>
      <point x="67" y="310"/>
      <point x="35" y="259"/>
      <point x="35" y="177" type="curve" smooth="yes"/>
      <point x="35" y="63"/>
      <point x="123" y="-20"/>
      <point x="250" y="-20" type="curve" smooth="yes"/>
      <point x="318" y="-20"/>
      <point x="378" y="-1"/>
      <point x="437" y="47" type="curve"/>
      <point x="494" y="-20" type="line"/>
      <point x="657" y="48" type="line"/>
      <point x="549" y="156" type="line"/>
      <point x="580" y="205"/>
      <point x="606" y="264"/>
      <point x="627" y="337" type="curve"/>
      <point x="484" y="371" type="line"/>
      <point x="476" y="320"/>
      <point x="468" y="284"/>
      <point x="457" y="248" type="curve"/>
      <point x="370" y="356" type="line"/>
      <point x="440" y="413"/>
      <point x="477" y="468"/>
      <point x="477" y="544" type="curve" smooth="yes"/>
      <point x="477" y="644"/>
      <point x="406" y="716"/>
    </contour>
    <contour>
      <point x="250" y="265" type="curve"/>
      <point x="353" y="134" type="line"/>
      <point x="334" y="118"/>
      <point x="317" y="111"/>
      <point x="295" y="111" type="curve" smooth="yes"/>
      <point x="257" y="111"/>
      <point x="233" y="136"/>
      <point x="233" y="187" type="curve" smooth="yes"/>
      <point x="233" y="219"/>
      <point x="238" y="243"/>
    </contour>
    <contour>
      <point x="273" y="597" type="curve" smooth="yes"/>
      <point x="292" y="597"/>
      <point x="300" y="583"/>
      <point x="300" y="545" type="curve" smooth="yes"/>
      <point x="300" y="504"/>
      <point x="296" y="485"/>
      <point x="273" y="447" type="curve"/>
      <point x="246" y="486"/>
      <point x="243" y="502"/>
      <point x="243" y="542" type="curve" smooth="yes"/>
      <point x="243" y="583"/>
      <point x="254" y="597"/>
    </contour>
  </outline>
</glyph>
<glyph name="quotesingle" format="2">
  <advance width="224"/>
  <unicode hex="0027"/>
  <outline>
    <contour>
      <point x="53" y="408" type="line"/>
      <point x="171" y="408" type="line"/>
      <point x="189" y="696" type="line"/>
      <point x="35" y="696" type="line"/>
    </contour>
  </outline>
</glyph>
<glyph name="parenleft" format="2">
  <advance width="288"/>
  <unicode hex="0028"/>
  <outline>
    <contour>
      <point x="165" y="865" type="line"/>
      <point x="81" y="741"/>
      <point x="0" y="590"/>
      <point x="0" y="350" type="curve" smooth="yes"/>
      <point x="0" y="110"/>
      <point x="81" y="-41"/>
      <point x="165" y="-165" type="curve"/>
      <point x="288" y="-84" type="line"/>
      <point x="209" y="48"/>
      <point x="189" y="169"/>
      <point x="189" y="350" type="curve" smooth="yes"/>
      <point x="189" y="531"/>
      <point x="209" y="652"/>
      <point x="288" y="784" type="curve"/>
    </contour>
  </outline>
</glyph>
<glyph name="parenright" format="2">
  <advance width="288"/>
  <unicode hex="0029"/>
  <outline>
    <contour>
      <point x="122" y="865" type="curve"/>
      <point x="0" y="784" type="line"/>
      <point x="78" y="652"/>
      <point x="99" y="521"/>
      <point x="99" y="350" type="curve" smooth="yes"/>
      <point x="99" y="179"/>
      <point x="78" y="48"/>
      <point x="0" y="-84" type="curve"/>
      <point x="122" y="-165" type="line"/>
      <point x="207" y="-27"/>
      <point x="288" y="110"/>
      <point x="288" y="350" type="curve" smooth="yes"/>
      <point x="288" y="590"/>
      <point x="207" y="727"/>
    </contour>
  </outline>
</glyph>
<glyph name="asterisk" format="2">
  <advance width="398"/>
  <unicode hex="002A"/>
  <outline>
    <contour>
      <point x="200" y="533" type="line"/>
      <point x="194" y="453" type="line"/>
      <point x="248" y="326" type="line"/>
      <point x="373" y="409" type="line"/>
      <point x="277" y="515" type="line"/>
    </contour>
    <contour>
      <point x="274" y="744" type="line"/>
      <point x="125" y="744" type="line"/>
      <point x="149" y="590" type="line"/>
      <point x="200" y="533" type="line"/>
      <point x="250" y="589" type="line"/>
    </contour>
    <contour>
      <point x="345" y="661" type="line"/>
      <point x="242" y="596" type="line"/>
      <point x="200" y="533" type="line"/>
      <point x="273" y="502" type="line"/>
      <point x="393" y="523" type="line"/>
    </contour>
    <contour>
      <point x="53" y="660" type="line"/>
      <point x="5" y="522" type="line"/>
      <point x="125" y="502" type="line"/>
      <point x="200" y="533" type="line"/>
      <point x="156" y="597" type="line"/>
    </contour>
    <contour>
      <point x="200" y="533" type="line"/>
      <point x="121" y="515" type="line"/>
      <point x="27" y="408" type="line"/>
      <point x="152" y="325" type="line"/>
      <point x="204" y="453" type="line"/>
    </contour>
  </outline>
</glyph>
<glyph name="plus" format="2">
  <advance width="464"/>
  <unicode hex="002B"/>
  <outline>
    <contour>
      <point x="307" y="560" type="line"/>
      <point x="157" y="560" type="line"/>
      <point x="157" y="404" type="line"/>
      <point x="27" y="404" type="line"/>
      <point x="27" y="260" type="line"/>
      <point x="157" y="260" type="line"/>
      <point x="157" y="104" type="line"/>
      <point x="307" y="104" type="line"/>
      <point x="307" y="260" type="line"/>
      <point x="437" y="260" type="line"/>
      <point x="437" y="404" type="line"/>
      <point x="307" y="404" type="line"/>
    </contour>
  </outline>
</glyph>
<glyph name="comma" format="2">
  <advance width="220"/>
  <unicode hex="002C"/>
  <outline>
    <contour>
      <point x="110" y="182" type="curve" smooth="yes"/>
      <point x="55" y="182"/>
      <point x="15" y="139"/>
      <point x="15" y="82" type="curve" smooth="yes"/>
      <point x="15" y="47"/>
      <point x="31" y="18"/>
      <point x="61" y="-3" type="curve"/>
      <point x="22" y="-183" type="line"/>
      <point x="115" y="-183" type="line"/>
      <point x="167" y="-44" type="line" smooth="yes"/>
      <point x="193" y="25"/>
      <point x="205" y="55"/>
      <point x="205" y="83" type="curve" smooth="yes"/>
      <point x="205" y="139"/>
      <point x="166" y="182"/>
    </contour>
  </outline>
</glyph>
<glyph name="hyphen" format="2">
  <advance width="354"/>
  <unicode hex="002D"/>
  <outline>
    <contour>
      <point x="30" y="241" type="line"/>
      <point x="324" y="241" type="line"/>
      <point x="324" y="385" type="line"/>
      <point x="30" y="385" type="line"/>
    </contour>
  </outline>
</glyph>
<glyph name="period" format="2">
  <advance width="226"/>
  <unicode hex="002E"/>
  <outline>
    <contour>
      <point x="113" y="181" type="curve" smooth="yes"/>
      <point x="54" y="181"/>
      <point x="15" y="133"/>
      <point x="15" y="80" type="curve" smooth="yes"/>
      <point x="15" y="27"/>
      <point x="54" y="-20"/>
      <point x="113" y="-20" type="curve" smooth="yes"/>
      <point x="172" y="-20"/>
      <point x="211" y="27"/>
      <point x="211" y="80" type="curve" smooth="yes"/>
      <point x="211" y="133"/>
      <point x="172" y="181"/>
    </contour>
  </outline>
</glyph>
<glyph name="slash" format="2">
  <advance width="426"/>
  <unicode hex="002F"/>
  <outline>
    <contour>
      <point x="233" y="821" type="line"/>
      <point x="31" y="-78" type="line"/>
      <point x="193" y="-116" type="line"/>
      <point x="395" y="783" type="line"/>
    </contour>
  </outline>
</glyph>
<glyph name="zero" format="2">
  <advance width="531"/>
  <unicode hex="0030"/>
  <outline>
    <contour>
      <point x="266" y="696" type="curve" smooth="yes"/>
      <point x="115" y="696"/>
      <point x="28" y="584"/>
      <point x="28" y="339" type="curve" smooth="yes"/>
      <point x="28" y="94"/>
      <point x="115" y="-20"/>
      <point x="266" y="-20" type="curve" smooth="yes"/>
      <point x="417" y="-20"/>
      <point x="503" y="94"/>
      <point x="503" y="339" type="curve" smooth="yes"/>
      <point x="503" y="574"/>
      <point x="417" y="696"/>
    </contour>
    <contour>
      <point x="266" y="558" type="curve" smooth="yes"/>
      <point x="304" y="558"/>
      <point x="310" y="527"/>
      <point x="310" y="339" type="curve" smooth="yes"/>
      <point x="310" y="144"/>
      <point x="304" y="118"/>
      <point x="266" y="118" type="curve" smooth="yes"/>
      <point x="230" y="118"/>
      <point x="221" y="144"/>
      <point x="221" y="339" type="curve" smooth="yes"/>
      <point x="221" y="527"/>
      <point x="229" y="558"/>
    </contour>
  </outline>
</glyph>
<glyph name="one" format="2">
  <advance width="411"/>
  <unicode hex="0031"/>
  <outline>
    <contour>
      <point x="366" y="679" type="line"/>
      <point x="196" y="679" type="line"/>
      <point x="-10" y="536" type="line"/>
      <point x="74" y="417" type="line"/>
      <point x="182" y="498" type="line"/>
      <point x="182" y="0" type="line"/>
      <point x="366" y="0" type="line"/>
    </contour>
  </outline>
</glyph>
<glyph name="two" format="2">
  <advance width="436"/>
  <unicode hex="0032"/>
  <outline>
    <contour>
      <point x="197" y="696" type="curve" smooth="yes"/>
      <point x="99" y="696"/>
      <point x="27" y="646"/>
      <point x="-20" y="572" type="curve"/>
      <point x="84" y="491" type="line"/>
      <point x="118" y="532"/>
      <point x="138" y="553"/>
      <point x="173" y="553" type="curve" smooth="yes"/>
      <point x="205" y="553"/>
      <point x="223" y="532"/>
      <point x="223" y="491" type="curve" smooth="yes"/>
      <point x="223" y="414"/>
      <point x="186" y="344"/>
      <point x="7" y="131" type="curve"/>
      <point x="7" y="0" type="line"/>
      <point x="408" y="0" type="line"/>
      <point x="427" y="143" type="line"/>
      <point x="209" y="143" type="line"/>
      <point x="388" y="336"/>
      <point x="416" y="412"/>
      <point x="416" y="504" type="curve" smooth="yes"/>
      <point x="416" y="605"/>
      <point x="345" y="696"/>
    </contour>
  </outline>
</glyph>
<glyph name="three" format="2">
  <advance width="450"/>
  <unicode hex="0033"/>
  <outline>
    <contour>
      <point x="208" y="696" type="curve" smooth="yes"/>
      <point x="123" y="696"/>
      <point x="49" y="662"/>
      <point x="-12" y="599" type="curve"/>
      <point x="79" y="504" type="line"/>
      <point x="109" y="537"/>
      <point x="144" y="558"/>
      <point x="179" y="558" type="curve" smooth="yes"/>
      <point x="216" y="558"/>
      <point x="237" y="535"/>
      <point x="237" y="492" type="curve" smooth="yes"/>
      <point x="237" y="446"/>
      <point x="212" y="418"/>
      <point x="169" y="418" type="curve" smooth="yes"/>
      <point x="138" y="418" type="line"/>
      <point x="117" y="291" type="line"/>
      <point x="164" y="291" type="line" smooth="yes"/>
      <point x="214" y="291"/>
      <point x="244" y="265"/>
      <point x="244" y="204" type="curve" smooth="yes"/>
      <point x="244" y="150"/>
      <point x="216" y="122"/>
      <point x="180" y="122" type="curve" smooth="yes"/>
      <point x="143" y="122"/>
      <point x="115" y="141"/>
      <point x="77" y="180" type="curve"/>
      <point x="-20" y="88" type="line"/>
      <point x="36" y="22"/>
      <point x="101" y="-20"/>
      <point x="201" y="-20" type="curve" smooth="yes"/>
      <point x="358" y="-20"/>
      <point x="438" y="83"/>
      <point x="438" y="193" type="curve" smooth="yes"/>
      <point x="438" y="300"/>
      <point x="377" y="346"/>
      <point x="286" y="359" type="curve"/>
      <point x="383" y="387"/>
      <point x="418" y="444"/>
      <point x="418" y="519" type="curve" smooth="yes"/>
      <point x="418" y="615"/>
      <point x="340" y="696"/>
    </contour>
  </outline>
</glyph>
<glyph name="four" format="2">
  <advance width="493"/>
  <unicode hex="0034"/>
  <outline>
    <contour>
      <point x="161" y="701" type="line"/>
      <point x="11" y="261" type="line"/>
      <point x="11" y="136" type="line"/>
      <point x="485" y="136" type="line"/>
      <point x="485" y="277" type="line"/>
      <point x="199" y="277" type="line"/>
      <point x="320" y="646" type="line"/>
    </contour>
    <contour>
      <point x="432" y="427" type="line"/>
      <point x="279" y="427" type="line"/>
      <point x="254" y="261" type="line"/>
      <point x="256" y="0" type="line"/>
      <point x="432" y="0" type="line"/>
    </contour>
  </outline>
</glyph>
<glyph name="five" format="2">
  <advance width="475"/>
  <unicode hex="0035"/>
  <outline>
    <contour>
      <point x="425" y="680" type="line"/>
      <point x="37" y="680" type="line"/>
      <point x="37" y="301" type="line"/>
      <point x="158" y="301" type="line"/>
      <point x="181" y="319"/>
      <point x="196" y="325"/>
      <point x="215" y="325" type="curve" smooth="yes"/>
      <point x="246" y="325"/>
      <point x="266" y="305"/>
      <point x="266" y="225" type="curve" smooth="yes"/>
      <point x="266" y="152"/>
      <point x="243" y="120"/>
      <point x="199" y="120" type="curve" smooth="yes"/>
      <point x="156" y="120"/>
      <point x="129" y="146"/>
      <point x="101" y="180" type="curve"/>
      <point x="0" y="90" type="line"/>
      <point x="45" y="27"/>
      <point x="109" y="-20"/>
      <point x="209" y="-20" type="curve" smooth="yes"/>
      <point x="362" y="-20"/>
      <point x="457" y="79"/>
      <point x="457" y="228" type="curve" smooth="yes"/>
      <point x="457" y="380"/>
      <point x="385" y="452"/>
      <point x="298" y="452" type="curve" smooth="yes"/>
      <point x="270" y="452"/>
      <point x="246" y="446"/>
      <point x="214" y="427" type="curve"/>
      <point x="214" y="547" type="line"/>
      <point x="405" y="547" type="line"/>
    </contour>
  </outline>
</glyph>
<glyph name="six" format="2">
  <advance width="507"/>
  <unicode hex="0036"/>
  <outline>
    <contour>
      <point x="308" y="696" type="curve" smooth="yes"/>
      <point x="135" y="696"/>
      <point x="28" y="541"/>
      <point x="28" y="307" type="curve" smooth="yes"/>
      <point x="28" y="95"/>
      <point x="105" y="-20"/>
      <point x="268" y="-20" type="curve" smooth="yes"/>
      <point x="422" y="-20"/>
      <point x="497" y="88"/>
      <point x="497" y="233" type="curve" smooth="yes"/>
      <point x="497" y="376"/>
      <point x="433" y="462"/>
      <point x="335" y="462" type="curve" smooth="yes"/>
      <point x="286" y="462"/>
      <point x="247" y="443"/>
      <point x="216" y="400" type="curve"/>
      <point x="214" y="288" type="line"/>
      <point x="237" y="322"/>
      <point x="258" y="338"/>
      <point x="275" y="338" type="curve" smooth="yes"/>
      <point x="296" y="338"/>
      <point x="310" y="322"/>
      <point x="308" y="233" type="curve" smooth="yes"/>
      <point x="306" y="146"/>
      <point x="296" y="113"/>
      <point x="266" y="113" type="curve" smooth="yes"/>
      <point x="230" y="113"/>
      <point x="223" y="153"/>
      <point x="223" y="312" type="curve"/>
      <point x="223" y="387" type="line"/>
      <point x="230" y="517"/>
      <point x="269" y="564"/>
      <point x="319" y="564" type="curve" smooth="yes"/>
      <point x="342" y="564"/>
      <point x="362" y="555"/>
      <point x="382" y="544" type="curve"/>
      <point x="448" y="650" type="line"/>
      <point x="414" y="676"/>
      <point x="367" y="696"/>
    </contour>
  </outline>
</glyph>
<glyph name="seven" format="2">
  <advance width="406"/>
  <unicode hex="0037"/>
  <outline>
    <contour>
      <point x="403" y="680" type="line"/>
      <point x="0" y="680" type="line"/>
      <point x="0" y="540" type="line"/>
      <point x="212" y="540" type="line"/>
      <point x="32" y="36" type="line"/>
      <point x="202" y="-19" type="line"/>
      <point x="403" y="555" type="line"/>
    </contour>
  </outline>
</glyph>
<glyph name="eight" format="2">
  <advance width="504"/>
  <unicode hex="0038"/>
  <outline>
    <contour>
      <point x="247" y="696" type="curve" smooth="yes"/>
      <point x="110" y="696"/>
      <point x="31" y="621"/>
      <point x="31" y="509" type="curve" smooth="yes"/>
      <point x="31" y="445"/>
      <point x="52" y="387"/>
      <point x="131" y="335" type="curve"/>
      <point x="215" y="299" type="line"/>
      <point x="251" y="280" type="line" smooth="yes"/>
      <point x="298" y="255"/>
      <point x="311" y="234"/>
      <point x="311" y="187" type="curve" smooth="yes"/>
      <point x="311" y="137"/>
      <point x="296" y="113"/>
      <point x="255" y="113" type="curve" smooth="yes"/>
      <point x="214" y="113"/>
      <point x="193" y="135"/>
      <point x="193" y="193" type="curve" smooth="yes"/>
      <point x="193" y="239"/>
      <point x="208" y="280"/>
      <point x="248" y="312" type="curve"/>
      <point x="134" y="353" type="line"/>
      <point x="52" y="316"/>
      <point x="10" y="264"/>
      <point x="10" y="182" type="curve" smooth="yes"/>
      <point x="10" y="66"/>
      <point x="91" y="-20"/>
      <point x="247" y="-20" type="curve" smooth="yes"/>
      <point x="414" y="-20"/>
      <point x="494" y="69"/>
      <point x="494" y="185" type="curve" smooth="yes"/>
      <point x="494" y="263"/>
      <point x="461" y="321"/>
      <point x="362" y="375" type="curve"/>
      <point x="274" y="408" type="line"/>
      <point x="250" y="422" type="line" smooth="yes"/>
      <point x="212" y="444"/>
      <point x="210" y="470"/>
      <point x="210" y="506" type="curve" smooth="yes"/>
      <point x="210" y="559"/>
      <point x="225" y="571"/>
      <point x="253" y="571" type="curve" smooth="yes"/>
      <point x="281" y="571"/>
      <point x="294" y="555"/>
      <point x="294" y="508" type="curve" smooth="yes"/>
      <point x="294" y="470"/>
      <point x="293" y="435"/>
      <point x="242" y="390" type="curve"/>
      <point x="360" y="355" type="line"/>
      <point x="445" y="401"/>
      <point x="473" y="461"/>
      <point x="473" y="520" type="curve" smooth="yes"/>
      <point x="473" y="627"/>
      <point x="393" y="696"/>
    </contour>
  </outline>
</glyph>
<glyph name="nine" format="2">
  <advance width="504"/>
  <unicode hex="0039"/>
  <outline>
    <contour>
      <point x="296" y="291" type="curve"/>
      <point x="302" y="411" type="line"/>
      <point x="285" y="377"/>
      <point x="265" y="357"/>
      <point x="245" y="357" type="curve" smooth="yes"/>
      <point x="222" y="357"/>
      <point x="200" y="378"/>
      <point x="200" y="465" type="curve" smooth="yes"/>
      <point x="200" y="547"/>
      <point x="222" y="568"/>
      <point x="249" y="568" type="curve" smooth="yes"/>
      <point x="289" y="568"/>
      <point x="296" y="529"/>
      <point x="293" y="375" type="curve"/>
      <point x="291" y="294" type="line"/>
      <point x="258" y="183"/>
      <point x="194" y="138"/>
      <point x="48" y="100" type="curve"/>
      <point x="85" y="-31" type="line"/>
      <point x="361" y="22"/>
      <point x="489" y="157"/>
      <point x="489" y="432" type="curve" smooth="yes"/>
      <point x="489" y="594"/>
      <point x="407" y="696"/>
      <point x="249" y="696" type="curve" smooth="yes"/>
      <point x="111" y="696"/>
      <point x="10" y="609"/>
      <point x="10" y="456" type="curve" smooth="yes"/>
      <point x="10" y="315"/>
      <point x="89" y="230"/>
      <point x="176" y="230" type="curve" smooth="yes"/>
      <point x="226" y="230"/>
      <point x="258" y="251"/>
    </contour>
  </outline>
</glyph>
<glyph name="less" format="2">
  <advance width="442"/>
  <unicode hex="003C"/>
  <outline>
    <contour>
      <point x="369" y="583" type="line"/>
      <point x="11" y="408" type="line"/>
      <point x="11" y="258" type="line"/>
      <point x="369" y="83" type="line"/>
      <point x="430" y="213" type="line"/>
      <point x="163" y="333" type="line"/>
      <point x="430" y="460" type="line"/>
    </contour>
  </outline>
</glyph>
<glyph name="greater" format="2">
  <advance width="442"/>
  <unicode hex="003E"/>
  <outline>
    <contour>
      <point x="72" y="583" type="line"/>
      <point x="11" y="460" type="line"/>
      <point x="278" y="333" type="line"/>
      <point x="11" y="213" type="line"/>
      <point x="72" y="83" type="line"/>
      <point x="430" y="258" type="line"/>
      <point x="430" y="408" type="line"/>
    </contour>
  </outline>
</glyph>
<glyph name="question" format="2">
  <advance width="424"/>
  <unicode hex="003F"/>
  <outline>
    <contour>
      <point x="220" y="716" type="curve" smooth="yes"/>
      <point x="118" y="716"/>
      <point x="50" y="671"/>
      <point x="2" y="605" type="curve"/>
      <point x="113" y="519" type="line"/>
      <point x="143" y="553"/>
      <point x="168" y="568"/>
      <point x="193" y="568" type="curve" smooth="yes"/>
      <point x="215" y="568"/>
      <point x="228" y="556"/>
      <point x="228" y="531" type="curve" smooth="yes"/>
      <point x="228" y="443"/>
      <point x="109" y="464"/>
      <point x="109" y="288" type="curve" smooth="yes"/>
      <point x="109" y="267" type="line"/>
      <point x="276" y="267" type="line"/>
      <point x="276" y="282" type="line" smooth="yes"/>
      <point x="276" y="396"/>
      <point x="422" y="390"/>
      <point x="422" y="543" type="curve" smooth="yes"/>
      <point x="422" y="631"/>
      <point x="355" y="716"/>
    </contour>
    <contour>
      <point x="193" y="181" type="curve" smooth="yes"/>
      <point x="134" y="181"/>
      <point x="95" y="133"/>
      <point x="95" y="80" type="curve" smooth="yes"/>
      <point x="95" y="27"/>
      <point x="134" y="-20"/>
      <point x="193" y="-20" type="curve" smooth="yes"/>
      <point x="252" y="-20"/>
      <point x="291" y="27"/>
      <point x="291" y="80" type="curve" smooth="yes"/>
      <point x="291" y="133"/>
      <point x="252" y="181"/>
    </contour>
  </outline>
</glyph>
<glyph name="at" format="2">
  <advance width="847"/>
  <unicode hex="0040"/>
  <outline>
    <contour>
      <point x="437" y="715" type="curve" smooth="yes"/>
      <point x="204" y="715"/>
      <point x="25" y="520"/>
      <point x="25" y="243" type="curve" smooth="yes"/>
      <point x="25" y="-43"/>
      <point x="171" y="-226"/>
      <point x="438" y="-226" type="curve" smooth="yes"/>
      <point x="511" y="-226"/>
      <point x="593" y="-207"/>
      <point x="646" y="-182" type="curve"/>
      <point x="604" y="-62" type="line"/>
      <point x="564" y="-79"/>
      <point x="500" y="-94"/>
      <point x="440" y="-94" type="curve" smooth="yes"/>
      <point x="269" y="-94"/>
      <point x="186" y="11"/>
      <point x="186" y="244" type="curve" smooth="yes"/>
      <point x="186" y="451"/>
      <point x="268" y="584"/>
      <point x="438" y="584" type="curve" smooth="yes"/>
      <point x="599" y="584"/>
      <point x="664" y="486"/>
      <point x="664" y="318" type="curve" smooth="yes"/>
      <point x="664" y="154"/>
      <point x="640" y="113"/>
      <point x="617" y="113" type="curve" smooth="yes"/>
      <point x="597" y="113"/>
      <point x="596" y="128"/>
      <point x="596" y="220" type="curve"/>
      <point x="509" y="128" type="line"/>
      <point x="504" y="62"/>
      <point x="549" y="2"/>
      <point x="624" y="2" type="curve" smooth="yes"/>
      <point x="730" y="2"/>
      <point x="822" y="130"/>
      <point x="822" y="320" type="curve" smooth="yes"/>
      <point x="822" y="526"/>
      <point x="679" y="715"/>
    </contour>
    <contour>
      <point x="434" y="508" type="curve" smooth="yes"/>
      <point x="297" y="508"/>
      <point x="234" y="394"/>
      <point x="234" y="234" type="curve" smooth="yes"/>
      <point x="234" y="96"/>
      <point x="283" y="6"/>
      <point x="386" y="6" type="curve" smooth="yes"/>
      <point x="457" y="6"/>
      <point x="493" y="51"/>
      <point x="516" y="118" type="curve"/>
      <point x="446" y="148" type="line"/>
      <point x="440" y="130"/>
      <point x="430" y="116"/>
      <point x="418" y="116" type="curve" smooth="yes"/>
      <point x="401" y="116"/>
      <point x="397" y="130"/>
      <point x="397" y="233" type="curve" smooth="yes"/>
      <point x="397" y="376"/>
      <point x="402" y="397"/>
      <point x="424" y="397" type="curve" smooth="yes"/>
      <point x="430" y="397"/>
      <point x="436" y="396"/>
      <point x="441" y="394" type="curve"/>
      <point x="441" y="117" type="line"/>
      <point x="523" y="108" type="line"/>
      <point x="596" y="171" type="line"/>
      <point x="596" y="460" type="line"/>
      <point x="552" y="490"/>
      <point x="490" y="508"/>
    </contour>
  </outline>
</glyph>
<glyph name="A" format="2">
  <advance width="517"/>
  <unicode hex="0041"/>
  <anchor x="259" y="0" name="bottom"/>
  <anchor x="437" y="0" name="ogonek"/>
  <anchor x="259" y="696" name="top"/>
  <anchor x="126" y="696" name="topleft"/>
  <outline>
    <contour>
      <point x="376" y="696" type="line"/>
      <point x="142" y="696" type="line"/>
      <point x="-20" y="0" type="line"/>
      <point x="177" y="0" type="line"/>
      <point x="256" y="557" type="line"/>
      <point x="338" y="0" type="line"/>
      <point x="537" y="0" type="line"/>
    </contour>
    <contour>
      <point x="300" y="276" type="line"/>
      <point x="214" y="276" type="line"/>
      <point x="188" y="138" type="line"/>
      <point x="326" y="138" type="line"/>
    </contour>
  </outline>
</glyph>
<glyph name="B" format="2">
  <advance width="521"/>
  <unicode hex="0042"/>
  <anchor x="262" y="0" name="bottom"/>
  <anchor x="244" y="696" name="top"/>
  <outline>
    <contour>
      <point x="220" y="696" type="curve" smooth="yes"/>
      <point x="28" y="696" type="line"/>
      <point x="28" y="0" type="line"/>
      <point x="242" y="0" type="line" smooth="yes"/>
      <point x="398" y="0"/>
      <point x="517" y="53"/>
      <point x="517" y="205" type="curve" smooth="yes"/>
      <point x="517" y="308"/>
      <point x="452" y="351"/>
      <point x="381" y="369" type="curve"/>
      <point x="440" y="386"/>
      <point x="493" y="433"/>
      <point x="493" y="516" type="curve" smooth="yes"/>
      <point x="493" y="640"/>
      <point x="386" y="696"/>
    </contour>
    <contour>
      <point x="238" y="560" type="line" smooth="yes"/>
      <point x="283" y="560"/>
      <point x="295" y="531"/>
      <point x="295" y="496" type="curve" smooth="yes"/>
      <point x="295" y="453"/>
      <point x="285" y="425"/>
      <point x="237" y="425" type="curve" smooth="yes"/>
      <point x="213" y="425" type="line"/>
      <point x="213" y="299" type="line"/>
      <point x="248" y="299" type="line" smooth="yes"/>
      <point x="300" y="299"/>
      <point x="316" y="269"/>
      <point x="316" y="219" type="curve" smooth="yes"/>
      <point x="316" y="163"/>
      <point x="290" y="140"/>
      <point x="244" y="140" type="curve" smooth="yes"/>
      <point x="226" y="140" type="line"/>
      <point x="226" y="560" type="line"/>
    </contour>
  </outline>
</glyph>
<glyph name="C" format="2">
  <advance width="495"/>
  <unicode hex="0043"/>
  <anchor x="286" y="0" name="bottom"/>
  <anchor x="326" y="353" name="center"/>
  <anchor x="306" y="696" name="top"/>
  <outline>
    <contour>
      <point x="302" y="716" type="curve" smooth="yes"/>
      <point x="130" y="716"/>
      <point x="17" y="593"/>
      <point x="17" y="350" type="curve" smooth="yes"/>
      <point x="17" y="98"/>
      <point x="127" y="-20"/>
      <point x="303" y="-20" type="curve" smooth="yes"/>
      <point x="385" y="-20"/>
      <point x="454" y="25"/>
      <point x="500" y="75" type="curve"/>
      <point x="416" y="179" type="line"/>
      <point x="379" y="149"/>
      <point x="351" y="129"/>
      <point x="315" y="129" type="curve" smooth="yes"/>
      <point x="253" y="129"/>
      <point x="222" y="188"/>
      <point x="222" y="350" type="curve" smooth="yes"/>
      <point x="222" y="512"/>
      <point x="251" y="573"/>
      <point x="313" y="573" type="curve" smooth="yes"/>
      <point x="348" y="573"/>
      <point x="377" y="554"/>
      <point x="405" y="529" type="curve"/>
      <point x="494" y="635" type="line"/>
      <point x="443" y="685"/>
      <point x="379" y="716"/>
    </contour>
  </outline>
</glyph>
<glyph name="D" format="2">
  <advance width="558"/>
  <unicode hex="0044"/>
  <anchor x="264" y="0" name="bottom"/>
  <anchor x="278" y="348" name="center"/>
  <anchor x="243" y="696" name="top"/>
  <outline>
    <contour>
      <point x="231" y="696" type="curve" smooth="yes"/>
      <point x="28" y="696" type="line"/>
      <point x="28" y="0" type="line"/>
      <point x="239" y="0" type="line" smooth="yes"/>
      <point x="410" y="0"/>
      <point x="541" y="73"/>
      <point x="541" y="351" type="curve" smooth="yes"/>
      <point x="541" y="648"/>
      <point x="392" y="696"/>
    </contour>
    <contour>
      <point x="253" y="557" type="line" smooth="yes"/>
      <point x="314" y="557"/>
      <point x="339" y="515"/>
      <point x="339" y="351" type="curve" smooth="yes"/>
      <point x="339" y="188"/>
      <point x="316" y="140"/>
      <point x="250" y="140" type="curve" smooth="yes"/>
      <point x="226" y="140" type="line"/>
      <point x="226" y="557" type="line"/>
    </contour>
  </outline>
</glyph>
<glyph name="E" format="2">
  <advance width="430"/>
  <unicode hex="0045"/>
  <anchor x="222" y="0" name="bottom"/>
  <anchor x="393" y="0" name="ogonek"/>
  <anchor x="226" y="696" name="top"/>
  <anchor x="31" y="696" name="topleft"/>
  <outline>
    <contour>
      <point x="425" y="696" type="line"/>
      <point x="28" y="696" type="line"/>
      <point x="28" y="0" type="line"/>
      <point x="417" y="0" type="line"/>
      <point x="417" y="139" type="line"/>
      <point x="226" y="139" type="line"/>
      <point x="226" y="286" type="line"/>
      <point x="384" y="286" type="line"/>
      <point x="384" y="420" type="line"/>
      <point x="226" y="420" type="line"/>
      <point x="226" y="559" type="line"/>
      <point x="405" y="559" type="line"/>
    </contour>
  </outline>
</glyph>
<glyph name="F" format="2">
  <advance width="405"/>
  <unicode hex="0046"/>
  <anchor x="127" y="0" name="bottom"/>
  <anchor x="227" y="696" name="top"/>
  <outline>
    <contour>
      <point x="28" y="0" type="line"/>
      <point x="226" y="0" type="line"/>
      <point x="226" y="261" type="line"/>
      <point x="371" y="261" type="line"/>
      <point x="371" y="399" type="line"/>
      <point x="226" y="399" type="line"/>
      <point x="226" y="559" type="line"/>
      <point x="390" y="559" type="line"/>
      <point x="410" y="696" type="line"/>
      <point x="28" y="696" type="line"/>
    </contour>
  </outline>
</glyph>
<glyph name="G" format="2">
  <advance width="556"/>
  <unicode hex="0047"/>
  <anchor x="299" y="0" name="bottom"/>
  <anchor x="295" y="696" name="top"/>
  <outline>
    <contour>
      <point x="319" y="716" type="curve" smooth="yes"/>
      <point x="146" y="716"/>
      <point x="17" y="589"/>
      <point x="17" y="349" type="curve" smooth="yes"/>
      <point x="17" y="112"/>
      <point x="99" y="-19"/>
      <point x="306" y="-19" type="curve" smooth="yes"/>
      <point x="375" y="-19"/>
      <point x="464" y="9"/>
      <point x="529" y="59" type="curve"/>
      <point x="529" y="407" type="line"/>
      <point x="278" y="407" type="line"/>
      <point x="296" y="273" type="line"/>
      <point x="345" y="273" type="line"/>
      <point x="345" y="140" type="line"/>
      <point x="331" y="128"/>
      <point x="314" y="121"/>
      <point x="297" y="121" type="curve" smooth="yes"/>
      <point x="241" y="121"/>
      <point x="220" y="174"/>
      <point x="220" y="348" type="curve" smooth="yes"/>
      <point x="220" y="512"/>
      <point x="253" y="577"/>
      <point x="331" y="577" type="curve" smooth="yes"/>
      <point x="372" y="577"/>
      <point x="403" y="562"/>
      <point x="441" y="531" type="curve"/>
      <point x="531" y="626" type="line"/>
      <point x="482" y="677"/>
      <point x="410" y="716"/>
    </contour>
  </outline>
</glyph>
<glyph name="H" format="2">
  <advance width="548"/>
  <unicode hex="0048"/>
  <anchor x="275" y="0" name="bottom"/>
  <anchor x="528" y="0" name="bottomright"/>
  <anchor x="275" y="348" name="center"/>
  <anchor x="275" y="696" name="top"/>
  <anchor x="31" y="695" name="topleft"/>
  <outline>
    <contour>
      <point x="322" y="0" type="line"/>
      <point x="520" y="0" type="line"/>
      <point x="520" y="696" type="line"/>
      <point x="322" y="696" type="line"/>
      <point x="322" y="436" type="line"/>
      <point x="226" y="436" type="line"/>
      <point x="226" y="696" type="line"/>
      <point x="28" y="696" type="line"/>
      <point x="28" y="0" type="line"/>
      <point x="226" y="0" type="line"/>
      <point x="226" y="284" type="line"/>
      <point x="322" y="284" type="line"/>
    </contour>
  </outline>
</glyph>
<glyph name="I" format="2">
  <advance width="254"/>
  <unicode hex="0049"/>
  <anchor x="127" y="0" name="bottom"/>
  <anchor x="184" y="0" name="ogonek"/>
  <anchor x="127" y="696" name="top"/>
  <anchor x="31" y="696" name="topleft"/>
  <outline>
    <contour>
      <point x="226" y="696" type="line"/>
      <point x="28" y="696" type="line"/>
      <point x="28" y="0" type="line"/>
      <point x="226" y="0" type="line"/>
    </contour>
  </outline>
</glyph>
<glyph name="J" format="2">
  <advance width="277"/>
  <unicode hex="004A"/>
  <anchor x="134" y="-214" name="bottom"/>
  <anchor x="151" y="696" name="top"/>
  <outline>
    <contour>
      <point x="250" y="696" type="line"/>
      <point x="52" y="696" type="line"/>
      <point x="52" y="117" type="line" smooth="yes"/>
      <point x="52" y="29"/>
      <point x="47" y="-12"/>
      <point x="-25" y="-46" type="curve"/>
      <point x="28" y="-185" type="line"/>
      <point x="130" y="-145"/>
      <point x="250" y="-80"/>
      <point x="250" y="110" type="curve" smooth="yes"/>
    </contour>
  </outline>
</glyph>
<glyph name="K" format="2">
  <advance width="568"/>
  <unicode hex="004B"/>
  <anchor x="282" y="0" name="bottom"/>
  <anchor x="279" y="696" name="top"/>
  <outline>
    <contour>
      <point x="573" y="696" type="line"/>
      <point x="382" y="696" type="line"/>
      <point x="231" y="371" type="line"/>
      <point x="375" y="0" type="line"/>
      <point x="588" y="0" type="line"/>
      <point x="425" y="386" type="line"/>
    </contour>
    <contour>
      <point x="226" y="696" type="line"/>
      <point x="28" y="696" type="line"/>
      <point x="28" y="0" type="line"/>
      <point x="226" y="0" type="line"/>
    </contour>
  </outline>
</glyph>
<glyph name="L" format="2">
  <advance width="438"/>
  <unicode hex="004C"/>
  <anchor x="222" y="0" name="bottom"/>
  <anchor x="341" y="403" name="center"/>
  <anchor x="127" y="696" name="top"/>
  <anchor x="231" y="696" name="topright"/>
  <outline>
    <contour>
      <point x="226" y="696" type="line"/>
      <point x="28" y="696" type="line"/>
      <point x="28" y="0" type="line"/>
      <point x="416" y="0" type="line"/>
      <point x="436" y="152" type="line"/>
      <point x="226" y="152" type="line"/>
    </contour>
  </outline>
</glyph>
<glyph name="M" format="2">
  <advance width="672"/>
  <unicode hex="004D"/>
  <anchor x="334" y="0" name="bottom"/>
  <anchor x="670" y="0" name="bottomright"/>
  <anchor x="335" y="696" name="top"/>
  <outline>
    <contour>
      <point x="623" y="696" type="line"/>
      <point x="380" y="696" type="line"/>
      <point x="338" y="241" type="line"/>
      <point x="289" y="696" type="line"/>
      <point x="49" y="696" type="line"/>
      <point x="10" y="0" type="line"/>
      <point x="194" y="0" type="line"/>
      <point x="194" y="252" type="line" smooth="yes"/>
      <point x="194" y="347"/>
      <point x="192" y="414"/>
      <point x="187" y="527" type="curve"/>
      <point x="242" y="71" type="line"/>
      <point x="428" y="71" type="line"/>
      <point x="480" y="527" type="line"/>
      <point x="477" y="426"/>
      <point x="476" y="343"/>
      <point x="476" y="252" type="curve" smooth="yes"/>
      <point x="475" y="0" type="line"/>
      <point x="662" y="0" type="line"/>
    </contour>
  </outline>
</glyph>
<glyph name="N" format="2">
  <advance width="541"/>
  <unicode hex="004E"/>
  <anchor x="270" y="0" name="bottom"/>
  <anchor x="268" y="696" name="top"/>
  <outline>
    <contour>
      <point x="513" y="696" type="line"/>
      <point x="346" y="696" type="line"/>
      <point x="346" y="461" type="line" smooth="yes"/>
      <point x="346" y="338"/>
      <point x="360" y="256"/>
      <point x="373" y="170" type="curve"/>
      <point x="266" y="696" type="line"/>
      <point x="28" y="696" type="line"/>
      <point x="28" y="0" type="line"/>
      <point x="194" y="0" type="line"/>
      <point x="194" y="224" type="line" smooth="yes"/>
      <point x="194" y="352"/>
      <point x="178" y="449"/>
      <point x="169" y="525" type="curve"/>
      <point x="274" y="0" type="line"/>
      <point x="513" y="0" type="line"/>
    </contour>
  </outline>
</glyph>
<glyph name="O" format="2">
  <advance width="585"/>
  <unicode hex="004F"/>
  <anchor x="292" y="0" name="bottom"/>
  <anchor x="415" y="0" name="ogonek"/>
  <anchor x="292" y="696" name="top"/>
  <anchor x="92" y="696" name="topleft"/>
  <anchor x="503" y="696" name="topright"/>
  <outline>
    <contour>
      <point x="292" y="716" type="curve" smooth="yes"/>
      <point x="111" y="716"/>
      <point x="17" y="591"/>
      <point x="17" y="349" type="curve" smooth="yes"/>
      <point x="17" y="102"/>
      <point x="111" y="-20"/>
      <point x="292" y="-20" type="curve" smooth="yes"/>
      <point x="473" y="-20"/>
      <point x="568" y="106"/>
      <point x="568" y="349" type="curve" smooth="yes"/>
      <point x="568" y="596"/>
      <point x="473" y="716"/>
    </contour>
    <contour>
      <point x="292" y="575" type="curve" smooth="yes"/>
      <point x="346" y="575"/>
      <point x="363" y="518"/>
      <point x="363" y="349" type="curve" smooth="yes"/>
      <point x="363" y="174"/>
      <point x="349" y="120"/>
      <point x="292" y="120" type="curve" smooth="yes"/>
      <point x="237" y="120"/>
      <point x="222" y="174"/>
      <point x="222" y="349" type="curve" smooth="yes"/>
      <point x="222" y="518"/>
      <point x="238" y="575"/>
    </contour>
  </outline>
</glyph>
<glyph name="P" format="2">
  <advance width="514"/>
  <unicode hex="0050"/>
  <anchor x="127" y="0" name="bottom"/>
  <anchor x="262" y="696" name="top"/>
  <anchor x="20" y="696" name="topleft"/>
  <outline>
    <contour>
      <point x="226" y="0" type="line"/>
      <point x="226" y="559" type="line"/>
      <point x="239" y="559" type="line" smooth="yes"/>
      <point x="296" y="559"/>
      <point x="308" y="524"/>
      <point x="308" y="463" type="curve" smooth="yes"/>
      <point x="308" y="391"/>
      <point x="292" y="359"/>
      <point x="236" y="359" type="curve" smooth="yes"/>
      <point x="213" y="359" type="line"/>
      <point x="213" y="220" type="line"/>
      <point x="257" y="220" type="line" smooth="yes"/>
      <point x="415" y="220"/>
      <point x="509" y="303"/>
      <point x="509" y="463" type="curve" smooth="yes"/>
      <point x="509" y="616"/>
      <point x="411" y="696"/>
      <point x="232" y="696" type="curve" smooth="yes"/>
      <point x="28" y="696" type="line"/>
      <point x="28" y="0" type="line"/>
    </contour>
  </outline>
</glyph>
<glyph name="Q" format="2">
  <advance width="585"/>
  <unicode hex="0051"/>
  <anchor x="293" y="0" name="bottom"/>
  <anchor x="293" y="695" name="top"/>
  <outline>
    <contour>
      <point x="292" y="716" type="curve" smooth="yes"/>
      <point x="111" y="716"/>
      <point x="17" y="586"/>
      <point x="17" y="349" type="curve" smooth="yes"/>
      <point x="17" y="111"/>
      <point x="111" y="-16"/>
      <point x="277" y="-16" type="curve" smooth="yes"/>
      <point x="299" y="-16"/>
      <point x="321" y="-14"/>
      <point x="341" y="-10" type="curve"/>
      <point x="422" y="47" type="line"/>
      <point x="493" y="94"/>
      <point x="568" y="171"/>
      <point x="568" y="349" type="curve" smooth="yes"/>
      <point x="568" y="591"/>
      <point x="473" y="716"/>
    </contour>
    <contour>
      <point x="422" y="47" type="curve"/>
      <point x="277" y="-16" type="line"/>
      <point x="387" y="-16"/>
      <point x="459" y="-95"/>
      <point x="500" y="-168" type="curve"/>
      <point x="615" y="-21" type="line"/>
      <point x="563" y="28"/>
      <point x="514" y="47"/>
    </contour>
    <contour>
      <point x="292" y="575" type="curve" smooth="yes"/>
      <point x="346" y="575"/>
      <point x="363" y="523"/>
      <point x="363" y="349" type="curve" smooth="yes"/>
      <point x="363" y="175"/>
      <point x="349" y="121"/>
      <point x="292" y="121" type="curve" smooth="yes"/>
      <point x="237" y="121"/>
      <point x="222" y="175"/>
      <point x="222" y="349" type="curve" smooth="yes"/>
      <point x="222" y="523"/>
      <point x="238" y="575"/>
    </contour>
  </outline>
</glyph>
<glyph name="R" format="2">
  <advance width="527"/>
  <unicode hex="0052"/>
  <anchor x="264" y="0" name="bottom"/>
  <anchor x="267" y="696" name="top"/>
  <outline>
    <contour>
      <point x="241" y="696" type="curve" smooth="yes"/>
      <point x="28" y="696" type="line"/>
      <point x="28" y="0" type="line"/>
      <point x="226" y="0" type="line"/>
      <point x="226" y="561" type="line"/>
      <point x="241" y="561" type="line" smooth="yes"/>
      <point x="288" y="561"/>
      <point x="311" y="535"/>
      <point x="311" y="476" type="curve" smooth="yes"/>
      <point x="311" y="413"/>
      <point x="295" y="384"/>
      <point x="244" y="384" type="curve" smooth="yes"/>
      <point x="213" y="384" type="line"/>
      <point x="213" y="251" type="line"/>
      <point x="340" y="251" type="line"/>
      <point x="467" y="311"/>
      <point x="511" y="366"/>
      <point x="511" y="476" type="curve" smooth="yes"/>
      <point x="511" y="619"/>
      <point x="427" y="696"/>
    </contour>
    <contour>
      <point x="410" y="301" type="line"/>
      <point x="238" y="265" type="line"/>
      <point x="344" y="0" type="line"/>
      <point x="552" y="0" type="line"/>
    </contour>
  </outline>
</glyph>
<glyph name="S" format="2">
  <advance width="494"/>
  <unicode hex="0053"/>
  <anchor x="246" y="0" name="bottom"/>
  <anchor x="258" y="695" name="top"/>
  <outline>
    <contour>
      <point x="251" y="716" type="curve" smooth="yes"/>
      <point x="118" y="716"/>
      <point x="16" y="635"/>
      <point x="16" y="502" type="curve" smooth="yes"/>
      <point x="16" y="403"/>
      <point x="61" y="345"/>
      <point x="197" y="284" type="curve" smooth="yes"/>
      <point x="259" y="256"/>
      <point x="281" y="231"/>
      <point x="281" y="190" type="curve" smooth="yes"/>
      <point x="281" y="153"/>
      <point x="266" y="122"/>
      <point x="217" y="122" type="curve" smooth="yes"/>
      <point x="169" y="122"/>
      <point x="128" y="147"/>
      <point x="84" y="186" type="curve"/>
      <point x="-8" y="83" type="line"/>
      <point x="44" y="28"/>
      <point x="116" y="-20"/>
      <point x="234" y="-20" type="curve" smooth="yes"/>
      <point x="391" y="-20"/>
      <point x="486" y="73"/>
      <point x="486" y="208" type="curve" smooth="yes"/>
      <point x="486" y="332"/>
      <point x="432" y="382"/>
      <point x="317" y="436" type="curve" smooth="yes"/>
      <point x="242" y="471"/>
      <point x="220" y="486"/>
      <point x="220" y="520" type="curve" smooth="yes"/>
      <point x="220" y="552"/>
      <point x="237" y="575"/>
      <point x="277" y="575" type="curve" smooth="yes"/>
      <point x="316" y="575"/>
      <point x="353" y="556"/>
      <point x="391" y="522" type="curve"/>
      <point x="473" y="622" type="line"/>
      <point x="417" y="682"/>
      <point x="348" y="716"/>
    </contour>
  </outline>
</glyph>
<glyph name="T" format="2">
  <advance width="463"/>
  <unicode hex="0054"/>
  <anchor x="231" y="0" name="bottom"/>
  <anchor x="339" y="0" name="bottomright"/>
  <anchor x="231" y="348" name="center"/>
  <anchor x="231" y="696" name="top"/>
  <outline>
    <contour>
      <point x="471" y="696" type="line"/>
      <point x="1" y="696" type="line"/>
      <point x="1" y="549" type="line"/>
      <point x="132" y="549" type="line"/>
      <point x="132" y="0" type="line"/>
      <point x="330" y="0" type="line"/>
      <point x="330" y="549" type="line"/>
      <point x="451" y="549" type="line"/>
    </contour>
  </outline>
</glyph>
<glyph name="U" format="2">
  <advance width="535"/>
  <unicode hex="0055"/>
  <anchor x="267" y="0" name="bottom"/>
  <anchor x="391" y="0" name="ogonek"/>
  <anchor x="267" y="696" name="top"/>
  <anchor x="525" y="696" name="topright"/>
  <outline>
    <contour>
      <point x="517" y="696" type="line"/>
      <point x="319" y="696" type="line"/>
      <point x="319" y="221" type="line" smooth="yes"/>
      <point x="319" y="152"/>
      <point x="307" y="123"/>
      <point x="268" y="123" type="curve" smooth="yes"/>
      <point x="228" y="123"/>
      <point x="216" y="152"/>
      <point x="216" y="221" type="curve" smooth="yes"/>
      <point x="216" y="696" type="line"/>
      <point x="18" y="696" type="line"/>
      <point x="18" y="215" type="line" smooth="yes"/>
      <point x="18" y="74"/>
      <point x="97" y="-19"/>
      <point x="268" y="-19" type="curve" smooth="yes"/>
      <point x="439" y="-19"/>
      <point x="517" y="83"/>
      <point x="517" y="215" type="curve" smooth="yes"/>
    </contour>
  </outline>
</glyph>
<glyph name="V" format="2">
  <advance width="498"/>
  <unicode hex="0056"/>
  <anchor x="249" y="0" name="bottom"/>
  <anchor x="249" y="696" name="top"/>
  <outline>
    <contour>
      <point x="518" y="696" type="line"/>
      <point x="325" y="696" type="line"/>
      <point x="257" y="140" type="line"/>
      <point x="178" y="696" type="line"/>
      <point x="-20" y="696" type="line"/>
      <point x="124" y="0" type="line"/>
      <point x="385" y="0" type="line"/>
    </contour>
  </outline>
</glyph>
<glyph name="W" format="2">
  <advance width="726"/>
  <unicode hex="0057"/>
  <anchor x="363" y="0" name="bottom"/>
  <anchor x="366" y="696" name="top"/>
  <outline>
    <contour>
      <point x="726" y="696" type="line"/>
      <point x="545" y="696" type="line"/>
      <point x="505" y="144" type="line"/>
      <point x="465" y="696" type="line"/>
      <point x="264" y="696" type="line"/>
      <point x="217" y="144" type="line"/>
      <point x="188" y="696" type="line"/>
      <point x="0" y="696" type="line"/>
      <point x="68" y="0" type="line"/>
      <point x="320" y="0" type="line"/>
      <point x="362" y="511" type="line"/>
      <point x="396" y="0" type="line"/>
      <point x="653" y="0" type="line"/>
    </contour>
  </outline>
</glyph>
<glyph name="X" format="2">
  <advance width="514"/>
  <unicode hex="0058"/>
  <anchor x="257" y="0" name="bottom"/>
  <anchor x="463" y="0" name="bottomright"/>
  <anchor x="257" y="696" name="top"/>
  <outline>
    <contour>
      <point x="203" y="696" type="line"/>
      <point x="-3" y="696" type="line"/>
      <point x="135" y="369" type="line"/>
      <point x="252" y="244" type="line"/>
      <point x="320" y="0" type="line"/>
      <point x="526" y="0" type="line"/>
      <point x="371" y="375" type="line"/>
      <point x="254" y="491" type="line"/>
    </contour>
    <contour>
      <point x="517" y="696" type="line"/>
      <point x="314" y="696" type="line"/>
      <point x="254" y="491" type="line"/>
      <point x="135" y="369" type="line"/>
      <point x="-12" y="0" type="line"/>
      <point x="192" y="0" type="line"/>
      <point x="252" y="244" type="line"/>
      <point x="371" y="375" type="line"/>
    </contour>
  </outline>
</glyph>
<glyph name="Y" format="2">
  <advance width="526"/>
  <unicode hex="0059"/>
  <anchor x="263" y="0" name="bottom"/>
  <anchor x="263" y="696" name="top"/>
  <anchor x="-13" y="695" name="topleft"/>
  <outline>
    <contour>
      <point x="544" y="696" type="line"/>
      <point x="344" y="696" type="line"/>
      <point x="265" y="407" type="line"/>
      <point x="188" y="696" type="line"/>
      <point x="-18" y="696" type="line"/>
      <point x="164" y="257" type="line"/>
      <point x="164" y="0" type="line"/>
      <point x="362" y="0" type="line"/>
      <point x="362" y="258" type="line"/>
    </contour>
  </outline>
</glyph>
<glyph name="Z" format="2">
  <advance width="464"/>
  <unicode hex="005A"/>
  <anchor x="222" y="0" name="bottom"/>
  <anchor x="231" y="696" name="top"/>
  <outline>
    <contour>
      <point x="452" y="696" type="line"/>
      <point x="24" y="696" type="line"/>
      <point x="24" y="546" type="line"/>
      <point x="233" y="546" type="line"/>
      <point x="3" y="145" type="line"/>
      <point x="3" y="0" type="line"/>
      <point x="443" y="0" type="line"/>
      <point x="461" y="155" type="line"/>
      <point x="221" y="155" type="line"/>
      <point x="452" y="549" type="line"/>
    </contour>
  </outline>
</glyph>
<glyph name="bracketleft" format="2">
  <advance width="275"/>
  <unicode hex="005B"/>
  <outline>
    <contour>
      <point x="275" y="826" type="line"/>
      <point x="5" y="826" type="line"/>
      <point x="5" y="-126" type="line"/>
      <point x="275" y="-126" type="line"/>
      <point x="275" y="9" type="line"/>
      <point x="182" y="9" type="line"/>
      <point x="182" y="690" type="line"/>
      <point x="275" y="690" type="line"/>
    </contour>
  </outline>
</glyph>
<glyph name="backslash" format="2">
  <advance width="426"/>
  <unicode hex="005C"/>
  <outline>
    <contour>
      <point x="193" y="821" type="line"/>
      <point x="31" y="783" type="line"/>
      <point x="233" y="-116" type="line"/>
      <point x="395" y="-78" type="line"/>
    </contour>
  </outline>
</glyph>
<glyph name="bracketright" format="2">
  <advance width="275"/>
  <unicode hex="005D"/>
  <outline>
    <contour>
      <point x="270" y="826" type="line"/>
      <point x="0" y="826" type="line"/>
      <point x="0" y="691" type="line"/>
      <point x="93" y="691" type="line"/>
      <point x="93" y="10" type="line"/>
      <point x="0" y="10" type="line"/>
      <point x="0" y="-126" type="line"/>
      <point x="270" y="-126" type="line"/>
    </contour>
  </outline>
</glyph>
<glyph name="asciicircum" format="2">
  <advance width="485"/>
  <unicode hex="005E"/>
  <outline>
    <contour>
      <point x="330" y="846" type="line"/>
      <point x="155" y="846" type="line"/>
      <point x="0" y="527" type="line"/>
      <point x="182" y="527" type="line"/>
      <point x="241" y="709" type="line"/>
      <point x="306" y="527" type="line"/>
      <point x="485" y="527" type="line"/>
    </contour>
  </outline>
</glyph>
<glyph name="a" format="2">
  <advance width="460"/>
  <unicode hex="0061"/>
  <anchor x="234" y="0" name="bottom"/>
  <anchor x="423" y="-16" name="ogonek"/>
  <anchor x="234" y="534" name="top"/>
  <outline>
    <contour>
      <point x="229" y="554" type="curve" smooth="yes"/>
      <point x="169" y="554"/>
      <point x="94" y="539"/>
      <point x="38" y="512" type="curve"/>
      <point x="79" y="396" type="line"/>
      <point x="122" y="412"/>
      <point x="158" y="422"/>
      <point x="190" y="422" type="curve" smooth="yes"/>
      <point x="235" y="422"/>
      <point x="245" y="407"/>
      <point x="245" y="347" type="curve"/>
      <point x="245" y="136" type="line"/>
      <point x="280" y="71" type="line"/>
      <point x="303" y="10"/>
      <point x="348" y="-11"/>
      <point x="415" y="-16" type="curve"/>
      <point x="453" y="107" type="line"/>
      <point x="434" y="116"/>
      <point x="430" y="128"/>
      <point x="430" y="159" type="curve" smooth="yes"/>
      <point x="430" y="358" type="line" smooth="yes"/>
      <point x="430" y="497"/>
      <point x="363" y="554"/>
    </contour>
    <contour>
      <point x="269" y="332" type="line"/>
      <point x="225" y="332" type="line" smooth="yes"/>
      <point x="82" y="332"/>
      <point x="7" y="267"/>
      <point x="7" y="150" type="curve" smooth="yes"/>
      <point x="7" y="47"/>
      <point x="64" y="-20"/>
      <point x="153" y="-20" type="curve" smooth="yes"/>
      <point x="208" y="-20"/>
      <point x="262" y="3"/>
      <point x="300" y="75" type="curve"/>
      <point x="251" y="162" type="line"/>
      <point x="247" y="134"/>
      <point x="232" y="113"/>
      <point x="216" y="113" type="curve" smooth="yes"/>
      <point x="200" y="113"/>
      <point x="190" y="132"/>
      <point x="190" y="168" type="curve" smooth="yes"/>
      <point x="190" y="212"/>
      <point x="205" y="232"/>
      <point x="241" y="232" type="curve" smooth="yes"/>
      <point x="269" y="232" type="line"/>
    </contour>
  </outline>
</glyph>
<glyph name="b" format="2">
  <advance width="505"/>
  <unicode hex="0062"/>
  <anchor x="259" y="0" name="bottom"/>
  <anchor x="273" y="744" name="top"/>
  <outline>
    <contour>
      <point x="333" y="554" type="curve" smooth="yes"/>
      <point x="439" y="554"/>
      <point x="491" y="456"/>
      <point x="491" y="266" type="curve" smooth="yes"/>
      <point x="491" y="92"/>
      <point x="426" y="-20"/>
      <point x="314" y="-20" type="curve" smooth="yes"/>
      <point x="260" y="-20"/>
      <point x="218" y="11"/>
      <point x="194" y="61" type="curve"/>
      <point x="210" y="165" type="line"/>
      <point x="220" y="135"/>
      <point x="235" y="115"/>
      <point x="254" y="115" type="curve" smooth="yes"/>
      <point x="280" y="115"/>
      <point x="298" y="140"/>
      <point x="298" y="266" type="curve" smooth="yes"/>
      <point x="298" y="404"/>
      <point x="280" y="417"/>
      <point x="262" y="417" type="curve" smooth="yes"/>
      <point x="245" y="417"/>
      <point x="224" y="395"/>
      <point x="207" y="353" type="curve"/>
      <point x="207" y="475" type="line"/>
      <point x="230" y="523"/>
      <point x="278" y="554"/>
    </contour>
    <contour>
      <point x="217" y="764" type="line"/>
      <point x="217" y="135" type="line"/>
      <point x="196" y="0" type="line"/>
      <point x="27" y="0" type="line"/>
      <point x="27" y="744" type="line"/>
    </contour>
  </outline>
</glyph>
<glyph name="c" format="2">
  <advance width="407"/>
  <unicode hex="0063"/>
  <anchor x="236" y="0" name="bottom"/>
  <anchor x="251" y="534" name="top"/>
  <outline>
    <contour>
      <point x="258" y="554" type="curve" smooth="yes"/>
      <point x="109" y="554"/>
      <point x="14" y="443"/>
      <point x="14" y="263" type="curve" smooth="yes"/>
      <point x="14" y="87"/>
      <point x="106" y="-20"/>
      <point x="260" y="-20" type="curve" smooth="yes"/>
      <point x="329" y="-20"/>
      <point x="381" y="6"/>
      <point x="422" y="45" type="curve"/>
      <point x="341" y="152" type="line"/>
      <point x="315" y="133"/>
      <point x="297" y="125"/>
      <point x="275" y="125" type="curve" smooth="yes"/>
      <point x="240" y="125"/>
      <point x="211" y="145"/>
      <point x="211" y="263" type="curve" smooth="yes"/>
      <point x="211" y="388"/>
      <point x="234" y="412"/>
      <point x="275" y="412" type="curve" smooth="yes"/>
      <point x="298" y="412"/>
      <point x="320" y="402"/>
      <point x="346" y="381" type="curve"/>
      <point x="422" y="484" type="line"/>
      <point x="379" y="528"/>
      <point x="326" y="554"/>
    </contour>
  </outline>
</glyph>
<glyph name="d" format="2">
  <advance width="506"/>
  <unicode hex="0064"/>
  <anchor x="259" y="0" name="bottom"/>
  <anchor x="253" y="267" name="center"/>
  <anchor x="248" y="744" name="top"/>
  <anchor x="488" y="744" name="topright"/>
  <outline>
    <contour>
      <point x="199" y="554" type="curve" smooth="yes"/>
      <point x="91" y="554"/>
      <point x="14" y="446"/>
      <point x="14" y="269" type="curve" smooth="yes"/>
      <point x="14" y="82"/>
      <point x="69" y="-20"/>
      <point x="183" y="-20" type="curve" smooth="yes"/>
      <point x="254" y="-20"/>
      <point x="289" y="24"/>
      <point x="316" y="67" type="curve"/>
      <point x="298" y="174" type="line"/>
      <point x="284" y="136"/>
      <point x="269" y="116"/>
      <point x="250" y="116" type="curve" smooth="yes"/>
      <point x="230" y="116"/>
      <point x="208" y="132"/>
      <point x="208" y="268" type="curve" smooth="yes"/>
      <point x="208" y="389"/>
      <point x="232" y="418"/>
      <point x="257" y="418" type="curve" smooth="yes"/>
      <point x="275" y="418"/>
      <point x="284" y="402"/>
      <point x="301" y="372" type="curve"/>
      <point x="299" y="499" type="line"/>
      <point x="276" y="534"/>
      <point x="241" y="554"/>
    </contour>
    <contour>
      <point x="289" y="763" type="line"/>
      <point x="289" y="154" type="line"/>
      <point x="303" y="70" type="line"/>
      <point x="310" y="0" type="line"/>
      <point x="479" y="0" type="line"/>
      <point x="479" y="744" type="line"/>
    </contour>
  </outline>
</glyph>
<glyph name="e" format="2">
  <advance width="480"/>
  <unicode hex="0065"/>
  <anchor x="252" y="0" name="bottom"/>
  <anchor x="398" y="11" name="ogonek"/>
  <anchor x="246" y="534" name="top"/>
  <outline>
    <contour>
      <point x="244" y="554" type="curve" smooth="yes"/>
      <point x="89" y="554"/>
      <point x="14" y="433"/>
      <point x="14" y="265" type="curve" smooth="yes"/>
      <point x="14" y="96"/>
      <point x="91" y="-20"/>
      <point x="261" y="-20" type="curve" smooth="yes"/>
      <point x="346" y="-20"/>
      <point x="411" y="15"/>
      <point x="454" y="58" type="curve"/>
      <point x="379" y="158" type="line"/>
      <point x="341" y="130"/>
      <point x="311" y="115"/>
      <point x="276" y="115" type="curve" smooth="yes"/>
      <point x="228" y="115"/>
      <point x="200" y="137"/>
      <point x="200" y="263" type="curve" smooth="yes"/>
      <point x="200" y="407"/>
      <point x="213" y="435"/>
      <point x="246" y="435" type="curve" smooth="yes"/>
      <point x="280" y="435"/>
      <point x="286" y="398"/>
      <point x="286" y="328" type="curve" smooth="yes"/>
      <point x="286" y="326"/>
      <point x="286" y="322"/>
      <point x="286" y="320" type="curve"/>
      <point x="189" y="320" type="line"/>
      <point x="191" y="213" type="line"/>
      <point x="467" y="213" type="line"/>
      <point x="469" y="231"/>
      <point x="471" y="257"/>
      <point x="471" y="274" type="curve" smooth="yes"/>
      <point x="471" y="463"/>
      <point x="378" y="554"/>
    </contour>
  </outline>
</glyph>
<glyph name="f" format="2">
  <advance width="321"/>
  <unicode hex="0066"/>
  <anchor x="148" y="0" name="bottom"/>
  <anchor x="229" y="744" name="top"/>
  <outline>
    <contour>
      <point x="252" y="764" type="curve" smooth="yes"/>
      <point x="118" y="764"/>
      <point x="53" y="686"/>
      <point x="53" y="569" type="curve" smooth="yes"/>
      <point x="53" y="0" type="line"/>
      <point x="243" y="0" type="line"/>
      <point x="243" y="578" type="line" smooth="yes"/>
      <point x="243" y="611"/>
      <point x="256" y="627"/>
      <point x="285" y="627" type="curve" smooth="yes"/>
      <point x="304" y="627"/>
      <point x="321" y="622"/>
      <point x="343" y="612" type="curve"/>
      <point x="391" y="728" type="line"/>
      <point x="355" y="748"/>
      <point x="308" y="764"/>
    </contour>
    <contour>
      <point x="344" y="534" type="line"/>
      <point x="0" y="534" type="line"/>
      <point x="0" y="405" type="line"/>
      <point x="323" y="405" type="line"/>
    </contour>
  </outline>
</glyph>
<glyph name="g" format="2">
  <advance width="467"/>
  <unicode hex="0067"/>
  <anchor x="204" y="-214" name="bottom"/>
  <anchor x="237" y="534" name="top"/>
  <outline>
    <contour>
      <point x="434" y="625" type="line"/>
      <point x="379" y="590"/>
      <point x="320" y="550"/>
      <point x="234" y="551" type="curve" smooth="yes"/>
      <point x="89" y="553"/>
      <point x="6" y="481"/>
      <point x="6" y="353" type="curve" smooth="yes"/>
      <point x="6" y="279"/>
      <point x="31" y="236"/>
      <point x="90" y="198" type="curve"/>
      <point x="58" y="176"/>
      <point x="32" y="140"/>
      <point x="32" y="95" type="curve" smooth="yes"/>
      <point x="32" y="33"/>
      <point x="75" y="-12"/>
      <point x="191" y="-12" type="curve" smooth="yes"/>
      <point x="233" y="-12" type="line" smooth="yes"/>
      <point x="270" y="-12"/>
      <point x="284" y="-27"/>
      <point x="284" y="-57" type="curve" smooth="yes"/>
      <point x="284" y="-85"/>
      <point x="272" y="-109"/>
      <point x="220" y="-109" type="curve" smooth="yes"/>
      <point x="165" y="-109"/>
      <point x="155" y="-88"/>
      <point x="155" y="-50" type="curve"/>
      <point x="-15" y="-50" type="line"/>
      <point x="-15" y="-155"/>
      <point x="27" y="-227"/>
      <point x="219" y="-227" type="curve" smooth="yes"/>
      <point x="385" y="-227"/>
      <point x="474" y="-153"/>
      <point x="474" y="-44" type="curve" smooth="yes"/>
      <point x="474" y="49"/>
      <point x="404" y="112"/>
      <point x="277" y="112" type="curve" smooth="yes"/>
      <point x="226" y="112" type="line" smooth="yes"/>
      <point x="188" y="112"/>
      <point x="181" y="122"/>
      <point x="181" y="140" type="curve" smooth="yes"/>
      <point x="181" y="150"/>
      <point x="185" y="158"/>
      <point x="193" y="163" type="curve"/>
      <point x="205" y="161"/>
      <point x="220" y="159"/>
      <point x="238" y="159" type="curve" smooth="yes"/>
      <point x="367" y="159"/>
      <point x="445" y="234"/>
      <point x="445" y="336" type="curve" smooth="yes"/>
      <point x="445" y="410"/>
      <point x="415" y="450"/>
      <point x="353" y="476" type="curve"/>
      <point x="413" y="476"/>
      <point x="453" y="484"/>
      <point x="477" y="499" type="curve"/>
    </contour>
    <contour>
      <point x="230" y="431" type="curve" smooth="yes"/>
      <point x="253" y="431"/>
      <point x="267" y="418"/>
      <point x="267" y="360" type="curve" smooth="yes"/>
      <point x="267" y="297"/>
      <point x="254" y="280"/>
      <point x="229" y="280" type="curve" smooth="yes"/>
      <point x="206" y="280"/>
      <point x="191" y="295"/>
      <point x="191" y="357" type="curve" smooth="yes"/>
      <point x="191" y="414"/>
      <point x="206" y="431"/>
    </contour>
  </outline>
</glyph>
<glyph name="h" format="2">
  <advance width="479"/>
  <unicode hex="0068"/>
  <anchor x="242" y="0" name="bottom"/>
  <anchor x="239" y="267" name="center"/>
  <anchor x="239" y="744" name="top"/>
  <outline>
    <contour>
      <point x="265" y="0" type="line"/>
      <point x="455" y="0" type="line"/>
      <point x="455" y="393" type="line" smooth="yes"/>
      <point x="455" y="496"/>
      <point x="410" y="554"/>
      <point x="335" y="554" type="curve" smooth="yes"/>
      <point x="278" y="554"/>
      <point x="237" y="526"/>
      <point x="195" y="453" type="curve"/>
      <point x="217" y="367" type="line"/>
      <point x="233" y="394"/>
      <point x="245" y="410"/>
      <point x="254" y="410" type="curve" smooth="yes"/>
      <point x="261" y="410"/>
      <point x="265" y="402"/>
      <point x="265" y="375" type="curve" smooth="yes"/>
    </contour>
    <contour>
      <point x="27" y="0" type="line"/>
      <point x="217" y="0" type="line"/>
      <point x="217" y="764" type="line"/>
      <point x="27" y="744" type="line"/>
    </contour>
  </outline>
</glyph>
<glyph name="k" format="2">
  <advance width="502"/>
  <unicode hex="006B"/>
  <anchor x="251" y="0" name="bottom"/>
  <anchor x="265" y="744" name="top"/>
  <outline>
    <contour>
      <point x="509" y="533" type="line"/>
      <point x="331" y="533" type="line"/>
      <point x="220" y="292" type="line"/>
      <point x="315" y="0" type="line"/>
      <point x="512" y="0" type="line"/>
      <point x="402" y="300" type="line"/>
    </contour>
    <contour>
      <point x="217" y="764" type="line"/>
      <point x="27" y="744" type="line"/>
      <point x="27" y="0" type="line"/>
      <point x="217" y="0" type="line"/>
    </contour>
  </outline>
</glyph>
<glyph name="l" format="2">
  <advance width="260"/>
  <unicode hex="006C"/>
  <anchor x="160" y="0" name="bottom"/>
  <anchor x="348" y="374" name="center"/>
  <anchor x="117" y="744" name="top"/>
  <anchor x="220" y="744" name="topright"/>
  <outline>
    <contour>
      <point x="178" y="-20" type="curve" smooth="yes"/>
      <point x="217" y="-20"/>
      <point x="253" y="-10"/>
      <point x="275" y="0" type="curve"/>
      <point x="243" y="131" type="line"/>
      <point x="239" y="130"/>
      <point x="235" y="129"/>
      <point x="229" y="129" type="curve" smooth="yes"/>
      <point x="218" y="129"/>
      <point x="212" y="135"/>
      <point x="212" y="149" type="curve" smooth="yes"/>
      <point x="212" y="764" type="line"/>
      <point x="22" y="744" type="line"/>
      <point x="22" y="139" type="line" smooth="yes"/>
      <point x="22" y="42"/>
      <point x="77" y="-20"/>
    </contour>
  </outline>
</glyph>
<glyph name="m" format="2">
  <advance width="695"/>
  <unicode hex="006D"/>
  <anchor x="347" y="0" name="bottom"/>
  <anchor x="347" y="533" name="top"/>
  <outline>
    <contour>
      <point x="329" y="554" type="curve" smooth="yes"/>
      <point x="275" y="554"/>
      <point x="234" y="526"/>
      <point x="195" y="464" type="curve"/>
      <point x="213" y="375" type="line"/>
      <point x="225" y="400"/>
      <point x="235" y="411"/>
      <point x="245" y="411" type="curve" smooth="yes"/>
      <point x="254" y="411"/>
      <point x="257" y="403"/>
      <point x="257" y="376" type="curve"/>
      <point x="257" y="0" type="line"/>
      <point x="441" y="0" type="line"/>
      <point x="441" y="389" type="line"/>
      <point x="438" y="444" type="line"/>
      <point x="423" y="515"/>
      <point x="384" y="554"/>
    </contour>
    <contour>
      <point x="193" y="533" type="line"/>
      <point x="27" y="533" type="line"/>
      <point x="27" y="0" type="line"/>
      <point x="213" y="0" type="line"/>
      <point x="213" y="432" type="line"/>
    </contour>
    <contour>
      <point x="556" y="554" type="curve" smooth="yes"/>
      <point x="502" y="554"/>
      <point x="460" y="527"/>
      <point x="423" y="465" type="curve"/>
      <point x="441" y="375" type="line"/>
      <point x="453" y="400"/>
      <point x="463" y="411"/>
      <point x="473" y="411" type="curve" smooth="yes"/>
      <point x="482" y="411"/>
      <point x="485" y="403"/>
      <point x="485" y="376" type="curve"/>
      <point x="485" y="0" type="line"/>
      <point x="671" y="0" type="line"/>
      <point x="671" y="393" type="line" smooth="yes"/>
      <point x="671" y="496"/>
      <point x="625" y="554"/>
    </contour>
  </outline>
</glyph>
<glyph name="n" format="2">
  <advance width="479"/>
  <unicode hex="006E"/>
  <anchor x="239" y="0" name="bottom"/>
  <anchor x="243" y="534" name="top"/>
  <anchor x="20" y="534" name="topleft"/>
  <outline>
    <contour>
      <point x="335" y="554" type="curve" smooth="yes"/>
      <point x="275" y="554"/>
      <point x="234" y="526"/>
      <point x="195" y="465" type="curve"/>
      <point x="217" y="367" type="line"/>
      <point x="233" y="394"/>
      <point x="245" y="410"/>
      <point x="254" y="410" type="curve" smooth="yes"/>
      <point x="261" y="410"/>
      <point x="265" y="402"/>
      <point x="265" y="375" type="curve" smooth="yes"/>
      <point x="265" y="0" type="line"/>
      <point x="455" y="0" type="line"/>
      <point x="455" y="393" type="line" smooth="yes"/>
      <point x="455" y="496"/>
      <point x="410" y="554"/>
    </contour>
    <contour>
      <point x="193" y="534" type="line"/>
      <point x="27" y="534" type="line"/>
      <point x="27" y="0" type="line"/>
      <point x="217" y="0" type="line"/>
      <point x="217" y="432" type="line"/>
    </contour>
  </outline>
</glyph>
<glyph name="o" format="2">
  <advance width="500"/>
  <unicode hex="006F"/>
  <anchor x="250" y="0" name="bottom"/>
  <anchor x="360" y="0" name="ogonek"/>
  <anchor x="250" y="534" name="top"/>
  <anchor x="436" y="534" name="topright"/>
  <outline>
    <contour>
      <point x="250" y="554" type="curve"/>
      <point x="105" y="554"/>
      <point x="14" y="457"/>
      <point x="14" y="268" type="curve" smooth="yes"/>
      <point x="14" y="67"/>
      <point x="107" y="-20"/>
      <point x="250" y="-20" type="curve"/>
      <point x="395" y="-20"/>
      <point x="486" y="77"/>
      <point x="486" y="266" type="curve" smooth="yes"/>
      <point x="486" y="466"/>
      <point x="392" y="554"/>
    </contour>
    <contour>
      <point x="250" y="417" type="curve"/>
      <point x="281" y="417"/>
      <point x="292" y="385"/>
      <point x="292" y="266" type="curve" smooth="yes"/>
      <point x="292" y="151"/>
      <point x="281" y="116"/>
      <point x="250" y="116" type="curve"/>
      <point x="219" y="116"/>
      <point x="208" y="148"/>
      <point x="208" y="268" type="curve" smooth="yes"/>
      <point x="208" y="382"/>
      <point x="219" y="417"/>
    </contour>
  </outline>
</glyph>
<glyph name="p" format="2">
  <advance width="505"/>
  <unicode hex="0070"/>
  <anchor x="253" y="-215" name="bottom"/>
  <anchor x="253" y="533" name="top"/>
  <outline>
    <contour>
      <point x="329" y="554" type="curve" smooth="yes"/>
      <point x="276" y="554"/>
      <point x="232" y="533"/>
      <point x="192" y="464" type="curve"/>
      <point x="207" y="353" type="line"/>
      <point x="224" y="395"/>
      <point x="241" y="417"/>
      <point x="260" y="417" type="curve" smooth="yes"/>
      <point x="280" y="417"/>
      <point x="298" y="402"/>
      <point x="298" y="266" type="curve" smooth="yes"/>
      <point x="298" y="145"/>
      <point x="276" y="116"/>
      <point x="255" y="116" type="curve" smooth="yes"/>
      <point x="236" y="116"/>
      <point x="223" y="133"/>
      <point x="206" y="164" type="curve"/>
      <point x="208" y="43" type="line"/>
      <point x="236" y="2"/>
      <point x="271" y="-20"/>
      <point x="315" y="-20" type="curve" smooth="yes"/>
      <point x="418" y="-20"/>
      <point x="491" y="92"/>
      <point x="491" y="269" type="curve" smooth="yes"/>
      <point x="491" y="452"/>
      <point x="436" y="554"/>
    </contour>
    <contour>
      <point x="197" y="534" type="line"/>
      <point x="27" y="534" type="line"/>
      <point x="27" y="-227" type="line"/>
      <point x="217" y="-208" type="line"/>
      <point x="217" y="381" type="line"/>
      <point x="205" y="465" type="line"/>
    </contour>
  </outline>
</glyph>
<glyph name="q" format="2">
  <advance width="506"/>
  <unicode hex="0071"/>
  <anchor x="255" y="-215" name="bottom"/>
  <anchor x="255" y="534" name="top"/>
  <outline>
    <contour>
      <point x="289" y="458" type="line"/>
      <point x="289" y="-208" type="line"/>
      <point x="479" y="-227" type="line"/>
      <point x="479" y="534" type="line"/>
      <point x="313" y="534" type="line"/>
      <point x="305" y="494" type="line"/>
    </contour>
    <contour>
      <point x="201" y="554" type="curve" smooth="yes"/>
      <point x="90" y="554"/>
      <point x="14" y="446"/>
      <point x="14" y="269" type="curve" smooth="yes"/>
      <point x="14" y="83"/>
      <point x="72" y="-20"/>
      <point x="182" y="-20" type="curve" smooth="yes"/>
      <point x="252" y="-20"/>
      <point x="289" y="24"/>
      <point x="310" y="72" type="curve"/>
      <point x="298" y="174" type="line"/>
      <point x="285" y="137"/>
      <point x="267" y="116"/>
      <point x="249" y="116" type="curve" smooth="yes"/>
      <point x="231" y="116"/>
      <point x="208" y="128"/>
      <point x="208" y="268" type="curve" smooth="yes"/>
      <point x="208" y="389"/>
      <point x="233" y="418"/>
      <point x="256" y="418" type="curve" smooth="yes"/>
      <point x="275" y="418"/>
      <point x="285" y="400"/>
      <point x="301" y="370" type="curve"/>
      <point x="314" y="486" type="line"/>
      <point x="279" y="535"/>
      <point x="242" y="554"/>
    </contour>
  </outline>
</glyph>
<glyph name="r" format="2">
  <advance width="347"/>
  <unicode hex="0072"/>
  <anchor x="122" y="0" name="bottom"/>
  <anchor x="194" y="534" name="top"/>
  <outline>
    <contour>
      <point x="319" y="551" type="curve" smooth="yes"/>
      <point x="254" y="551"/>
      <point x="216" y="497"/>
      <point x="195" y="416" type="curve"/>
      <point x="214" y="250" type="line"/>
      <point x="225" y="308"/>
      <point x="235" y="366"/>
      <point x="293" y="366" type="curve" smooth="yes"/>
      <point x="307" y="366"/>
      <point x="319" y="364"/>
      <point x="331" y="360" type="curve"/>
      <point x="362" y="542" type="line"/>
      <point x="348" y="548"/>
      <point x="336" y="551"/>
    </contour>
    <contour>
      <point x="193" y="534" type="line"/>
      <point x="27" y="534" type="line"/>
      <point x="27" y="0" type="line"/>
      <point x="217" y="0" type="line"/>
      <point x="217" y="291" type="line"/>
      <point x="211" y="418" type="line"/>
    </contour>
  </outline>
</glyph>
<glyph name="s" format="2">
  <advance width="408"/>
  <unicode hex="0073"/>
  <anchor x="202" y="0" name="bottom"/>
  <anchor x="204" y="534" name="top"/>
  <outline>
    <contour>
      <point x="210" y="554" type="curve" smooth="yes"/>
      <point x="77" y="554"/>
      <point x="9" y="478"/>
      <point x="9" y="378" type="curve" smooth="yes"/>
      <point x="9" y="297"/>
      <point x="46" y="252"/>
      <point x="135" y="214" type="curve" smooth="yes"/>
      <point x="203" y="185"/>
      <point x="214" y="171"/>
      <point x="214" y="144" type="curve" smooth="yes"/>
      <point x="214" y="124"/>
      <point x="201" y="111"/>
      <point x="176" y="111" type="curve" smooth="yes"/>
      <point x="142" y="111"/>
      <point x="104" y="134"/>
      <point x="71" y="160" type="curve"/>
      <point x="-15" y="63" type="line"/>
      <point x="35" y="11"/>
      <point x="109" y="-20"/>
      <point x="187" y="-20" type="curve" smooth="yes"/>
      <point x="319" y="-20"/>
      <point x="406" y="52"/>
      <point x="406" y="162" type="curve" smooth="yes"/>
      <point x="406" y="248"/>
      <point x="362" y="293"/>
      <point x="282" y="328" type="curve" smooth="yes"/>
      <point x="205" y="362"/>
      <point x="195" y="372"/>
      <point x="195" y="393" type="curve" smooth="yes"/>
      <point x="195" y="411"/>
      <point x="207" y="422"/>
      <point x="230" y="422" type="curve" smooth="yes"/>
      <point x="260" y="422"/>
      <point x="292" y="407"/>
      <point x="323" y="386" type="curve"/>
      <point x="389" y="486" type="line"/>
      <point x="346" y="527"/>
      <point x="282" y="554"/>
    </contour>
  </outline>
</glyph>
<glyph name="t" format="2">
  <advance width="337"/>
  <unicode hex="0074"/>
  <anchor x="191" y="0" name="bottom"/>
  <anchor x="167" y="267" name="center"/>
  <anchor x="135" y="646" name="top"/>
  <anchor x="224" y="795" name="topright"/>
  <outline>
    <contour>
      <point x="230" y="669" type="line"/>
      <point x="40" y="647" type="line"/>
      <point x="40" y="162" type="line" smooth="yes"/>
      <point x="40" y="57"/>
      <point x="91" y="-20"/>
      <point x="213" y="-20" type="curve" smooth="yes"/>
      <point x="255" y="-20"/>
      <point x="317" y="-6"/>
      <point x="355" y="25" type="curve"/>
      <point x="295" y="140" type="line"/>
      <point x="282" y="133"/>
      <point x="272" y="129"/>
      <point x="259" y="129" type="curve" smooth="yes"/>
      <point x="242" y="129"/>
      <point x="230" y="140"/>
      <point x="230" y="164" type="curve" smooth="yes"/>
    </contour>
    <contour>
      <point x="327" y="534" type="line"/>
      <point x="-5" y="534" type="line"/>
      <point x="-5" y="405" type="line"/>
      <point x="308" y="405" type="line"/>
    </contour>
  </outline>
</glyph>
<glyph name="u" format="2">
  <advance width="474"/>
  <unicode hex="0075"/>
  <anchor x="236" y="0" name="bottom"/>
  <anchor x="455" y="0" name="ogonek"/>
  <anchor x="236" y="534" name="top"/>
  <anchor x="455" y="533" name="topright"/>
  <outline>
    <contour>
      <point x="447" y="534" type="line"/>
      <point x="257" y="534" type="line"/>
      <point x="257" y="154" type="line"/>
      <point x="247" y="130"/>
      <point x="237" y="119"/>
      <point x="228" y="119" type="curve" smooth="yes"/>
      <point x="219" y="119"/>
      <point x="214" y="128"/>
      <point x="214" y="145" type="curve" smooth="yes"/>
      <point x="214" y="534" type="line"/>
      <point x="24" y="534" type="line"/>
      <point x="24" y="140" type="line" smooth="yes"/>
      <point x="24" y="45"/>
      <point x="69" y="-20"/>
      <point x="149" y="-20" type="curve" smooth="yes"/>
      <point x="204" y="-20"/>
      <point x="243" y="6"/>
      <point x="274" y="53" type="curve"/>
      <point x="280" y="0" type="line"/>
      <point x="447" y="0" type="line"/>
    </contour>
  </outline>
</glyph>
<glyph name="v" format="2">
  <advance width="448"/>
  <unicode hex="0076"/>
  <anchor x="226" y="0" name="bottom"/>
  <anchor x="231" y="534" name="top"/>
  <outline>
    <contour>
      <point x="463" y="534" type="line"/>
      <point x="280" y="534" type="line"/>
      <point x="226" y="138" type="line"/>
      <point x="179" y="534" type="line"/>
      <point x="-15" y="534" type="line"/>
      <point x="114" y="0" type="line"/>
      <point x="338" y="0" type="line"/>
    </contour>
  </outline>
</glyph>
<glyph name="w" format="2">
  <advance width="658"/>
  <unicode hex="0077"/>
  <anchor x="330" y="0" name="bottom"/>
  <anchor x="329" y="534" name="top"/>
  <outline>
    <contour>
      <point x="661" y="534" type="line"/>
      <point x="484" y="534" type="line"/>
      <point x="460" y="144" type="line"/>
      <point x="415" y="534" type="line"/>
      <point x="248" y="534" type="line"/>
      <point x="199" y="144" type="line"/>
      <point x="179" y="534" type="line"/>
      <point x="-3" y="534" type="line"/>
      <point x="81" y="0" type="line"/>
      <point x="293" y="0" type="line"/>
      <point x="329" y="364" type="line"/>
      <point x="366" y="0" type="line"/>
      <point x="579" y="0" type="line"/>
    </contour>
  </outline>
</glyph>
<glyph name="x" format="2">
  <advance width="450"/>
  <unicode hex="0078"/>
  <anchor x="225" y="0" name="bottom"/>
  <anchor x="406" y="0" name="bottomright"/>
  <anchor x="220" y="534" name="top"/>
  <outline>
    <contour>
      <point x="185" y="534" type="line"/>
      <point x="-10" y="534" type="line"/>
      <point x="110" y="280" type="line"/>
      <point x="221" y="187" type="line"/>
      <point x="273" y="0" type="line"/>
      <point x="470" y="0" type="line"/>
      <point x="337" y="286" type="line"/>
      <point x="223" y="374" type="line"/>
    </contour>
    <contour>
      <point x="444" y="534" type="line"/>
      <point x="255" y="534" type="line"/>
      <point x="223" y="374" type="line"/>
      <point x="110" y="280" type="line"/>
      <point x="-20" y="0" type="line"/>
      <point x="176" y="0" type="line"/>
      <point x="221" y="187" type="line"/>
      <point x="337" y="286" type="line"/>
    </contour>
  </outline>
</glyph>
<glyph name="y" format="2">
  <advance width="457"/>
  <unicode hex="0079"/>
  <anchor x="222" y="-214" name="bottom"/>
  <anchor x="228" y="534" name="top"/>
  <outline>
    <contour>
      <point x="472" y="534" type="line"/>
      <point x="286" y="534" type="line"/>
      <point x="222" y="117" type="line"/>
      <point x="176" y="534" type="line"/>
      <point x="-15" y="534" type="line"/>
      <point x="103" y="0" type="line"/>
      <point x="174" y="0" type="line"/>
      <point x="151" y="-65"/>
      <point x="107" y="-89"/>
      <point x="25" y="-100" type="curve"/>
      <point x="45" y="-227" type="line"/>
      <point x="201" y="-221"/>
      <point x="303" y="-145"/>
      <point x="339" y="1" type="curve" smooth="yes"/>
    </contour>
  </outline>
</glyph>
<glyph name="z" format="2">
  <advance width="400"/>
  <unicode hex="007A"/>
  <anchor x="193" y="0" name="bottom"/>
  <anchor x="207" y="534" name="top"/>
  <outline>
    <contour>
      <point x="391" y="534" type="line"/>
      <point x="19" y="534" type="line"/>
      <point x="19" y="395" type="line"/>
      <point x="183" y="395" type="line"/>
      <point x="3" y="133" type="line"/>
      <point x="3" y="0" type="line"/>
      <point x="382" y="0" type="line"/>
      <point x="397" y="141" type="line"/>
      <point x="211" y="141" type="line"/>
      <point x="391" y="403" type="line"/>
    </contour>
  </outline>
</glyph>
<glyph name="braceleft" format="2">
  <advance width="269"/>
  <unicode hex="007B"/>
  <outline>
    <contour>
      <point x="269" y="842" type="line"/>
      <point x="81" y="842"/>
      <point x="49" y="780"/>
      <point x="49" y="669" type="curve" smooth="yes"/>
      <point x="49" y="498" type="line" smooth="yes"/>
      <point x="49" y="449"/>
      <point x="41" y="428"/>
      <point x="0" y="428" type="curve"/>
      <point x="0" y="272" type="line"/>
      <point x="41" y="272"/>
      <point x="49" y="251"/>
      <point x="49" y="202" type="curve" smooth="yes"/>
      <point x="49" y="31" type="line" smooth="yes"/>
      <point x="49" y="-79"/>
      <point x="81" y="-142"/>
      <point x="269" y="-142" type="curve"/>
      <point x="269" y="-12" type="line"/>
      <point x="231" y="-12"/>
      <point x="222" y="-2"/>
      <point x="222" y="38" type="curve" smooth="yes"/>
      <point x="222" y="203" type="line" smooth="yes"/>
      <point x="222" y="298"/>
      <point x="186" y="336"/>
      <point x="114" y="349" type="curve"/>
      <point x="188" y="366"/>
      <point x="221" y="400"/>
      <point x="221" y="497" type="curve" smooth="yes"/>
      <point x="221" y="662" type="line" smooth="yes"/>
      <point x="221" y="702"/>
      <point x="230" y="712"/>
      <point x="269" y="712" type="curve"/>
    </contour>
  </outline>
</glyph>
<glyph name="bar" format="2">
  <advance width="283"/>
  <unicode hex="007C"/>
  <outline>
    <contour>
      <point x="231" y="812" type="line"/>
      <point x="52" y="812" type="line"/>
      <point x="52" y="-107" type="line"/>
      <point x="231" y="-107" type="line"/>
    </contour>
  </outline>
</glyph>
<glyph name="braceright" format="2">
  <advance width="269"/>
  <unicode hex="007D"/>
  <outline>
    <contour>
      <point x="0" y="842" type="curve"/>
      <point x="0" y="712" type="line"/>
      <point x="39" y="712"/>
      <point x="48" y="702"/>
      <point x="48" y="662" type="curve" smooth="yes"/>
      <point x="48" y="497" type="line" smooth="yes"/>
      <point x="48" y="400"/>
      <point x="82" y="369"/>
      <point x="156" y="349" type="curve"/>
      <point x="84" y="333"/>
      <point x="47" y="298"/>
      <point x="47" y="203" type="curve" smooth="yes"/>
      <point x="47" y="38" type="line" smooth="yes"/>
      <point x="47" y="-2"/>
      <point x="38" y="-12"/>
      <point x="0" y="-12" type="curve"/>
      <point x="0" y="-142" type="line"/>
      <point x="189" y="-142"/>
      <point x="221" y="-79"/>
      <point x="221" y="31" type="curve" smooth="yes"/>
      <point x="221" y="202" type="line" smooth="yes"/>
      <point x="221" y="251"/>
      <point x="228" y="272"/>
      <point x="269" y="272" type="curve"/>
      <point x="269" y="428" type="line"/>
      <point x="228" y="428"/>
      <point x="221" y="449"/>
      <point x="221" y="498" type="curve" smooth="yes"/>
      <point x="221" y="669" type="line" smooth="yes"/>
      <point x="221" y="780"/>
      <point x="189" y="842"/>
    </contour>
  </outline>
</glyph>
<glyph name="asciitilde" format="2">
  <advance width="463"/>
  <unicode hex="007E"/>
  <anchor x="465" y="332" name="_center"/>
  <outline>
    <contour>
      <point x="307" y="228" type="curve" smooth="yes"/>
      <point x="382" y="228"/>
      <point x="425" y="293"/>
      <point x="458" y="364" type="curve"/>
      <point x="365" y="410" type="line"/>
      <point x="348" y="385"/>
      <point x="334" y="363"/>
      <point x="307" y="363" type="curve" smooth="yes"/>
      <point x="263" y="363"/>
      <point x="233" y="418"/>
      <point x="158" y="418" type="curve" smooth="yes"/>
      <point x="81" y="418"/>
      <point x="38" y="353"/>
      <point x="5" y="281" type="curve"/>
      <point x="95" y="234" type="line"/>
      <point x="112" y="260"/>
      <point x="126" y="283"/>
      <point x="154" y="283" type="curve" smooth="yes"/>
      <point x="200" y="283"/>
      <point x="230" y="228"/>
    </contour>
  </outline>
</glyph>
<glyph name="exclamdown" format="2">
  <advance width="222"/>
  <unicode hex="00A1"/>
  <outline>
    <contour>
      <point x="183" y="229" type="line"/>
      <point x="39" y="229" type="line"/>
      <point x="12" y="-215" type="line"/>
      <point x="210" y="-215" type="line"/>
    </contour>
    <contour>
      <point x="111" y="516" type="curve" smooth="yes"/>
      <point x="52" y="516"/>
      <point x="13" y="469"/>
      <point x="13" y="416" type="curve" smooth="yes"/>
      <point x="13" y="363"/>
      <point x="52" y="315"/>
      <point x="111" y="315" type="curve" smooth="yes"/>
      <point x="170" y="315"/>
      <point x="209" y="363"/>
      <point x="209" y="416" type="curve" smooth="yes"/>
      <point x="209" y="469"/>
      <point x="170" y="516"/>
    </contour>
  </outline>
</glyph>
<glyph name="cent" format="2">
  <advance width="407"/>
  <unicode hex="00A2"/>
  <anchor x="236" y="0" name="bottom"/>
  <anchor x="251" y="534" name="top"/>
  <outline>
    <contour>
      <point x="299" y="696" type="line"/>
      <point x="175" y="696" type="line"/>
      <point x="175" y="535" type="line"/>
      <point x="299" y="538" type="line"/>
    </contour>
    <contour>
      <point x="174" y="-1" type="line"/>
      <point x="174" y="-165" type="line"/>
      <point x="299" y="-165" type="line"/>
      <point x="299" y="-5" type="line"/>
    </contour>
    <component base="c"/>
  </outline>
</glyph>
<glyph name="sterling" format="2">
  <advance width="475"/>
  <unicode hex="00A3"/>
  <outline>
    <contour>
      <point x="278" y="696" type="curve" smooth="yes"/>
      <point x="144" y="696"/>
      <point x="80" y="603"/>
      <point x="80" y="487" type="curve" smooth="yes"/>
      <point x="80" y="247" type="line" smooth="yes"/>
      <point x="80" y="191"/>
      <point x="82" y="155"/>
      <point x="11" y="134" type="curve"/>
      <point x="11" y="0" type="line"/>
      <point x="430" y="0" type="line"/>
      <point x="451" y="141" type="line"/>
      <point x="201" y="141" type="line"/>
      <point x="258" y="175"/>
      <point x="266" y="211"/>
      <point x="266" y="263" type="curve" smooth="yes"/>
      <point x="266" y="489" type="line" smooth="yes"/>
      <point x="266" y="538"/>
      <point x="276" y="557"/>
      <point x="303" y="557" type="curve" smooth="yes"/>
      <point x="322" y="557"/>
      <point x="338" y="545"/>
      <point x="359" y="512" type="curve"/>
      <point x="468" y="589" type="line"/>
      <point x="426" y="658"/>
      <point x="366" y="696"/>
    </contour>
    <contour>
      <point x="397" y="398" type="line"/>
      <point x="23" y="398" type="line"/>
      <point x="23" y="305" type="line"/>
      <point x="397" y="305" type="line"/>
    </contour>
  </outline>
</glyph>
<glyph name="currency" format="2">
  <advance width="460"/>
  <unicode hex="00A4"/>
  <outline>
    <contour>
      <point x="231" y="563" type="curve" smooth="yes"/>
      <point x="122" y="563"/>
      <point x="41" y="476"/>
      <point x="41" y="342" type="curve" smooth="yes"/>
      <point x="41" y="207"/>
      <point x="122" y="121"/>
      <point x="231" y="121" type="curve" smooth="yes"/>
      <point x="337" y="121"/>
      <point x="419" y="207"/>
      <point x="419" y="342" type="curve" smooth="yes"/>
      <point x="419" y="476"/>
      <point x="337" y="563"/>
    </contour>
    <contour>
      <point x="71" y="72" type="line"/>
      <point x="142" y="159" type="line"/>
      <point x="73" y="236" type="line"/>
      <point x="-6" y="139" type="line"/>
    </contour>
    <contour>
      <point x="383" y="72" type="line"/>
      <point x="466" y="138" type="line"/>
      <point x="385" y="237" type="line"/>
      <point x="314" y="160" type="line"/>
    </contour>
    <contour>
      <point x="77" y="612" type="line"/>
      <point x="-6" y="546" type="line"/>
      <point x="75" y="447" type="line"/>
      <point x="146" y="524" type="line"/>
    </contour>
    <contour>
      <point x="389" y="612" type="line"/>
      <point x="318" y="525" type="line"/>
      <point x="387" y="448" type="line"/>
      <point x="466" y="545" type="line"/>
    </contour>
    <contour>
      <point x="230" y="445" type="curve" smooth="yes"/>
      <point x="268" y="445"/>
      <point x="286" y="420"/>
      <point x="286" y="342" type="curve" smooth="yes"/>
      <point x="286" y="265"/>
      <point x="268" y="239"/>
      <point x="230" y="239" type="curve" smooth="yes"/>
      <point x="192" y="239"/>
      <point x="173" y="265"/>
      <point x="173" y="342" type="curve" smooth="yes"/>
      <point x="173" y="420"/>
      <point x="192" y="445"/>
    </contour>
  </outline>
</glyph>
<glyph name="yen" format="2">
  <advance width="495"/>
  <unicode hex="00A5"/>
  <outline>
    <contour>
      <point x="513" y="680" type="line"/>
      <point x="328" y="680" type="line"/>
      <point x="250" y="405" type="line"/>
      <point x="169" y="680" type="line"/>
      <point x="-18" y="680" type="line"/>
      <point x="155" y="279" type="line"/>
      <point x="155" y="0" type="line"/>
      <point x="342" y="0" type="line"/>
      <point x="342" y="279" type="line"/>
    </contour>
    <contour>
      <point x="447" y="200" type="line"/>
      <point x="53" y="200" type="line"/>
      <point x="53" y="108" type="line"/>
      <point x="447" y="108" type="line"/>
    </contour>
    <contour>
      <point x="447" y="355" type="line"/>
      <point x="53" y="355" type="line"/>
      <point x="53" y="263" type="line"/>
      <point x="447" y="263" type="line"/>
    </contour>
  </outline>
</glyph>
<glyph name="brokenbar" format="2">
  <advance width="283"/>
  <unicode hex="00A6"/>
  <outline>
    <contour>
      <point x="231" y="812" type="line"/>
      <point x="52" y="812" type="line"/>
      <point x="52" y="443" type="line"/>
      <point x="231" y="443" type="line"/>
    </contour>
    <contour>
      <point x="231" y="262" type="line"/>
      <point x="52" y="262" type="line"/>
      <point x="52" y="-107" type="line"/>
      <point x="231" y="-107" type="line"/>
    </contour>
  </outline>
</glyph>
<glyph name="section" format="2">
  <advance width="466"/>
  <unicode hex="00A7"/>
  <outline>
    <contour>
      <point x="251" y="696" type="curve" smooth="yes"/>
      <point x="119" y="696"/>
      <point x="49" y="618"/>
      <point x="49" y="527" type="curve" smooth="yes"/>
      <point x="49" y="449"/>
      <point x="87" y="401"/>
      <point x="209" y="357" type="curve" smooth="yes"/>
      <point x="267" y="336"/>
      <point x="285" y="317"/>
      <point x="285" y="282" type="curve" smooth="yes"/>
      <point x="285" y="259"/>
      <point x="276" y="242"/>
      <point x="266" y="222" type="curve"/>
      <point x="355" y="180" type="line"/>
      <point x="406" y="210"/>
      <point x="439" y="253"/>
      <point x="439" y="317" type="curve" smooth="yes"/>
      <point x="439" y="399"/>
      <point x="384" y="437"/>
      <point x="316" y="464" type="curve" smooth="yes"/>
      <point x="232" y="497"/>
      <point x="221" y="504"/>
      <point x="221" y="533" type="curve" smooth="yes"/>
      <point x="221" y="555"/>
      <point x="234" y="568"/>
      <point x="269" y="568" type="curve" smooth="yes"/>
      <point x="301" y="568"/>
      <point x="339" y="556"/>
      <point x="369" y="537" type="curve"/>
      <point x="429" y="639" type="line"/>
      <point x="381" y="675"/>
      <point x="320" y="696"/>
    </contour>
    <contour>
      <point x="116" y="424" type="line"/>
      <point x="65" y="397"/>
      <point x="27" y="354"/>
      <point x="27" y="287" type="curve" smooth="yes"/>
      <point x="27" y="207"/>
      <point x="70" y="173"/>
      <point x="149" y="143" type="curve" smooth="yes"/>
      <point x="234" y="110"/>
      <point x="247" y="98"/>
      <point x="247" y="72" type="curve" smooth="yes"/>
      <point x="247" y="50"/>
      <point x="232" y="38"/>
      <point x="200" y="38" type="curve" smooth="yes"/>
      <point x="164" y="38"/>
      <point x="134" y="47"/>
      <point x="94" y="71" type="curve"/>
      <point x="34" y="-33" type="line"/>
      <point x="80" y="-68"/>
      <point x="139" y="-89"/>
      <point x="212" y="-89" type="curve" smooth="yes"/>
      <point x="339" y="-89"/>
      <point x="419" y="-18"/>
      <point x="419" y="83" type="curve" smooth="yes"/>
      <point x="419" y="163"/>
      <point x="378" y="194"/>
      <point x="234" y="257" type="curve" smooth="yes"/>
      <point x="194" y="275"/>
      <point x="180" y="291"/>
      <point x="180" y="325" type="curve" smooth="yes"/>
      <point x="180" y="347"/>
      <point x="186" y="363"/>
      <point x="197" y="385" type="curve"/>
    </contour>
  </outline>
</glyph>
<glyph name="copyright" format="2">
  <advance width="664"/>
  <unicode hex="00A9"/>
  <outline>
    <contour>
      <point x="333" y="775" type="curve" smooth="yes"/>
      <point x="166" y="775"/>
      <point x="32" y="639"/>
      <point x="32" y="431" type="curve" smooth="yes"/>
      <point x="32" y="224"/>
      <point x="166" y="89"/>
      <point x="333" y="89" type="curve" smooth="yes"/>
      <point x="501" y="89"/>
      <point x="632" y="224"/>
      <point x="632" y="431" type="curve" smooth="yes"/>
      <point x="632" y="639"/>
      <point x="501" y="775"/>
    </contour>
    <contour>
      <point x="339" y="632" type="curve" smooth="yes"/>
      <point x="241" y="632"/>
      <point x="180" y="554"/>
      <point x="180" y="432" type="curve" smooth="yes"/>
      <point x="180" y="303"/>
      <point x="236" y="231"/>
      <point x="335" y="231" type="curve" smooth="yes"/>
      <point x="378" y="231"/>
      <point x="424" y="252"/>
      <point x="458" y="287" type="curve"/>
      <point x="409" y="357" type="line"/>
      <point x="390" y="340"/>
      <point x="376" y="331"/>
      <point x="355" y="331" type="curve" smooth="yes"/>
      <point x="326" y="331"/>
      <point x="304" y="352"/>
      <point x="304" y="432" type="curve" smooth="yes"/>
      <point x="304" y="507"/>
      <point x="325" y="533"/>
      <point x="351" y="533" type="curve" smooth="yes"/>
      <point x="369" y="533"/>
      <point x="381" y="529"/>
      <point x="405" y="512" type="curve"/>
      <point x="454" y="577" type="line"/>
      <point x="424" y="612"/>
      <point x="383" y="632"/>
    </contour>
    <contour>
      <point x="333" y="682" type="curve" smooth="yes"/>
      <point x="445" y="682"/>
      <point x="529" y="590"/>
      <point x="529" y="431" type="curve" smooth="yes"/>
      <point x="529" y="273"/>
      <point x="445" y="181"/>
      <point x="333" y="181" type="curve" smooth="yes"/>
      <point x="219" y="181"/>
      <point x="136" y="273"/>
      <point x="136" y="431" type="curve" smooth="yes"/>
      <point x="136" y="590"/>
      <point x="219" y="682"/>
    </contour>
  </outline>
</glyph>
<glyph name="ordfeminine" format="2">
  <advance width="500"/>
  <unicode hex="00AA"/>
  <outline>
    <contour>
      <point x="194" y="695" type="curve" smooth="yes"/>
      <point x="154" y="695"/>
      <point x="91" y="684"/>
      <point x="47" y="663" type="curve"/>
      <point x="82" y="558" type="line"/>
      <point x="116" y="571"/>
      <point x="153" y="579"/>
      <point x="170" y="579" type="curve" smooth="yes"/>
      <point x="205" y="579"/>
      <point x="210" y="571"/>
      <point x="210" y="534" type="curve"/>
      <point x="210" y="383" type="line"/>
      <point x="235" y="335" type="line"/>
      <point x="265" y="287"/>
      <point x="301" y="268"/>
      <point x="354" y="265" type="curve"/>
      <point x="387" y="371" type="line"/>
      <point x="372" y="377"/>
      <point x="370" y="389"/>
      <point x="370" y="415" type="curve" smooth="yes"/>
      <point x="370" y="544" type="line" smooth="yes"/>
      <point x="370" y="646"/>
      <point x="320" y="695"/>
    </contour>
    <contour>
      <point x="232" y="530" type="line"/>
      <point x="199" y="530" type="line" smooth="yes"/>
      <point x="83" y="530"/>
      <point x="22" y="480"/>
      <point x="22" y="390" type="curve" smooth="yes"/>
      <point x="22" y="315"/>
      <point x="69" y="261"/>
      <point x="140" y="261" type="curve" smooth="yes"/>
      <point x="183" y="261"/>
      <point x="229" y="279"/>
      <point x="253" y="329" type="curve"/>
      <point x="219" y="403" type="line"/>
      <point x="218" y="391"/>
      <point x="208" y="378"/>
      <point x="198" y="378" type="curve" smooth="yes"/>
      <point x="188" y="378"/>
      <point x="186" y="389"/>
      <point x="186" y="404" type="curve" smooth="yes"/>
      <point x="186" y="431"/>
      <point x="193" y="444"/>
      <point x="214" y="444" type="curve" smooth="yes"/>
      <point x="232" y="444" type="line"/>
    </contour>
    <component base="minus" xScale="0.95" yOffset="-260"/>
  </outline>
</glyph>
<glyph name="logicalnot" format="2">
  <advance width="464"/>
  <unicode hex="00AC"/>
  <outline>
    <contour>
      <point x="437" y="401" type="line"/>
      <point x="27" y="401" type="line"/>
      <point x="27" y="261" type="line"/>
      <point x="286" y="261" type="line"/>
      <point x="286" y="100" type="line"/>
      <point x="437" y="100" type="line"/>
    </contour>
  </outline>
</glyph>
<glyph name="registered" format="2">
  <advance width="519"/>
  <unicode hex="00AE"/>
  <outline>
    <contour>
      <point x="262" y="764" type="curve" smooth="yes"/>
      <point x="119" y="764"/>
      <point x="15" y="653"/>
      <point x="15" y="480" type="curve" smooth="yes"/>
      <point x="15" y="309"/>
      <point x="119" y="199"/>
      <point x="262" y="199" type="curve" smooth="yes"/>
      <point x="402" y="199"/>
      <point x="504" y="309"/>
      <point x="504" y="480" type="curve" smooth="yes"/>
      <point x="504" y="653"/>
      <point x="402" y="764"/>
    </contour>
    <contour>
      <point x="311" y="480" type="line"/>
      <point x="248" y="463" type="line"/>
      <point x="296" y="348" type="line"/>
      <point x="377" y="348" type="line"/>
    </contour>
    <contour>
      <point x="262" y="689" type="curve" smooth="yes"/>
      <point x="354" y="689"/>
      <point x="420" y="617"/>
      <point x="420" y="480" type="curve" smooth="yes"/>
      <point x="420" y="344"/>
      <point x="354" y="274"/>
      <point x="262" y="274" type="curve" smooth="yes"/>
      <point x="167" y="274"/>
      <point x="99" y="344"/>
      <point x="99" y="480" type="curve" smooth="yes"/>
      <point x="99" y="617"/>
      <point x="167" y="689"/>
    </contour>
    <contour>
      <point x="239" y="633" type="curve" smooth="yes"/>
      <point x="164" y="633" type="line"/>
      <point x="164" y="348" type="line"/>
      <point x="236" y="348" type="line"/>
      <point x="236" y="575" type="line"/>
      <point x="259" y="575" type="line" smooth="yes"/>
      <point x="274" y="575"/>
      <point x="285" y="566"/>
      <point x="285" y="546" type="curve" smooth="yes"/>
      <point x="285" y="523"/>
      <point x="272" y="514"/>
      <point x="259" y="514" type="curve" smooth="yes"/>
      <point x="221" y="514" type="line"/>
      <point x="221" y="449" type="line"/>
      <point x="265" y="449" type="line"/>
      <point x="299" y="460" type="line"/>
      <point x="325" y="473"/>
      <point x="359" y="498"/>
      <point x="359" y="541" type="curve" smooth="yes"/>
      <point x="359" y="602"/>
      <point x="317" y="633"/>
    </contour>
  </outline>
</glyph>
<glyph name="degree" format="2">
  <advance width="425"/>
  <unicode hex="00B0"/>
  <outline>
    <contour>
      <point x="177" y="471" type="curve" smooth="yes"/>
      <point x="148" y="471"/>
      <point x="136" y="492"/>
      <point x="136" y="541" type="curve" smooth="yes"/>
      <point x="136" y="590"/>
      <point x="148" y="611"/>
      <point x="177" y="611" type="curve" smooth="yes"/>
      <point x="207" y="611"/>
      <point x="218" y="590"/>
      <point x="218" y="541" type="curve" smooth="yes"/>
      <point x="218" y="492"/>
      <point x="207" y="471"/>
    </contour>
    <contour>
      <point x="177" y="363" type="curve" smooth="yes"/>
      <point x="261" y="363"/>
      <point x="337" y="424"/>
      <point x="337" y="541" type="curve" smooth="yes"/>
      <point x="337" y="658"/>
      <point x="261" y="716"/>
      <point x="177" y="716" type="curve" smooth="yes"/>
      <point x="94" y="716"/>
      <point x="18" y="658"/>
      <point x="18" y="541" type="curve" smooth="yes"/>
      <point x="18" y="425"/>
      <point x="94" y="363"/>
    </contour>
  </outline>
</glyph>
<glyph name="paragraph" format="2">
  <advance width="696"/>
  <unicode hex="00B6"/>
  <outline>
    <contour>
      <point x="624" y="696" type="line"/>
      <point x="273" y="696" type="line"/>
      <point x="241" y="661" type="line"/>
      <point x="241" y="-227" type="line"/>
      <point x="403" y="-207" type="line"/>
      <point x="403" y="568" type="line"/>
      <point x="461" y="568" type="line"/>
      <point x="461" y="-227" type="line"/>
      <point x="624" y="-207" type="line"/>
    </contour>
    <contour>
      <point x="273" y="696" type="line"/>
      <point x="112" y="696"/>
      <point x="31" y="611"/>
      <point x="31" y="475" type="curve" smooth="yes"/>
      <point x="31" y="341"/>
      <point x="114" y="249"/>
      <point x="258" y="254" type="curve"/>
    </contour>
  </outline>
</glyph>
<glyph name="ordmasculine" format="2">
  <advance width="424"/>
  <unicode hex="00BA"/>
  <outline>
    <contour>
      <point x="211" y="696" type="curve"/>
      <point x="94" y="696"/>
      <point x="19" y="622"/>
      <point x="19" y="480" type="curve" smooth="yes"/>
      <point x="19" y="326"/>
      <point x="97" y="261"/>
      <point x="213" y="261" type="curve"/>
      <point x="331" y="261"/>
      <point x="405" y="335"/>
      <point x="405" y="478" type="curve" smooth="yes"/>
      <point x="405" y="631"/>
      <point x="327" y="696"/>
    </contour>
    <contour>
      <point x="212" y="580" type="curve"/>
      <point x="232" y="580"/>
      <point x="241" y="569"/>
      <point x="241" y="478" type="curve" smooth="yes"/>
      <point x="241" y="391"/>
      <point x="232" y="377"/>
      <point x="212" y="377" type="curve"/>
      <point x="192" y="377"/>
      <point x="184" y="388"/>
      <point x="184" y="480" type="curve" smooth="yes"/>
      <point x="184" y="566"/>
      <point x="192" y="580"/>
    </contour>
    <component base="minus" xOffset="-9" yOffset="-262"/>
  </outline>
</glyph>
<glyph name="questiondown" format="2">
  <advance width="424"/>
  <unicode hex="00BF"/>
  <outline>
    <contour>
      <point x="204" y="-227" type="curve" smooth="yes"/>
      <point x="306" y="-227"/>
      <point x="374" y="-182"/>
      <point x="422" y="-116" type="curve"/>
      <point x="311" y="-30" type="line"/>
      <point x="281" y="-64"/>
      <point x="256" y="-79"/>
      <point x="231" y="-79" type="curve" smooth="yes"/>
      <point x="209" y="-79"/>
      <point x="196" y="-67"/>
      <point x="196" y="-40" type="curve" smooth="yes"/>
      <point x="196" y="53"/>
      <point x="315" y="32"/>
      <point x="315" y="208" type="curve" smooth="yes"/>
      <point x="315" y="229" type="line"/>
      <point x="148" y="229" type="line"/>
      <point x="148" y="214" type="line" smooth="yes"/>
      <point x="148" y="100"/>
      <point x="2" y="106"/>
      <point x="2" y="-52" type="curve" smooth="yes"/>
      <point x="2" y="-142"/>
      <point x="69" y="-227"/>
    </contour>
    <contour>
      <point x="231" y="315" type="curve" smooth="yes"/>
      <point x="290" y="315"/>
      <point x="329" y="363"/>
      <point x="329" y="416" type="curve" smooth="yes"/>
      <point x="329" y="469"/>
      <point x="290" y="516"/>
      <point x="231" y="516" type="curve" smooth="yes"/>
      <point x="172" y="516"/>
      <point x="133" y="469"/>
      <point x="133" y="416" type="curve" smooth="yes"/>
      <point x="133" y="363"/>
      <point x="172" y="315"/>
    </contour>
  </outline>
</glyph>
<glyph name="AE" format="2">
  <advance width="721"/>
  <unicode hex="00C6"/>
  <anchor x="363" y="0" name="bottom"/>
  <anchor x="408" y="696" name="top"/>
  <outline>
    <contour>
      <point x="689" y="696" type="line"/>
      <point x="195" y="696" type="line"/>
      <point x="-26" y="0" type="line"/>
      <point x="187" y="0" type="line"/>
      <point x="312" y="555" type="line"/>
      <point x="355" y="0" type="line"/>
      <point x="716" y="0" type="line"/>
      <point x="716" y="139" type="line"/>
      <point x="523" y="139" type="line"/>
      <point x="482" y="559" type="line"/>
      <point x="669" y="559" type="line"/>
    </contour>
    <contour>
      <point x="342" y="277" type="line"/>
      <point x="245" y="277" type="line"/>
      <point x="205" y="139" type="line"/>
      <point x="359" y="139" type="line"/>
    </contour>
    <contour>
      <point x="681" y="418" type="line"/>
      <point x="478" y="418" type="line"/>
      <point x="500" y="284" type="line"/>
      <point x="681" y="284" type="line"/>
    </contour>
  </outline>
</glyph>
<glyph name="Eth" format="2">
  <advance width="577"/>
  <unicode hex="00D0"/>
  <anchor x="283" y="0" name="bottom"/>
  <anchor x="297" y="348" name="center"/>
  <anchor x="262" y="696" name="top"/>
  <outline>
    <contour>
      <point x="311" y="409" type="line"/>
      <point x="39" y="409" type="line"/>
      <point x="10" y="409" type="line"/>
      <point x="10" y="297" type="line"/>
      <point x="311" y="297" type="line"/>
    </contour>
    <component base="D" xOffset="19"/>
  </outline>
</glyph>
<glyph name="multiply" format="2">
  <advance width="443"/>
  <unicode hex="00D7"/>
  <outline>
    <contour>
      <point x="314" y="522" type="line"/>
      <point x="221" y="398" type="line"/>
      <point x="129" y="522" type="line"/>
      <point x="19" y="435" type="line"/>
      <point x="125" y="306" type="line"/>
      <point x="19" y="176" type="line"/>
      <point x="129" y="90" type="line"/>
      <point x="221" y="215" type="line"/>
      <point x="314" y="90" type="line"/>
      <point x="424" y="176" type="line"/>
      <point x="318" y="306" type="line"/>
      <point x="424" y="435" type="line"/>
    </contour>
  </outline>
</glyph>
<glyph name="Oslash" format="2">
  <advance width="585"/>
  <unicode hex="00D8"/>
  <anchor x="292" y="0" name="bottom"/>
  <anchor x="294" y="738" name="top"/>
  <outline>
    <contour>
      <point x="292" y="715" type="curve" smooth="yes"/>
      <point x="111" y="715"/>
      <point x="17" y="590"/>
      <point x="17" y="349" type="curve" smooth="yes"/>
      <point x="17" y="103"/>
      <point x="111" y="-19"/>
      <point x="292" y="-19" type="curve" smooth="yes"/>
      <point x="473" y="-19"/>
      <point x="568" y="107"/>
      <point x="568" y="349" type="curve" smooth="yes"/>
      <point x="568" y="595"/>
      <point x="473" y="715"/>
    </contour>
    <contour>
      <point x="292" y="579" type="curve" smooth="yes"/>
      <point x="349" y="579"/>
      <point x="376" y="542"/>
      <point x="376" y="349" type="curve" smooth="yes"/>
      <point x="376" y="170"/>
      <point x="362" y="116"/>
      <point x="292" y="116" type="curve" smooth="yes"/>
      <point x="224" y="116"/>
      <point x="209" y="150"/>
      <point x="209" y="349" type="curve" smooth="yes"/>
      <point x="209" y="522"/>
      <point x="225" y="579"/>
    </contour>
    <contour>
      <point x="341" y="832" type="line"/>
      <point x="309" y="707" type="line"/>
      <point x="303" y="591" type="line"/>
      <point x="214" y="163" type="line"/>
      <point x="137" y="33" type="line"/>
      <point x="102" y="-100" type="line"/>
      <point x="244" y="-138" type="line"/>
      <point x="276" y="-11" type="line"/>
      <point x="280" y="91" type="line"/>
      <point x="371" y="521" type="line"/>
      <point x="448" y="663" type="line"/>
      <point x="484" y="793" type="line"/>
    </contour>
  </outline>
</glyph>
<glyph name="Thorn" format="2">
  <advance width="514"/>
  <unicode hex="00DE"/>
  <anchor x="262" y="0" name="bottom"/>
  <anchor x="262" y="696" name="top"/>
  <outline>
    <contour>
      <point x="252" y="591" type="curve" smooth="yes"/>
      <point x="223" y="591" type="line"/>
      <point x="226" y="455" type="line"/>
      <point x="244" y="455" type="line" smooth="yes"/>
      <point x="288" y="455"/>
      <point x="313" y="430"/>
      <point x="313" y="358" type="curve" smooth="yes"/>
      <point x="313" y="278"/>
      <point x="292" y="246"/>
      <point x="246" y="246" type="curve" smooth="yes"/>
      <point x="213" y="246" type="line"/>
      <point x="213" y="108" type="line"/>
      <point x="267" y="108" type="line" smooth="yes"/>
      <point x="415" y="108"/>
      <point x="509" y="188"/>
      <point x="509" y="358" type="curve" smooth="yes"/>
      <point x="509" y="514"/>
      <point x="411" y="591"/>
    </contour>
    <contour>
      <point x="226" y="696" type="line"/>
      <point x="28" y="696" type="line"/>
      <point x="28" y="0" type="line"/>
      <point x="226" y="0" type="line"/>
    </contour>
  </outline>
</glyph>
<glyph name="germandbls" format="2">
  <advance width="520"/>
  <unicode hex="00DF"/>
  <outline>
    <contour>
      <point x="252" y="764" type="curve" smooth="yes"/>
      <point x="104" y="764"/>
      <point x="27" y="675"/>
      <point x="27" y="551" type="curve" smooth="yes"/>
      <point x="27" y="0" type="line"/>
      <point x="217" y="0" type="line"/>
      <point x="217" y="567" type="line" smooth="yes"/>
      <point x="217" y="616"/>
      <point x="225" y="634"/>
      <point x="246" y="634" type="curve" smooth="yes"/>
      <point x="264" y="634"/>
      <point x="273" y="619"/>
      <point x="273" y="584" type="curve" smooth="yes"/>
      <point x="273" y="513"/>
      <point x="231" y="488"/>
      <point x="231" y="398" type="curve" smooth="yes"/>
      <point x="231" y="285"/>
      <point x="330" y="259"/>
      <point x="330" y="171" type="curve" smooth="yes"/>
      <point x="330" y="138"/>
      <point x="316" y="125"/>
      <point x="302" y="125" type="curve" smooth="yes"/>
      <point x="294" y="125"/>
      <point x="288" y="127"/>
      <point x="282" y="130" type="curve"/>
      <point x="226" y="7" type="line"/>
      <point x="254" y="-9"/>
      <point x="295" y="-20"/>
      <point x="338" y="-20" type="curve" smooth="yes"/>
      <point x="444" y="-20"/>
      <point x="520" y="48"/>
      <point x="520" y="168" type="curve" smooth="yes"/>
      <point x="520" y="334"/>
      <point x="389" y="362"/>
      <point x="389" y="433" type="curve" smooth="yes"/>
      <point x="389" y="500"/>
      <point x="446" y="534"/>
      <point x="446" y="611" type="curve" smooth="yes"/>
      <point x="446" y="695"/>
      <point x="383" y="764"/>
    </contour>
  </outline>
</glyph>
<glyph name="ae" format="2">
  <advance width="719"/>
  <unicode hex="00E6"/>
  <anchor x="344" y="0" name="bottom"/>
  <anchor x="356" y="534" name="top"/>
  <outline>
    <contour>
      <point x="503" y="554" type="curve" smooth="yes"/>
      <point x="349" y="554"/>
      <point x="292" y="406"/>
      <point x="256" y="258" type="curve"/>
      <point x="258" y="227" type="line" smooth="yes"/>
      <point x="266" y="98"/>
      <point x="344" y="-20"/>
      <point x="504" y="-20" type="curve" smooth="yes"/>
      <point x="585" y="-20"/>
      <point x="649" y="14"/>
      <point x="692" y="58" type="curve"/>
      <point x="617" y="158" type="line"/>
      <point x="579" y="131"/>
      <point x="550" y="116"/>
      <point x="522" y="116" type="curve" smooth="yes"/>
      <point x="469" y="116"/>
      <point x="441" y="138"/>
      <point x="441" y="263" type="curve" smooth="yes"/>
      <point x="441" y="400"/>
      <point x="452" y="433"/>
      <point x="486" y="433" type="curve" smooth="yes"/>
      <point x="516" y="433"/>
      <point x="530" y="397"/>
      <point x="530" y="328" type="curve" smooth="yes"/>
      <point x="530" y="325"/>
      <point x="530" y="322"/>
      <point x="530" y="320" type="curve"/>
      <point x="428" y="320" type="line"/>
      <point x="431" y="213" type="line"/>
      <point x="706" y="213" type="line"/>
      <point x="708" y="231"/>
      <point x="710" y="257"/>
      <point x="710" y="274" type="curve" smooth="yes"/>
      <point x="710" y="463"/>
      <point x="621" y="554"/>
    </contour>
    <contour>
      <point x="277" y="324" type="line"/>
      <point x="233" y="324" type="line" smooth="yes"/>
      <point x="81" y="324"/>
      <point x="7" y="259"/>
      <point x="7" y="150" type="curve" smooth="yes"/>
      <point x="7" y="51"/>
      <point x="67" y="-20"/>
      <point x="165" y="-20" type="curve" smooth="yes"/>
      <point x="218" y="-20"/>
      <point x="279" y="3"/>
      <point x="325" y="78" type="curve"/>
      <point x="276" y="172" type="line"/>
      <point x="264" y="139"/>
      <point x="244" y="114"/>
      <point x="224" y="114" type="curve" smooth="yes"/>
      <point x="206" y="114"/>
      <point x="198" y="126"/>
      <point x="198" y="164" type="curve" smooth="yes"/>
      <point x="198" y="206"/>
      <point x="217" y="224"/>
      <point x="251" y="224" type="curve" smooth="yes"/>
      <point x="277" y="224" type="line"/>
    </contour>
    <contour>
      <point x="226" y="554" type="curve" smooth="yes"/>
      <point x="165" y="554"/>
      <point x="104" y="539"/>
      <point x="46" y="512" type="curve"/>
      <point x="86" y="395" type="line"/>
      <point x="130" y="412"/>
      <point x="175" y="422"/>
      <point x="199" y="422" type="curve" smooth="yes"/>
      <point x="243" y="422"/>
      <point x="253" y="407"/>
      <point x="253" y="345" type="curve"/>
      <point x="255" y="258" type="line"/>
      <point x="442" y="263" type="line"/>
      <point x="413" y="358" type="line"/>
      <point x="381" y="474"/>
      <point x="360" y="554"/>
    </contour>
  </outline>
</glyph>
<glyph name="eth" format="2">
  <advance width="504"/>
  <unicode hex="00F0"/>
  <anchor x="248" y="0" name="bottom"/>
  <anchor x="274" y="744" name="top"/>
  <outline>
    <contour>
      <point x="85" y="762" type="curve"/>
      <point x="50" y="646" type="line"/>
      <point x="72" y="641"/>
      <point x="128" y="626"/>
      <point x="175" y="606" type="curve"/>
      <point x="253" y="550"/>
      <point x="270" y="503"/>
      <point x="292" y="431" type="curve"/>
      <point x="294" y="342" type="line"/>
      <point x="294" y="312"/>
      <point x="294" y="282"/>
      <point x="294" y="233" type="curve" smooth="yes"/>
      <point x="294" y="147"/>
      <point x="285" y="116"/>
      <point x="251" y="116" type="curve" smooth="yes"/>
      <point x="220" y="116"/>
      <point x="204" y="137"/>
      <point x="204" y="235" type="curve" smooth="yes"/>
      <point x="204" y="321"/>
      <point x="222" y="352"/>
      <point x="252" y="352" type="curve" smooth="yes"/>
      <point x="270" y="352"/>
      <point x="288" y="339"/>
      <point x="303" y="316" type="curve"/>
      <point x="297" y="435" type="line"/>
      <point x="266" y="464"/>
      <point x="236" y="481"/>
      <point x="187" y="481" type="curve" smooth="yes"/>
      <point x="106" y="481"/>
      <point x="14" y="389"/>
      <point x="14" y="233" type="curve" smooth="yes"/>
      <point x="14" y="74"/>
      <point x="114" y="-19"/>
      <point x="247" y="-19" type="curve" smooth="yes"/>
      <point x="409" y="-19"/>
      <point x="485" y="120"/>
      <point x="485" y="283" type="curve" smooth="yes"/>
      <point x="485" y="463"/>
      <point x="431" y="601"/>
      <point x="270" y="706" type="curve"/>
      <point x="174" y="742"/>
      <point x="132" y="754"/>
    </contour>
    <contour>
      <point x="270" y="808" type="line"/>
      <point x="198" y="719" type="line"/>
      <point x="122" y="637" type="line"/>
      <point x="68" y="575" type="line"/>
      <point x="178" y="522" type="line"/>
      <point x="225" y="580" type="line"/>
      <point x="311" y="665" type="line"/>
      <point x="366" y="736" type="line"/>
    </contour>
  </outline>
</glyph>
<glyph name="oslash" format="2">
  <advance width="500"/>
  <unicode hex="00F8"/>
  <anchor x="249" y="0" name="bottom"/>
  <anchor x="250" y="534" name="top"/>
  <outline>
    <contour>
      <point x="250" y="554" type="curve"/>
      <point x="105" y="554"/>
      <point x="14" y="457"/>
      <point x="14" y="268" type="curve" smooth="yes"/>
      <point x="14" y="67"/>
      <point x="117" y="-20"/>
      <point x="250" y="-20" type="curve"/>
      <point x="395" y="-20"/>
      <point x="486" y="77"/>
      <point x="486" y="266" type="curve" smooth="yes"/>
      <point x="486" y="466"/>
      <point x="382" y="554"/>
    </contour>
    <contour>
      <point x="250" y="422" type="curve"/>
      <point x="301" y="422"/>
      <point x="324" y="400"/>
      <point x="324" y="266" type="curve" smooth="yes"/>
      <point x="324" y="147"/>
      <point x="301" y="111"/>
      <point x="250" y="111" type="curve"/>
      <point x="199" y="111"/>
      <point x="176" y="133"/>
      <point x="176" y="268" type="curve" smooth="yes"/>
      <point x="176" y="387"/>
      <point x="199" y="422"/>
    </contour>
    <contour>
      <point x="294" y="672" type="line"/>
      <point x="262" y="552" type="line"/>
      <point x="249" y="424" type="line"/>
      <point x="184" y="139" type="line"/>
      <point x="116" y="32" type="line"/>
      <point x="80" y="-101" type="line"/>
      <point x="212" y="-137" type="line"/>
      <point x="244" y="-12" type="line"/>
      <point x="255" y="110" type="line"/>
      <point x="320" y="395" type="line"/>
      <point x="389" y="509" type="line"/>
      <point x="426" y="635" type="line"/>
    </contour>
  </outline>
</glyph>
<glyph name="thorn" format="2">
  <advance width="505"/>
  <unicode hex="00FE"/>
  <anchor x="253" y="-215" name="bottom"/>
  <anchor x="253" y="744" name="top"/>
  <outline>
    <contour>
      <point x="329" y="554" type="curve" smooth="yes"/>
      <point x="280" y="554"/>
      <point x="232" y="533"/>
      <point x="192" y="454" type="curve"/>
      <point x="207" y="353" type="line"/>
      <point x="224" y="395"/>
      <point x="241" y="417"/>
      <point x="260" y="417" type="curve" smooth="yes"/>
      <point x="280" y="417"/>
      <point x="298" y="402"/>
      <point x="298" y="266" type="curve" smooth="yes"/>
      <point x="298" y="145"/>
      <point x="276" y="116"/>
      <point x="255" y="116" type="curve" smooth="yes"/>
      <point x="236" y="116"/>
      <point x="223" y="133"/>
      <point x="206" y="164" type="curve"/>
      <point x="208" y="53" type="line"/>
      <point x="236" y="2"/>
      <point x="271" y="-20"/>
      <point x="315" y="-20" type="curve" smooth="yes"/>
      <point x="418" y="-20"/>
      <point x="491" y="92"/>
      <point x="491" y="269" type="curve" smooth="yes"/>
      <point x="491" y="452"/>
      <point x="436" y="554"/>
    </contour>
    <contour>
      <point x="217" y="763" type="line"/>
      <point x="27" y="744" type="line"/>
      <point x="27" y="-226" type="line"/>
      <point x="217" y="-206" type="line"/>
    </contour>
  </outline>
</glyph>
<glyph name="dcroat" format="2">
  <advance width="499"/>
  <unicode hex="0111"/>
  <anchor x="259" y="0" name="bottom"/>
  <anchor x="253" y="267" name="center"/>
  <anchor x="248" y="744" name="top"/>
  <anchor x="488" y="744" name="topright"/>
  <outline>
    <contour>
      <point x="509" y="694" type="line"/>
      <point x="191" y="694" type="line"/>
      <point x="191" y="591" type="line"/>
      <point x="474" y="591" type="line"/>
      <point x="509" y="591" type="line"/>
    </contour>
    <component base="d"/>
  </outline>
</glyph>
<glyph name="Hbar" format="2">
  <advance width="562"/>
  <unicode hex="0126"/>
  <anchor x="282" y="0" name="bottom"/>
  <anchor x="535" y="0" name="bottomright"/>
  <anchor x="282" y="348" name="center"/>
  <anchor x="282" y="696" name="top"/>
  <anchor x="38" y="695" name="topleft"/>
  <outline>
    <contour>
      <point x="562" y="599" type="line"/>
      <point x="527" y="599" type="line"/>
      <point x="0" y="599" type="line"/>
      <point x="0" y="496" type="line"/>
      <point x="35" y="496" type="line"/>
      <point x="562" y="496" type="line"/>
    </contour>
    <component base="H" xOffset="7"/>
  </outline>
</glyph>
<glyph name="hbar" format="2">
  <advance width="484"/>
  <unicode hex="0127"/>
  <anchor x="247" y="0" name="bottom"/>
  <anchor x="244" y="267" name="center"/>
  <anchor x="244" y="744" name="top"/>
  <outline>
    <contour>
      <point x="309" y="694" type="line"/>
      <point x="-10" y="694" type="line"/>
      <point x="-10" y="591" type="line"/>
      <point x="26" y="591" type="line"/>
      <point x="309" y="591" type="line"/>
    </contour>
    <component base="h" xOffset="5"/>
  </outline>
</glyph>
<glyph name="dotlessi" format="2">
  <advance width="244"/>
  <unicode hex="0131"/>
  <anchor x="122" y="0" name="bottom"/>
  <anchor x="182" y="0" name="ogonek"/>
  <anchor x="122" y="533" name="top"/>
  <outline>
    <contour>
      <point x="217" y="533" type="line"/>
      <point x="27" y="533" type="line"/>
      <point x="27" y="0" type="line"/>
      <point x="217" y="0" type="line"/>
    </contour>
  </outline>
</glyph>
<glyph name="kgreenlandic" format="2">
  <advance width="490"/>
  <unicode hex="0138"/>
  <anchor x="245" y="0" name="bottom"/>
  <anchor x="245" y="533" name="top"/>
  <outline>
    <contour>
      <point x="503" y="533" type="line"/>
      <point x="319" y="533" type="line"/>
      <point x="215" y="282" type="line"/>
      <point x="298" y="0" type="line"/>
      <point x="506" y="0" type="line"/>
      <point x="402" y="290" type="line"/>
    </contour>
    <contour>
      <point x="211" y="533" type="line"/>
      <point x="21" y="533" type="line"/>
      <point x="21" y="0" type="line"/>
      <point x="211" y="0" type="line"/>
    </contour>
  </outline>
</glyph>
<glyph name="Lslash" format="2">
  <advance width="492"/>
  <unicode hex="0141"/>
  <anchor x="276" y="0" name="bottom"/>
  <anchor x="395" y="403" name="center"/>
  <anchor x="181" y="696" name="top"/>
  <anchor x="285" y="696" name="topright"/>
  <outline>
    <contour>
      <point x="347" y="538" type="line"/>
      <point x="74" y="346" type="line"/>
      <point x="-6" y="287" type="line"/>
      <point x="52" y="187" type="line"/>
      <point x="406" y="439" type="line"/>
    </contour>
    <component base="L" xOffset="54"/>
  </outline>
</glyph>
<glyph name="lslash" format="2">
  <advance width="340"/>
  <unicode hex="0142"/>
  <anchor x="208" y="0" name="bottom"/>
  <anchor x="396" y="374" name="center"/>
  <anchor x="165" y="744" name="top"/>
  <anchor x="268" y="744" name="topright"/>
  <outline>
    <contour>
      <point x="44" y="234" type="line"/>
      <point x="352" y="443" type="line"/>
      <point x="292" y="538" type="line"/>
      <point x="70" y="390" type="line"/>
      <point x="-15" y="329" type="line"/>
    </contour>
    <component base="l" xOffset="48"/>
  </outline>
</glyph>
<glyph name="napostrophe" format="2">
  <advance width="607"/>
  <unicode hex="0149"/>
  <anchor x="367" y="0" name="bottom"/>
  <anchor x="371" y="534" name="top"/>
  <anchor x="148" y="534" name="topleft"/>
  <outline>
    <contour>
      <point x="95" y="763" type="curve" smooth="yes"/>
      <point x="51" y="763"/>
      <point x="25" y="729"/>
      <point x="25" y="690" type="curve" smooth="yes"/>
      <point x="25" y="661"/>
      <point x="38" y="642"/>
      <point x="55" y="628" type="curve"/>
      <point x="40" y="535" type="line"/>
      <point x="112" y="535" type="line"/>
      <point x="145" y="616" type="line" smooth="yes"/>
      <point x="158" y="647"/>
      <point x="165" y="664"/>
      <point x="165" y="690" type="curve" smooth="yes"/>
      <point x="165" y="732"/>
      <point x="140" y="763"/>
    </contour>
    <component base="n" xOffset="128"/>
  </outline>
</glyph>
<glyph name="OE" format="2">
  <advance width="759"/>
  <unicode hex="0152"/>
  <anchor x="383" y="0" name="bottom"/>
  <anchor x="383" y="696" name="top"/>
  <outline>
    <contour>
      <point x="276" y="716" type="curve" smooth="yes"/>
      <point x="111" y="716"/>
      <point x="17" y="586"/>
      <point x="17" y="349" type="curve" smooth="yes"/>
      <point x="17" y="111"/>
      <point x="111" y="-20"/>
      <point x="276" y="-20" type="curve" smooth="yes"/>
      <point x="353" y="-20"/>
      <point x="415" y="9"/>
      <point x="443" y="67" type="curve"/>
      <point x="520" y="133"/>
      <point x="548" y="235"/>
      <point x="548" y="349" type="curve" smooth="yes"/>
      <point x="548" y="466"/>
      <point x="517" y="568"/>
      <point x="430" y="641" type="curve"/>
      <point x="411" y="690"/>
      <point x="348" y="716"/>
    </contour>
    <contour>
      <point x="746" y="139" type="line"/>
      <point x="498" y="139" type="line"/>
      <point x="366" y="0" type="line"/>
      <point x="746" y="0" type="line"/>
    </contour>
    <contour>
      <point x="713" y="420" type="line"/>
      <point x="537" y="420" type="line"/>
      <point x="537" y="286" type="line"/>
      <point x="713" y="286" type="line"/>
    </contour>
    <contour>
      <point x="754" y="696" type="line"/>
      <point x="365" y="696" type="line"/>
      <point x="497" y="559" type="line"/>
      <point x="734" y="559" type="line"/>
    </contour>
    <contour>
      <point x="284" y="575" type="curve" smooth="yes"/>
      <point x="329" y="575"/>
      <point x="346" y="523"/>
      <point x="346" y="349" type="curve" smooth="yes"/>
      <point x="346" y="174"/>
      <point x="332" y="120"/>
      <point x="284" y="120" type="curve" smooth="yes"/>
      <point x="237" y="120"/>
      <point x="222" y="174"/>
      <point x="222" y="349" type="curve" smooth="yes"/>
      <point x="222" y="523"/>
      <point x="238" y="575"/>
    </contour>
  </outline>
</glyph>
<glyph name="oe" format="2">
  <advance width="756"/>
  <unicode hex="0153"/>
  <anchor x="387" y="0" name="bottom"/>
  <anchor x="375" y="534" name="top"/>
  <outline>
    <contour>
      <point x="245" y="554" type="curve" smooth="yes"/>
      <point x="105" y="554"/>
      <point x="14" y="446"/>
      <point x="14" y="268" type="curve" smooth="yes"/>
      <point x="14" y="76"/>
      <point x="105" y="-20"/>
      <point x="242" y="-20" type="curve" smooth="yes"/>
      <point x="372" y="-20"/>
      <point x="448" y="93"/>
      <point x="484" y="268" type="curve"/>
      <point x="458" y="430"/>
      <point x="373" y="554"/>
    </contour>
    <contour>
      <point x="249" y="417" type="curve" smooth="yes"/>
      <point x="279" y="417"/>
      <point x="290" y="382"/>
      <point x="290" y="268" type="curve" smooth="yes"/>
      <point x="290" y="149"/>
      <point x="279" y="116"/>
      <point x="249" y="116" type="curve" smooth="yes"/>
      <point x="219" y="116"/>
      <point x="208" y="148"/>
      <point x="208" y="268" type="curve" smooth="yes"/>
      <point x="208" y="382"/>
      <point x="219" y="417"/>
    </contour>
    <contour>
      <point x="531" y="554" type="curve" smooth="yes"/>
      <point x="386" y="554"/>
      <point x="317" y="413"/>
      <point x="290" y="265" type="curve"/>
      <point x="326" y="109"/>
      <point x="389" y="-20"/>
      <point x="542" y="-20" type="curve" smooth="yes"/>
      <point x="627" y="-20"/>
      <point x="692" y="15"/>
      <point x="735" y="59" type="curve"/>
      <point x="660" y="158" type="line"/>
      <point x="622" y="130"/>
      <point x="592" y="115"/>
      <point x="557" y="115" type="curve" smooth="yes"/>
      <point x="504" y="115"/>
      <point x="478" y="138"/>
      <point x="478" y="263" type="curve" smooth="yes"/>
      <point x="478" y="395"/>
      <point x="489" y="433"/>
      <point x="524" y="433" type="curve" smooth="yes"/>
      <point x="558" y="433"/>
      <point x="563" y="397"/>
      <point x="563" y="328" type="curve" smooth="yes"/>
      <point x="563" y="326"/>
      <point x="563" y="323"/>
      <point x="563" y="321" type="curve"/>
      <point x="465" y="321" type="line"/>
      <point x="468" y="213" type="line"/>
      <point x="743" y="213" type="line"/>
      <point x="745" y="231"/>
      <point x="747" y="257"/>
      <point x="747" y="274" type="curve" smooth="yes"/>
      <point x="747" y="463"/>
      <point x="652" y="554"/>
    </contour>
  </outline>
</glyph>
<glyph name="Tbar" format="2">
  <advance width="463"/>
  <unicode hex="0166"/>
  <anchor x="231" y="0" name="bottom"/>
  <anchor x="339" y="0" name="bottomright"/>
  <anchor x="231" y="348" name="center"/>
  <anchor x="231" y="696" name="top"/>
  <outline>
    <contour>
      <point x="416" y="391" type="line"/>
      <point x="45" y="391" type="line"/>
      <point x="45" y="287" type="line"/>
      <point x="132" y="287" type="line"/>
      <point x="416" y="287" type="line"/>
    </contour>
    <component base="T"/>
  </outline>
</glyph>
<glyph name="tbar" format="2">
  <advance width="337"/>
  <unicode hex="0167"/>
  <anchor x="191" y="0" name="bottom"/>
  <anchor x="167" y="267" name="center"/>
  <anchor x="135" y="646" name="top"/>
  <anchor x="224" y="795" name="topright"/>
  <outline>
    <contour>
      <point x="310" y="363" type="line"/>
      <point x="40" y="363" type="line"/>
      <point x="0" y="363" type="line"/>
      <point x="0" y="243" type="line"/>
      <point x="310" y="243" type="line"/>
    </contour>
    <component base="t"/>
  </outline>
</glyph>
<glyph name="bstroke" format="2">
  <advance width="609"/>
  <unicode hex="0180"/>
  <anchor x="267" y="0" name="bottom"/>
  <anchor x="281" y="744" name="top"/>
  <outline>
    <contour>
      <point x="312" y="694" type="line"/>
      <point x="-7" y="694" type="line"/>
      <point x="-7" y="591" type="line"/>
      <point x="29" y="591" type="line"/>
      <point x="312" y="591" type="line"/>
    </contour>
    <component base="b" xOffset="8"/>
  </outline>
</glyph>
<glyph name="btopbar" format="2">
  <advance width="493"/>
  <unicode hex="0183"/>
  <anchor x="247" y="0" name="bottom"/>
  <anchor x="247" y="744" name="top"/>
  <outline>
    <contour>
      <point x="308" y="-19" type="curve" smooth="yes"/>
      <point x="420" y="-19"/>
      <point x="485" y="103"/>
      <point x="485" y="257" type="curve" smooth="yes"/>
      <point x="485" y="426"/>
      <point x="436" y="534"/>
      <point x="318" y="534" type="curve" smooth="yes"/>
      <point x="277" y="534"/>
      <point x="222" y="501"/>
      <point x="205" y="453" type="curve"/>
      <point x="201" y="324" type="line"/>
      <point x="218" y="375"/>
      <point x="239" y="398"/>
      <point x="256" y="398" type="curve" smooth="yes"/>
      <point x="274" y="398"/>
      <point x="292" y="374"/>
      <point x="292" y="257" type="curve" smooth="yes"/>
      <point x="292" y="151"/>
      <point x="274" y="116"/>
      <point x="251" y="116" type="curve" smooth="yes"/>
      <point x="229" y="116"/>
      <point x="214" y="136"/>
      <point x="204" y="176" type="curve"/>
      <point x="188" y="62" type="line"/>
      <point x="211" y="12"/>
      <point x="254" y="-19"/>
    </contour>
    <contour>
      <point x="21" y="0" type="line"/>
      <point x="190" y="0" type="line"/>
      <point x="211" y="146" type="line"/>
      <point x="211" y="744" type="line"/>
      <point x="21" y="744" type="line"/>
    </contour>
    <contour>
      <point x="211" y="610" type="line"/>
      <point x="365" y="610" type="line"/>
      <point x="384" y="744" type="line"/>
      <point x="29" y="744" type="line"/>
    </contour>
  </outline>
</glyph>
<glyph name="Tonesix" format="2">
  <advance width="543"/>
  <unicode hex="0184"/>
  <anchor x="271" y="0" name="bottom"/>
  <anchor x="271" y="695" name="top"/>
  <outline>
    <contour>
      <point x="58" y="0" type="line"/>
      <point x="311" y="0" type="line" smooth="yes"/>
      <point x="442" y="0"/>
      <point x="539" y="79"/>
      <point x="539" y="241" type="curve" smooth="yes"/>
      <point x="539" y="393"/>
      <point x="454" y="467"/>
      <point x="302" y="467" type="curve" smooth="yes"/>
      <point x="243" y="467" type="line"/>
      <point x="243" y="333" type="line"/>
      <point x="276" y="333" type="line" smooth="yes"/>
      <point x="324" y="333"/>
      <point x="334" y="297"/>
      <point x="334" y="239" type="curve" smooth="yes"/>
      <point x="334" y="175"/>
      <point x="322" y="140"/>
      <point x="280" y="140" type="curve" smooth="yes"/>
      <point x="256" y="140" type="line"/>
      <point x="256" y="695" type="line"/>
      <point x="95" y="695" type="line"/>
      <point x="58" y="549" type="line"/>
    </contour>
    <contour>
      <point x="59" y="475" type="line"/>
      <point x="95" y="695" type="line"/>
      <point x="68" y="634"/>
      <point x="34" y="577"/>
      <point x="-8" y="531" type="curve"/>
    </contour>
  </outline>
</glyph>
<glyph name="tonesix" format="2">
  <advance width="461"/>
  <unicode hex="0185"/>
  <anchor x="231" y="0" name="bottom"/>
  <anchor x="231" y="533" name="top"/>
  <outline>
    <contour>
      <point x="48" y="0" type="line"/>
      <point x="264" y="0" type="line" smooth="yes"/>
      <point x="391" y="0"/>
      <point x="465" y="63"/>
      <point x="465" y="184" type="curve" smooth="yes"/>
      <point x="465" y="307"/>
      <point x="393" y="370"/>
      <point x="240" y="370" type="curve" smooth="yes"/>
      <point x="225" y="370" type="line"/>
      <point x="225" y="254" type="line"/>
      <point x="237" y="254" type="line" smooth="yes"/>
      <point x="264" y="254"/>
      <point x="276" y="231"/>
      <point x="276" y="187" type="curve" smooth="yes"/>
      <point x="276" y="145"/>
      <point x="269" y="119"/>
      <point x="243" y="119" type="curve" smooth="yes"/>
      <point x="238" y="119" type="line"/>
      <point x="238" y="533" type="line"/>
      <point x="84" y="533" type="line"/>
      <point x="48" y="433" type="line"/>
    </contour>
    <contour>
      <point x="48" y="323" type="line"/>
      <point x="84" y="533" type="line"/>
      <point x="54" y="471"/>
      <point x="23" y="425"/>
      <point x="-19" y="379" type="curve"/>
    </contour>
  </outline>
</glyph>
<glyph name="Oopen" format="2">
  <advance width="485"/>
  <unicode hex="0186"/>
  <anchor x="213" y="0" name="bottom"/>
  <anchor x="169" y="353" name="center"/>
  <anchor x="213" y="695" name="top"/>
  <outline>
    <contour>
      <point x="202" y="715" type="curve" smooth="yes"/>
      <point x="113" y="715"/>
      <point x="52" y="684"/>
      <point x="2" y="634" type="curve"/>
      <point x="95" y="523" type="line"/>
      <point x="124" y="553"/>
      <point x="150" y="572"/>
      <point x="190" y="572" type="curve" smooth="yes"/>
      <point x="247" y="572"/>
      <point x="273" y="501"/>
      <point x="273" y="350" type="curve" smooth="yes"/>
      <point x="273" y="199"/>
      <point x="242" y="130"/>
      <point x="185" y="130" type="curve" smooth="yes"/>
      <point x="144" y="130"/>
      <point x="114" y="156"/>
      <point x="80" y="188" type="curve"/>
      <point x="-5" y="76" type="line"/>
      <point x="40" y="26"/>
      <point x="111" y="-19"/>
      <point x="197" y="-19" type="curve" smooth="yes"/>
      <point x="368" y="-19"/>
      <point x="478" y="109"/>
      <point x="478" y="350" type="curve" smooth="yes"/>
      <point x="478" y="582"/>
      <point x="363" y="715"/>
    </contour>
  </outline>
</glyph>
<glyph name="Chook" format="2">
  <advance width="485"/>
  <unicode hex="0187"/>
  <anchor x="242" y="0" name="bottom"/>
  <anchor x="210" y="740" name="top"/>
  <outline>
    <contour>
      <point x="293" y="-19" type="curve" smooth="yes"/>
      <point x="375" y="-19"/>
      <point x="445" y="26"/>
      <point x="490" y="76" type="curve"/>
      <point x="405" y="188" type="line"/>
      <point x="371" y="156"/>
      <point x="341" y="130"/>
      <point x="305" y="130" type="curve" smooth="yes"/>
      <point x="243" y="130"/>
      <point x="212" y="199"/>
      <point x="212" y="350" type="curve" smooth="yes"/>
      <point x="212" y="501"/>
      <point x="241" y="572"/>
      <point x="298" y="572" type="curve" smooth="yes"/>
      <point x="347" y="572"/>
      <point x="374" y="557"/>
      <point x="401" y="536" type="curve"/>
      <point x="484" y="634" type="line"/>
      <point x="435" y="665"/>
      <point x="393" y="687"/>
      <point x="351" y="687" type="curve"/>
      <point x="326" y="706"/>
      <point x="298" y="715"/>
      <point x="259" y="715" type="curve" smooth="yes"/>
      <point x="127" y="715"/>
      <point x="7" y="582"/>
      <point x="7" y="350" type="curve" smooth="yes"/>
      <point x="7" y="109"/>
      <point x="117" y="-19"/>
    </contour>
    <contour>
      <point x="326" y="634" type="line"/>
      <point x="484" y="634" type="line"/>
      <point x="484" y="668" type="line" smooth="yes"/>
      <point x="484" y="706"/>
      <point x="491" y="724"/>
      <point x="514" y="724" type="curve" smooth="yes"/>
      <point x="530" y="724"/>
      <point x="545" y="718"/>
      <point x="564" y="706" type="curve"/>
      <point x="611" y="824" type="line"/>
      <point x="580" y="844"/>
      <point x="539" y="861"/>
      <point x="482" y="861" type="curve" smooth="yes"/>
      <point x="371" y="861"/>
      <point x="326" y="793"/>
      <point x="326" y="683" type="curve" smooth="yes"/>
    </contour>
  </outline>
</glyph>
<glyph name="chook" format="2">
  <advance width="394"/>
  <unicode hex="0188"/>
  <anchor x="197" y="0" name="bottom"/>
  <anchor x="197" y="744" name="top"/>
  <outline>
    <contour>
      <point x="411" y="763" type="curve" smooth="yes"/>
      <point x="299" y="763"/>
      <point x="255" y="695"/>
      <point x="255" y="586" type="curve" smooth="yes"/>
      <point x="255" y="532" type="line"/>
      <point x="412" y="483" type="line"/>
      <point x="412" y="571" type="line" smooth="yes"/>
      <point x="412" y="609"/>
      <point x="420" y="626"/>
      <point x="443" y="626" type="curve" smooth="yes"/>
      <point x="458" y="626"/>
      <point x="474" y="620"/>
      <point x="493" y="609" type="curve"/>
      <point x="540" y="726" type="line"/>
      <point x="508" y="746"/>
      <point x="467" y="763"/>
    </contour>
    <contour>
      <point x="212" y="553" type="curve" smooth="yes"/>
      <point x="101" y="553"/>
      <point x="4" y="432"/>
      <point x="4" y="263" type="curve" smooth="yes"/>
      <point x="4" y="95"/>
      <point x="97" y="-19"/>
      <point x="250" y="-19" type="curve" smooth="yes"/>
      <point x="320" y="-19"/>
      <point x="371" y="6"/>
      <point x="412" y="46" type="curve"/>
      <point x="329" y="165" type="line"/>
      <point x="302" y="139"/>
      <point x="285" y="128"/>
      <point x="261" y="128" type="curve" smooth="yes"/>
      <point x="227" y="128"/>
      <point x="201" y="154"/>
      <point x="201" y="263" type="curve" smooth="yes"/>
      <point x="201" y="373"/>
      <point x="222" y="409"/>
      <point x="267" y="409" type="curve" smooth="yes"/>
      <point x="295" y="409"/>
      <point x="321" y="401"/>
      <point x="345" y="387" type="curve"/>
      <point x="412" y="483" type="line"/>
      <point x="383" y="511"/>
      <point x="350" y="531"/>
      <point x="289" y="533" type="curve"/>
      <point x="270" y="545"/>
      <point x="243" y="553"/>
    </contour>
  </outline>
</glyph>
<glyph name="Dtopbar" format="2">
  <advance width="606"/>
  <unicode hex="018B"/>
  <anchor x="252" y="0" name="bottom"/>
  <anchor x="252" y="695" name="top"/>
  <outline>
    <contour>
      <point x="83" y="695" type="line"/>
      <point x="83" y="548" type="line"/>
      <point x="299" y="548" type="line"/>
      <point x="484" y="695" type="line"/>
    </contour>
    <component base="Komide-cy" xOffset="-1"/>
  </outline>
</glyph>
<glyph name="dtopbar" format="2">
  <advance width="494"/>
  <unicode hex="018C"/>
  <anchor x="247" y="0" name="bottom"/>
  <anchor x="247" y="744" name="top"/>
  <outline>
    <contour>
      <point x="176" y="-19" type="curve" smooth="yes"/>
      <point x="248" y="-19"/>
      <point x="284" y="25"/>
      <point x="304" y="68" type="curve"/>
      <point x="292" y="185" type="line"/>
      <point x="279" y="138"/>
      <point x="260" y="117"/>
      <point x="245" y="117" type="curve" smooth="yes"/>
      <point x="224" y="117"/>
      <point x="202" y="139"/>
      <point x="202" y="258" type="curve" smooth="yes"/>
      <point x="202" y="359"/>
      <point x="226" y="399"/>
      <point x="253" y="399" type="curve" smooth="yes"/>
      <point x="270" y="399"/>
      <point x="278" y="380"/>
      <point x="295" y="351" type="curve"/>
      <point x="293" y="480" type="line"/>
      <point x="270" y="514"/>
      <point x="231" y="534"/>
      <point x="200" y="534" type="curve" smooth="yes"/>
      <point x="81" y="534"/>
      <point x="8" y="416"/>
      <point x="8" y="260" type="curve" smooth="yes"/>
      <point x="8" y="94"/>
      <point x="59" y="-19"/>
    </contour>
    <contour>
      <point x="304" y="0" type="line"/>
      <point x="473" y="0" type="line"/>
      <point x="473" y="744" type="line"/>
      <point x="283" y="744" type="line"/>
      <point x="283" y="154" type="line"/>
      <point x="297" y="70" type="line"/>
    </contour>
    <contour>
      <point x="120" y="610" type="line"/>
      <point x="283" y="610" type="line"/>
      <point x="465" y="744" type="line"/>
      <point x="120" y="744" type="line"/>
    </contour>
  </outline>
</glyph>
<glyph name="deltaturned" format="2">
  <advance width="473"/>
  <unicode hex="018D"/>
  <anchor x="236" y="-214" name="bottom"/>
  <anchor x="236" y="533" name="top"/>
  <outline>
    <contour>
      <point x="47" y="-68" type="curve" smooth="yes"/>
      <point x="47" y="-152"/>
      <point x="105" y="-226"/>
      <point x="252" y="-226" type="curve" smooth="yes"/>
      <point x="332" y="-226"/>
      <point x="394" y="-197"/>
      <point x="427" y="-162" type="curve"/>
      <point x="345" y="-65" type="line"/>
      <point x="323" y="-85"/>
      <point x="298" y="-98"/>
      <point x="267" y="-98" type="curve" smooth="yes"/>
      <point x="236" y="-98"/>
      <point x="223" y="-82"/>
      <point x="223" y="-61" type="curve" smooth="yes"/>
      <point x="223" y="-38"/>
      <point x="225" y="-26"/>
      <point x="287" y="5" type="curve" smooth="yes"/>
      <point x="415" y="69"/>
      <point x="469" y="138"/>
      <point x="469" y="283" type="curve" smooth="yes"/>
      <point x="469" y="453"/>
      <point x="374" y="553"/>
      <point x="236" y="553" type="curve" smooth="yes"/>
      <point x="89" y="553"/>
      <point x="4" y="455"/>
      <point x="4" y="292" type="curve" smooth="yes"/>
      <point x="4" y="193"/>
      <point x="42" y="116"/>
      <point x="142" y="68" type="curve"/>
      <point x="233" y="108" type="line"/>
      <point x="190" y="158"/>
      <point x="195" y="209"/>
      <point x="195" y="282" type="curve" smooth="yes"/>
      <point x="195" y="377"/>
      <point x="207" y="416"/>
      <point x="235" y="416" type="curve" smooth="yes"/>
      <point x="263" y="416"/>
      <point x="275" y="378"/>
      <point x="275" y="282" type="curve" smooth="yes"/>
      <point x="275" y="176"/>
      <point x="270" y="154"/>
      <point x="167" y="98" type="curve" smooth="yes"/>
      <point x="59" y="39"/>
      <point x="47" y="-7"/>
    </contour>
  </outline>
</glyph>
<glyph name="Ereversed" format="2">
  <advance width="417"/>
  <unicode hex="018E"/>
  <outline>
    <contour>
      <point x="12" y="695" type="line"/>
      <point x="12" y="558" type="line"/>
      <point x="199" y="558" type="line"/>
      <point x="199" y="420" type="line"/>
      <point x="41" y="420" type="line"/>
      <point x="41" y="286" type="line"/>
      <point x="199" y="286" type="line"/>
      <point x="199" y="139" type="line"/>
      <point x="8" y="139" type="line"/>
      <point x="8" y="0" type="line"/>
      <point x="397" y="0" type="line"/>
      <point x="397" y="695" type="line"/>
    </contour>
  </outline>
</glyph>
<glyph name="Eopen" format="2">
  <advance width="462"/>
  <unicode hex="0190"/>
  <anchor x="231" y="0" name="bottom"/>
  <anchor x="231" y="695" name="top"/>
  <outline>
    <contour>
      <point x="250" y="715" type="curve" smooth="yes"/>
      <point x="119" y="715"/>
      <point x="20" y="638"/>
      <point x="20" y="530" type="curve" smooth="yes"/>
      <point x="20" y="454"/>
      <point x="57" y="391"/>
      <point x="164" y="367" type="curve"/>
      <point x="55" y="354"/>
      <point x="4" y="297"/>
      <point x="4" y="193" type="curve" smooth="yes"/>
      <point x="4" y="63"/>
      <point x="105" y="-19"/>
      <point x="252" y="-19" type="curve" smooth="yes"/>
      <point x="358" y="-19"/>
      <point x="426" y="18"/>
      <point x="475" y="80" type="curve"/>
      <point x="374" y="180" type="line"/>
      <point x="337" y="141"/>
      <point x="310" y="122"/>
      <point x="275" y="122" type="curve" smooth="yes"/>
      <point x="236" y="122"/>
      <point x="209" y="150"/>
      <point x="209" y="208" type="curve" smooth="yes"/>
      <point x="209" y="263"/>
      <point x="232" y="297"/>
      <point x="285" y="297" type="curve" smooth="yes"/>
      <point x="329" y="297" type="line"/>
      <point x="351" y="434" type="line"/>
      <point x="281" y="434" type="line" smooth="yes"/>
      <point x="239" y="434"/>
      <point x="221" y="461"/>
      <point x="221" y="507" type="curve" smooth="yes"/>
      <point x="221" y="545"/>
      <point x="234" y="576"/>
      <point x="276" y="576" type="curve" smooth="yes"/>
      <point x="305" y="576"/>
      <point x="334" y="559"/>
      <point x="365" y="523" type="curve"/>
      <point x="454" y="620" type="line"/>
      <point x="399" y="682"/>
      <point x="337" y="715"/>
    </contour>
  </outline>
</glyph>
<glyph name="florin" format="2">
  <advance width="338"/>
  <unicode hex="0192"/>
  <outline>
    <contour>
      <point x="256" y="764" type="curve" smooth="yes"/>
      <point x="117" y="764"/>
      <point x="52" y="686"/>
      <point x="52" y="569" type="curve" smooth="yes"/>
      <point x="52" y="0" type="line"/>
      <point x="242" y="82" type="line"/>
      <point x="242" y="578" type="line" smooth="yes"/>
      <point x="242" y="611"/>
      <point x="255" y="627"/>
      <point x="289" y="627" type="curve" smooth="yes"/>
      <point x="313" y="627"/>
      <point x="333" y="622"/>
      <point x="360" y="612" type="curve"/>
      <point x="408" y="728" type="line"/>
      <point x="366" y="749"/>
      <point x="318" y="764"/>
    </contour>
    <contour>
      <point x="343" y="534" type="line"/>
      <point x="-1" y="534" type="line"/>
      <point x="-1" y="405" type="line"/>
      <point x="322" y="405" type="line"/>
    </contour>
    <contour>
      <point x="242" y="336" type="line"/>
      <point x="52" y="336" type="line"/>
      <point x="52" y="62" type="line" smooth="yes"/>
      <point x="52" y="-27"/>
      <point x="12" y="-57"/>
      <point x="-42" y="-88" type="curve"/>
      <point x="24" y="-226" type="line"/>
      <point x="138" y="-182"/>
      <point x="242" y="-111"/>
      <point x="242" y="74" type="curve" smooth="yes"/>
    </contour>
  </outline>
</glyph>
<glyph name="Ghook" format="2">
  <advance width="523"/>
  <unicode hex="0193"/>
  <anchor x="261" y="0" name="bottom"/>
  <anchor x="240" y="740" name="top"/>
  <outline>
    <contour>
      <point x="296" y="-19" type="curve" smooth="yes"/>
      <point x="364" y="-19"/>
      <point x="455" y="9"/>
      <point x="519" y="59" type="curve"/>
      <point x="519" y="407" type="line"/>
      <point x="268" y="407" type="line"/>
      <point x="286" y="273" type="line"/>
      <point x="330" y="273" type="line"/>
      <point x="330" y="140" type="line"/>
      <point x="316" y="128"/>
      <point x="304" y="121"/>
      <point x="287" y="121" type="curve" smooth="yes"/>
      <point x="231" y="121"/>
      <point x="210" y="174"/>
      <point x="210" y="348" type="curve" smooth="yes"/>
      <point x="210" y="505"/>
      <point x="243" y="576"/>
      <point x="321" y="576" type="curve" smooth="yes"/>
      <point x="363" y="576"/>
      <point x="396" y="558"/>
      <point x="433" y="531" type="curve"/>
      <point x="521" y="625" type="line"/>
      <point x="493" y="653"/>
      <point x="455" y="674"/>
      <point x="410" y="670" type="curve"/>
      <point x="388" y="695"/>
      <point x="340" y="715"/>
      <point x="287" y="715" type="curve" smooth="yes"/>
      <point x="136" y="715"/>
      <point x="7" y="584"/>
      <point x="7" y="349" type="curve" smooth="yes"/>
      <point x="7" y="112"/>
      <point x="88" y="-19"/>
    </contour>
    <contour>
      <point x="364" y="634" type="line"/>
      <point x="521" y="625" type="line"/>
      <point x="521" y="668" type="line" smooth="yes"/>
      <point x="521" y="706"/>
      <point x="529" y="724"/>
      <point x="552" y="724" type="curve" smooth="yes"/>
      <point x="567" y="724"/>
      <point x="583" y="718"/>
      <point x="602" y="706" type="curve"/>
      <point x="649" y="824" type="line"/>
      <point x="618" y="844"/>
      <point x="576" y="861"/>
      <point x="520" y="861" type="curve" smooth="yes"/>
      <point x="409" y="861"/>
      <point x="364" y="793"/>
      <point x="364" y="683" type="curve" smooth="yes"/>
    </contour>
  </outline>
</glyph>
<glyph name="Gammaafrican" format="2">
  <advance width="480"/>
  <unicode hex="0194"/>
  <anchor x="240" y="-214" name="bottom"/>
  <anchor x="240" y="695" name="top"/>
  <outline>
    <contour>
      <point x="244" y="-226" type="curve" smooth="yes"/>
      <point x="358" y="-226"/>
      <point x="396" y="-169"/>
      <point x="396" y="-91" type="curve" smooth="yes"/>
      <point x="396" y="-25"/>
      <point x="377" y="33"/>
      <point x="338" y="103" type="curve"/>
      <point x="243" y="229" type="line"/>
      <point x="179" y="695" type="line"/>
      <point x="-29" y="695" type="line"/>
      <point x="151" y="103" type="line"/>
      <point x="244" y="6" type="line"/>
      <point x="256" y="-29"/>
      <point x="265" y="-53"/>
      <point x="265" y="-78" type="curve" smooth="yes"/>
      <point x="265" y="-97"/>
      <point x="258" y="-109"/>
      <point x="244" y="-109" type="curve" smooth="yes"/>
      <point x="231" y="-109"/>
      <point x="223" y="-98"/>
      <point x="223" y="-79" type="curve" smooth="yes"/>
      <point x="223" y="-56"/>
      <point x="231" y="-28"/>
      <point x="244" y="6" type="curve"/>
      <point x="338" y="103" type="line"/>
      <point x="509" y="695" type="line"/>
      <point x="306" y="695" type="line"/>
      <point x="243" y="229" type="line"/>
      <point x="151" y="103" type="line"/>
      <point x="109" y="20"/>
      <point x="91" y="-32"/>
      <point x="91" y="-91" type="curve" smooth="yes"/>
      <point x="91" y="-170"/>
      <point x="134" y="-226"/>
    </contour>
  </outline>
</glyph>
<glyph name="hv" format="2">
  <advance width="700"/>
  <unicode hex="0195"/>
  <anchor x="350" y="0" name="bottom"/>
  <anchor x="350" y="744" name="top"/>
  <outline>
    <contour>
      <point x="454" y="-19" type="curve" smooth="yes"/>
      <point x="572" y="-19"/>
      <point x="691" y="55"/>
      <point x="691" y="245" type="curve" smooth="yes"/>
      <point x="691" y="359"/>
      <point x="677" y="455"/>
      <point x="665" y="533" type="curve"/>
      <point x="479" y="533" type="line"/>
      <point x="490" y="443"/>
      <point x="502" y="345"/>
      <point x="502" y="259" type="curve" smooth="yes"/>
      <point x="502" y="154"/>
      <point x="491" y="117"/>
      <point x="470" y="117" type="curve" smooth="yes"/>
      <point x="458" y="117"/>
      <point x="449" y="134"/>
      <point x="449" y="189" type="curve" smooth="yes"/>
      <point x="449" y="335" type="line"/>
      <point x="259" y="335" type="line"/>
      <point x="259" y="189" type="line" smooth="yes"/>
      <point x="259" y="40"/>
      <point x="351" y="-19"/>
    </contour>
    <contour>
      <point x="21" y="0" type="line"/>
      <point x="211" y="0" type="line"/>
      <point x="211" y="763" type="line"/>
      <point x="21" y="744" type="line"/>
    </contour>
    <contour>
      <point x="259" y="293" type="line"/>
      <point x="449" y="293" type="line"/>
      <point x="449" y="393" type="line" smooth="yes"/>
      <point x="449" y="495"/>
      <point x="405" y="553"/>
      <point x="334" y="553" type="curve" smooth="yes"/>
      <point x="278" y="553"/>
      <point x="238" y="524"/>
      <point x="189" y="457" type="curve"/>
      <point x="211" y="358" type="line"/>
      <point x="227" y="396"/>
      <point x="241" y="414"/>
      <point x="249" y="414" type="curve" smooth="yes"/>
      <point x="255" y="414"/>
      <point x="259" y="403"/>
      <point x="259" y="359" type="curve"/>
    </contour>
  </outline>
</glyph>
<glyph name="Iotaafrican" format="2">
  <advance width="406"/>
  <unicode hex="0196"/>
  <anchor x="177" y="0" name="bottom"/>
  <anchor x="111" y="695" name="top"/>
  <outline>
    <contour>
      <point x="210" y="695" type="line"/>
      <point x="12" y="695" type="line"/>
      <point x="12" y="207" type="line"/>
      <point x="210" y="207" type="line"/>
    </contour>
    <component base="hookHELPER.case" xScale="-1" xOffset="387" yOffset="207"/>
  </outline>
</glyph>
<glyph name="Khook" format="2">
  <advance width="568"/>
  <unicode hex="0198"/>
  <anchor x="284" y="0" name="bottom"/>
  <anchor x="284" y="695" name="top"/>
  <outline>
    <contour>
      <point x="218" y="695" type="line"/>
      <point x="20" y="695" type="line"/>
      <point x="20" y="0" type="line"/>
      <point x="218" y="0" type="line"/>
    </contour>
    <contour>
      <point x="477" y="529" type="line" smooth="yes"/>
      <point x="493" y="570"/>
      <point x="502" y="578"/>
      <point x="520" y="578" type="curve" smooth="yes"/>
      <point x="532" y="578"/>
      <point x="540" y="572"/>
      <point x="546" y="567" type="curve"/>
      <point x="590" y="676" type="line"/>
      <point x="568" y="696"/>
      <point x="532" y="715"/>
      <point x="486" y="715" type="curve" smooth="yes"/>
      <point x="400" y="715"/>
      <point x="356" y="680"/>
      <point x="313" y="580" type="curve" smooth="yes"/>
      <point x="223" y="371" type="line"/>
      <point x="357" y="0" type="line"/>
      <point x="580" y="0" type="line"/>
      <point x="421" y="386" type="line"/>
    </contour>
  </outline>
</glyph>
<glyph name="khook" format="2">
  <advance width="576"/>
  <unicode hex="0199"/>
  <outline>
    <contour>
      <point x="503" y="533" type="line"/>
      <point x="318" y="533" type="line"/>
      <point x="214" y="292" type="line"/>
      <point x="298" y="0" type="line"/>
      <point x="506" y="0" type="line"/>
      <point x="401" y="300" type="line"/>
    </contour>
    <contour>
      <point x="211" y="553" type="line"/>
      <point x="21" y="533" type="line"/>
      <point x="21" y="0" type="line"/>
      <point x="211" y="0" type="line"/>
    </contour>
    <component base="hookaboveHELPER" xOffset="-4"/>
  </outline>
</glyph>
<glyph name="lambdastroke" format="2">
  <advance width="470"/>
  <unicode hex="019B"/>
  <anchor x="235" y="0" name="bottom"/>
  <anchor x="235" y="744" name="top"/>
  <outline>
    <contour>
      <point x="185" y="-19" type="line"/>
      <point x="226" y="356" type="line"/>
      <point x="241" y="185"/>
      <point x="255" y="88"/>
      <point x="302" y="-19" type="curve"/>
      <point x="488" y="39" type="line"/>
      <point x="430" y="139"/>
      <point x="409" y="247"/>
      <point x="373" y="449" type="curve" smooth="yes"/>
      <point x="330" y="693"/>
      <point x="227" y="737"/>
      <point x="65" y="761" type="curve"/>
      <point x="45" y="644" type="line"/>
      <point x="159" y="630"/>
      <point x="184" y="601"/>
      <point x="210" y="485" type="curve"/>
      <point x="118" y="485" type="line"/>
      <point x="-5" y="23" type="line"/>
    </contour>
    <contour>
      <point x="157" y="511" type="line"/>
      <point x="204" y="560" type="line"/>
      <point x="304" y="629" type="line"/>
      <point x="360" y="680" type="line"/>
      <point x="297" y="768" type="line"/>
      <point x="210" y="693" type="line"/>
      <point x="113" y="626" type="line"/>
      <point x="65" y="574" type="line"/>
    </contour>
  </outline>
</glyph>
<glyph name="Mturned" format="2">
  <advance width="733"/>
  <unicode hex="019C"/>
  <anchor x="367" y="0" name="bottom"/>
  <anchor x="367" y="695" name="top"/>
  <outline>
    <contour>
      <point x="400" y="-19" type="curve" smooth="yes"/>
      <point x="455" y="-19"/>
      <point x="491" y="8"/>
      <point x="537" y="72" type="curve"/>
      <point x="515" y="180" type="line"/>
      <point x="502" y="142"/>
      <point x="491" y="124"/>
      <point x="479" y="124" type="curve" smooth="yes"/>
      <point x="468" y="124"/>
      <point x="461" y="146"/>
      <point x="461" y="182" type="curve" smooth="yes"/>
      <point x="461" y="695" type="line"/>
      <point x="264" y="695" type="line"/>
      <point x="264" y="171" type="line" smooth="yes"/>
      <point x="264" y="59"/>
      <point x="315" y="-19"/>
    </contour>
    <contour>
      <point x="539" y="0" type="line"/>
      <point x="713" y="0" type="line"/>
      <point x="713" y="695" type="line"/>
      <point x="515" y="695" type="line"/>
      <point x="515" y="101" type="line"/>
    </contour>
    <contour>
      <point x="149" y="-19" type="curve" smooth="yes"/>
      <point x="204" y="-19"/>
      <point x="239" y="8"/>
      <point x="283" y="72" type="curve"/>
      <point x="263" y="180" type="line"/>
      <point x="251" y="151"/>
      <point x="238" y="124"/>
      <point x="229" y="124" type="curve" smooth="yes"/>
      <point x="217" y="124"/>
      <point x="210" y="146"/>
      <point x="210" y="182" type="curve" smooth="yes"/>
      <point x="210" y="695" type="line"/>
      <point x="12" y="695" type="line"/>
      <point x="12" y="171" type="line" smooth="yes"/>
      <point x="12" y="59"/>
      <point x="63" y="-19"/>
    </contour>
  </outline>
</glyph>
<glyph name="Nhookleft" format="2">
  <advance width="651"/>
  <unicode hex="019D"/>
  <anchor x="270" y="0" name="bottom"/>
  <anchor x="268" y="696" name="top"/>
  <outline>
    <contour>
      <point x="7" y="-226" type="curve" smooth="yes"/>
      <point x="117" y="-226"/>
      <point x="194" y="-157"/>
      <point x="194" y="-19" type="curve" smooth="yes"/>
      <point x="194" y="1" type="line"/>
      <point x="20" y="1" type="line"/>
      <point x="20" y="-36" type="line" smooth="yes"/>
      <point x="20" y="-73"/>
      <point x="6" y="-91"/>
      <point x="-19" y="-91" type="curve" smooth="yes"/>
      <point x="-41" y="-91"/>
      <point x="-53" y="-83"/>
      <point x="-73" y="-71" type="curve"/>
      <point x="-133" y="-181" type="line"/>
      <point x="-101" y="-207"/>
      <point x="-57" y="-226"/>
    </contour>
    <component base="N"/>
  </outline>
</glyph>
<glyph name="nlegrightlong" format="2">
  <advance width="572"/>
  <unicode hex="019E"/>
  <anchor x="239" y="0" name="bottom"/>
  <anchor x="243" y="534" name="top"/>
  <anchor x="20" y="534" name="topleft"/>
  <outline>
    <contour>
      <point x="449" y="1" type="line"/>
      <point x="259" y="1" type="line"/>
      <point x="259" y="-207" type="line"/>
      <point x="449" y="-226" type="line"/>
    </contour>
    <component base="n"/>
  </outline>
</glyph>
<glyph name="Oi" format="2">
  <advance width="818"/>
  <unicode hex="01A2"/>
  <anchor x="409" y="-214" name="bottom"/>
  <anchor x="409" y="695" name="top"/>
  <outline>
    <contour>
      <point x="594" y="715" type="curve" smooth="yes"/>
      <point x="527" y="715"/>
      <point x="472" y="690"/>
      <point x="428" y="651" type="curve"/>
      <point x="516" y="562" type="line"/>
      <point x="533" y="575"/>
      <point x="543" y="580"/>
      <point x="564" y="580" type="curve" smooth="yes"/>
      <point x="587" y="580"/>
      <point x="600" y="561"/>
      <point x="600" y="515" type="curve" smooth="yes"/>
      <point x="600" y="-214" type="line"/>
      <point x="798" y="-214" type="line"/>
      <point x="798" y="508" type="line" smooth="yes"/>
      <point x="798" y="646"/>
      <point x="712" y="715"/>
    </contour>
    <contour>
      <point x="282" y="715" type="curve" smooth="yes"/>
      <point x="101" y="715"/>
      <point x="7" y="575"/>
      <point x="7" y="349" type="curve" smooth="yes"/>
      <point x="7" y="118"/>
      <point x="101" y="-19"/>
      <point x="282" y="-19" type="curve" smooth="yes"/>
      <point x="463" y="-19"/>
      <point x="558" y="122"/>
      <point x="558" y="349" type="curve" smooth="yes"/>
      <point x="558" y="580"/>
      <point x="450" y="715"/>
    </contour>
    <contour>
      <point x="282" y="574" type="curve" smooth="yes"/>
      <point x="336" y="574"/>
      <point x="353" y="512"/>
      <point x="353" y="349" type="curve" smooth="yes"/>
      <point x="353" y="185"/>
      <point x="339" y="121"/>
      <point x="282" y="121" type="curve" smooth="yes"/>
      <point x="227" y="121"/>
      <point x="212" y="185"/>
      <point x="212" y="349" type="curve" smooth="yes"/>
      <point x="212" y="512"/>
      <point x="228" y="574"/>
    </contour>
  </outline>
</glyph>
<glyph name="oi" format="2">
  <advance width="715"/>
  <unicode hex="01A3"/>
  <anchor x="358" y="-214" name="bottom"/>
  <anchor x="358" y="533" name="top"/>
  <outline>
    <contour>
      <point x="504" y="-207" type="line"/>
      <point x="694" y="-226" type="line"/>
      <point x="694" y="346" type="line" smooth="yes"/>
      <point x="694" y="484"/>
      <point x="613" y="553"/>
      <point x="502" y="553" type="curve" smooth="yes"/>
      <point x="429" y="553"/>
      <point x="388" y="534"/>
      <point x="330" y="489" type="curve"/>
      <point x="418" y="400" type="line"/>
      <point x="446" y="413"/>
      <point x="458" y="418"/>
      <point x="471" y="418" type="curve" smooth="yes"/>
      <point x="493" y="418"/>
      <point x="504" y="403"/>
      <point x="504" y="363" type="curve" smooth="yes"/>
    </contour>
    <contour>
      <point x="240" y="553" type="curve"/>
      <point x="95" y="553"/>
      <point x="4" y="441"/>
      <point x="4" y="268" type="curve" smooth="yes"/>
      <point x="4" y="83"/>
      <point x="97" y="-19"/>
      <point x="240" y="-19" type="curve"/>
      <point x="385" y="-19"/>
      <point x="476" y="93"/>
      <point x="476" y="266" type="curve" smooth="yes"/>
      <point x="476" y="450"/>
      <point x="374" y="553"/>
    </contour>
    <contour>
      <point x="240" y="416" type="curve"/>
      <point x="271" y="416"/>
      <point x="282" y="374"/>
      <point x="282" y="266" type="curve" smooth="yes"/>
      <point x="282" y="162"/>
      <point x="271" y="117"/>
      <point x="240" y="117" type="curve"/>
      <point x="209" y="117"/>
      <point x="198" y="159"/>
      <point x="198" y="268" type="curve" smooth="yes"/>
      <point x="198" y="371"/>
      <point x="209" y="416"/>
    </contour>
  </outline>
</glyph>
<glyph name="phook" format="2">
  <advance width="599"/>
  <unicode hex="01A5"/>
  <anchor x="247" y="-214" name="bottom"/>
  <anchor x="247" y="744" name="top"/>
  <outline>
    <contour>
      <point x="316" y="553" type="curve" smooth="yes"/>
      <point x="282" y="553"/>
      <point x="228" y="532"/>
      <point x="186" y="453" type="curve"/>
      <point x="201" y="342" type="line"/>
      <point x="218" y="394"/>
      <point x="237" y="416"/>
      <point x="249" y="416" type="curve" smooth="yes"/>
      <point x="272" y="416"/>
      <point x="292" y="395"/>
      <point x="292" y="266" type="curve" smooth="yes"/>
      <point x="292" y="156"/>
      <point x="270" y="117"/>
      <point x="245" y="117" type="curve" smooth="yes"/>
      <point x="227" y="117"/>
      <point x="218" y="133"/>
      <point x="200" y="175" type="curve"/>
      <point x="202" y="48" type="line"/>
      <point x="229" y="3"/>
      <point x="265" y="-19"/>
      <point x="309" y="-19" type="curve" smooth="yes"/>
      <point x="412" y="-19"/>
      <point x="485" y="103"/>
      <point x="485" y="269" type="curve" smooth="yes"/>
      <point x="485" y="444"/>
      <point x="430" y="553"/>
    </contour>
    <contour>
      <point x="211" y="533" type="line"/>
      <point x="21" y="533" type="line"/>
      <point x="21" y="-226" type="line"/>
      <point x="211" y="-207" type="line"/>
      <point x="211" y="380" type="line"/>
    </contour>
    <component base="hookaboveHELPER" xOffset="-4"/>
  </outline>
</glyph>
<glyph name="Yr" format="2">
  <advance width="516"/>
  <unicode hex="01A6"/>
  <anchor x="258" y="-214" name="bottom"/>
  <anchor x="258" y="695" name="top"/>
  <outline>
    <contour>
      <point x="218" y="695" type="line"/>
      <point x="20" y="695" type="line"/>
      <point x="20" y="0" type="line"/>
      <point x="218" y="0" type="line"/>
    </contour>
    <contour>
      <point x="402" y="190" type="line"/>
      <point x="226" y="154" type="line"/>
      <point x="327" y="-111" type="line"/>
      <point x="544" y="-111" type="line"/>
    </contour>
    <contour>
      <point x="205" y="585" type="line"/>
      <point x="205" y="449" type="line"/>
      <point x="243" y="449" type="line" smooth="yes"/>
      <point x="280" y="449"/>
      <point x="303" y="423"/>
      <point x="303" y="366" type="curve" smooth="yes"/>
      <point x="303" y="302"/>
      <point x="287" y="274"/>
      <point x="251" y="274" type="curve" smooth="yes"/>
      <point x="205" y="274" type="line"/>
      <point x="205" y="140" type="line"/>
      <point x="352" y="140" type="line"/>
      <point x="459" y="200"/>
      <point x="503" y="255"/>
      <point x="503" y="366" type="curve" smooth="yes"/>
      <point x="503" y="517"/>
      <point x="419" y="585"/>
      <point x="248" y="585" type="curve" smooth="yes"/>
    </contour>
  </outline>
</glyph>
<glyph name="Tonetwo" format="2">
  <advance width="484"/>
  <unicode hex="01A7"/>
  <anchor x="243" y="0" name="bottom"/>
  <anchor x="243" y="695" name="top"/>
  <outline>
    <contour>
      <point x="256" y="715" type="curve" smooth="yes"/>
      <point x="158" y="715"/>
      <point x="81" y="681"/>
      <point x="24" y="621" type="curve"/>
      <point x="109" y="518" type="line"/>
      <point x="145" y="555"/>
      <point x="184" y="574"/>
      <point x="233" y="574" type="curve" smooth="yes"/>
      <point x="264" y="574"/>
      <point x="278" y="554"/>
      <point x="278" y="521" type="curve" smooth="yes"/>
      <point x="278" y="482"/>
      <point x="251" y="461"/>
      <point x="176" y="431" type="curve" smooth="yes"/>
      <point x="52" y="381"/>
      <point x="6" y="325"/>
      <point x="6" y="206" type="curve" smooth="yes"/>
      <point x="6" y="74"/>
      <point x="101" y="-19"/>
      <point x="245" y="-19" type="curve" smooth="yes"/>
      <point x="368" y="-19"/>
      <point x="445" y="29"/>
      <point x="491" y="84" type="curve"/>
      <point x="396" y="191" type="line"/>
      <point x="355" y="151"/>
      <point x="310" y="126"/>
      <point x="264" y="126" type="curve" smooth="yes"/>
      <point x="224" y="126"/>
      <point x="211" y="153"/>
      <point x="211" y="192" type="curve" smooth="yes"/>
      <point x="211" y="233"/>
      <point x="227" y="262"/>
      <point x="295" y="288" type="curve" smooth="yes"/>
      <point x="435" y="342"/>
      <point x="481" y="403"/>
      <point x="481" y="509" type="curve" smooth="yes"/>
      <point x="481" y="633"/>
      <point x="389" y="715"/>
    </contour>
  </outline>
</glyph>
<glyph name="tonetwo" format="2">
  <advance width="404"/>
  <unicode hex="01A8"/>
  <anchor x="202" y="0" name="bottom"/>
  <anchor x="202" y="533" name="top"/>
  <outline>
    <contour>
      <point x="210" y="553" type="curve" smooth="yes"/>
      <point x="134" y="553"/>
      <point x="71" y="526"/>
      <point x="22" y="485" type="curve"/>
      <point x="88" y="381" type="line"/>
      <point x="116" y="406"/>
      <point x="155" y="421"/>
      <point x="189" y="421" type="curve" smooth="yes"/>
      <point x="208" y="421"/>
      <point x="212" y="408"/>
      <point x="212" y="392" type="curve" smooth="yes"/>
      <point x="212" y="369"/>
      <point x="210" y="357"/>
      <point x="130" y="328" type="curve" smooth="yes"/>
      <point x="50" y="299"/>
      <point x="2" y="257"/>
      <point x="2" y="159" type="curve" smooth="yes"/>
      <point x="2" y="53"/>
      <point x="82" y="-19"/>
      <point x="214" y="-19" type="curve" smooth="yes"/>
      <point x="292" y="-19"/>
      <point x="369" y="13"/>
      <point x="416" y="64" type="curve"/>
      <point x="327" y="165" type="line"/>
      <point x="297" y="135"/>
      <point x="257" y="112"/>
      <point x="223" y="112" type="curve" smooth="yes"/>
      <point x="206" y="112"/>
      <point x="194" y="124"/>
      <point x="194" y="150" type="curve" smooth="yes"/>
      <point x="194" y="176"/>
      <point x="199" y="189"/>
      <point x="267" y="216" type="curve" smooth="yes"/>
      <point x="346" y="247"/>
      <point x="399" y="288"/>
      <point x="399" y="380" type="curve" smooth="yes"/>
      <point x="399" y="477"/>
      <point x="331" y="553"/>
    </contour>
  </outline>
</glyph>
<glyph name="eshreversedloop" format="2">
  <advance width="488"/>
  <unicode hex="01AA"/>
  <anchor x="222" y="-214" name="bottom"/>
  <anchor x="222" y="744" name="top"/>
  <outline>
    <contour>
      <point x="189" y="763" type="curve" smooth="yes"/>
      <point x="61" y="763"/>
      <point x="-5" y="681"/>
      <point x="-5" y="575" type="curve" smooth="yes"/>
      <point x="-5" y="467"/>
      <point x="56" y="390"/>
      <point x="153" y="390" type="curve" smooth="yes"/>
      <point x="214" y="390"/>
      <point x="246" y="426"/>
      <point x="277" y="446" type="curve"/>
      <point x="240" y="534" type="line"/>
      <point x="221" y="523"/>
      <point x="205" y="517"/>
      <point x="186" y="517" type="curve" smooth="yes"/>
      <point x="162" y="517"/>
      <point x="148" y="535"/>
      <point x="148" y="578" type="curve" smooth="yes"/>
      <point x="148" y="617"/>
      <point x="159" y="635"/>
      <point x="179" y="635" type="curve" smooth="yes"/>
      <point x="199" y="635"/>
      <point x="206" y="619"/>
      <point x="206" y="588" type="curve" smooth="yes"/>
      <point x="206" y="0" type="line"/>
      <point x="396" y="0" type="line"/>
      <point x="396" y="559" type="line" smooth="yes"/>
      <point x="396" y="677"/>
      <point x="326" y="763"/>
    </contour>
    <component base="hookHELPER" xScale="-1" xOffset="563"/>
  </outline>
</glyph>
<glyph name="tpalatalhook" format="2">
  <advance width="339"/>
  <unicode hex="01AB"/>
  <anchor x="169" y="-214" name="bottom"/>
  <anchor x="135" y="646" name="top"/>
  <outline>
    <contour>
      <point x="158" y="-225" type="curve" smooth="yes"/>
      <point x="282" y="-225"/>
      <point x="355" y="-156"/>
      <point x="355" y="-18" type="curve" smooth="yes"/>
      <point x="355" y="26" type="line"/>
      <point x="197" y="4" type="line"/>
      <point x="197" y="-35" type="line" smooth="yes"/>
      <point x="197" y="-74"/>
      <point x="177" y="-90"/>
      <point x="145" y="-90" type="curve" smooth="yes"/>
      <point x="114" y="-90"/>
      <point x="93" y="-82"/>
      <point x="71" y="-70" type="curve"/>
      <point x="11" y="-181" type="line"/>
      <point x="44" y="-206"/>
      <point x="96" y="-225"/>
    </contour>
    <contour>
      <point x="230" y="668" type="line"/>
      <point x="40" y="646" type="line"/>
      <point x="40" y="193" type="line" smooth="yes"/>
      <point x="40" y="55"/>
      <point x="91" y="-19"/>
      <point x="215" y="-19" type="curve" smooth="yes"/>
      <point x="228" y="-19"/>
      <point x="253" y="-12"/>
      <point x="266" y="-4" type="curve"/>
      <point x="298" y="3"/>
      <point x="331" y="6"/>
      <point x="355" y="26" type="curve"/>
      <point x="303" y="128" type="line"/>
      <point x="289" y="122"/>
      <point x="280" y="120"/>
      <point x="268" y="120" type="curve" smooth="yes"/>
      <point x="245" y="120"/>
      <point x="230" y="135"/>
      <point x="230" y="180" type="curve" smooth="yes"/>
    </contour>
    <contour>
      <point x="327" y="533" type="line"/>
      <point x="-5" y="533" type="line"/>
      <point x="-5" y="404" type="line"/>
      <point x="308" y="404" type="line"/>
    </contour>
  </outline>
</glyph>
<glyph name="Thook" format="2">
  <advance width="524"/>
  <unicode hex="01AC"/>
  <anchor x="262" y="0" name="bottom"/>
  <anchor x="262" y="695" name="top"/>
  <outline>
    <contour>
      <point x="532" y="695" type="line"/>
      <point x="184" y="695" type="line"/>
      <point x="173" y="547" type="line"/>
      <point x="193" y="547" type="line"/>
      <point x="193" y="0" type="line"/>
      <point x="391" y="0" type="line"/>
      <point x="391" y="547" type="line"/>
      <point x="512" y="547" type="line"/>
    </contour>
    <contour>
      <point x="-3" y="533" type="curve" smooth="yes"/>
      <point x="-3" y="486"/>
      <point x="10" y="442"/>
      <point x="27" y="407" type="curve"/>
      <point x="149" y="458" type="line"/>
      <point x="144" y="475"/>
      <point x="140" y="490"/>
      <point x="140" y="510" type="curve" smooth="yes"/>
      <point x="140" y="534"/>
      <point x="152" y="547"/>
      <point x="170" y="547" type="curve" smooth="yes"/>
      <point x="207" y="547" type="line"/>
      <point x="190" y="695" type="line"/>
      <point x="192" y="695" type="line" smooth="yes"/>
      <point x="75" y="695"/>
      <point x="-3" y="636"/>
    </contour>
  </outline>
</glyph>
<glyph name="thook" format="2">
  <advance width="339"/>
  <unicode hex="01AD"/>
  <anchor x="169" y="0" name="bottom"/>
  <anchor x="169" y="744" name="top"/>
  <outline>
    <contour>
      <point x="213" y="-19" type="curve" smooth="yes"/>
      <point x="255" y="-19"/>
      <point x="317" y="-5"/>
      <point x="355" y="26" type="curve"/>
      <point x="295" y="144" type="line"/>
      <point x="282" y="134"/>
      <point x="269" y="130"/>
      <point x="259" y="130" type="curve" smooth="yes"/>
      <point x="244" y="130"/>
      <point x="230" y="144"/>
      <point x="230" y="195" type="curve" smooth="yes"/>
      <point x="230" y="553" type="line"/>
      <point x="40" y="550" type="line"/>
      <point x="40" y="193" type="line" smooth="yes"/>
      <point x="40" y="55"/>
      <point x="91" y="-19"/>
    </contour>
    <contour>
      <point x="-5" y="404" type="line"/>
      <point x="308" y="404" type="line"/>
      <point x="327" y="533" type="line"/>
      <point x="-5" y="533" type="line"/>
    </contour>
    <contour>
      <point x="40" y="532" type="line"/>
      <point x="230" y="532" type="line"/>
      <point x="230" y="580" type="line" smooth="yes"/>
      <point x="230" y="618"/>
      <point x="238" y="635"/>
      <point x="259" y="635" type="curve" smooth="yes"/>
      <point x="271" y="635"/>
      <point x="287" y="629"/>
      <point x="306" y="618" type="curve"/>
      <point x="353" y="726" type="line"/>
      <point x="322" y="746"/>
      <point x="280" y="763"/>
      <point x="226" y="763" type="curve" smooth="yes"/>
      <point x="98" y="763"/>
      <point x="40" y="677"/>
      <point x="40" y="567" type="curve" smooth="yes"/>
    </contour>
  </outline>
</glyph>
<glyph name="Upsilonafrican" format="2">
  <advance width="565"/>
  <unicode hex="01B1"/>
  <anchor x="282" y="0" name="bottom"/>
  <anchor x="282" y="695" name="top"/>
  <outline>
    <contour>
      <point x="282" y="-19" type="curve" smooth="yes"/>
      <point x="463" y="-19"/>
      <point x="558" y="124"/>
      <point x="558" y="296" type="curve" smooth="yes"/>
      <point x="558" y="424"/>
      <point x="519" y="506"/>
      <point x="447" y="558" type="curve"/>
      <point x="541" y="558" type="line"/>
      <point x="541" y="695" type="line"/>
      <point x="317" y="695" type="line"/>
      <point x="317" y="568" type="line"/>
      <point x="342" y="505"/>
      <point x="353" y="442"/>
      <point x="353" y="296" type="curve" smooth="yes"/>
      <point x="353" y="183"/>
      <point x="337" y="121"/>
      <point x="282" y="121" type="curve" smooth="yes"/>
      <point x="229" y="121"/>
      <point x="212" y="183"/>
      <point x="212" y="296" type="curve" smooth="yes"/>
      <point x="212" y="442"/>
      <point x="225" y="505"/>
      <point x="248" y="568" type="curve"/>
      <point x="248" y="695" type="line"/>
      <point x="24" y="695" type="line"/>
      <point x="24" y="558" type="line"/>
      <point x="117" y="558" type="line"/>
      <point x="46" y="506"/>
      <point x="7" y="423"/>
      <point x="7" y="296" type="curve" smooth="yes"/>
      <point x="7" y="123"/>
      <point x="103" y="-19"/>
    </contour>
  </outline>
</glyph>
<glyph name="Vhook" format="2">
  <advance width="518"/>
  <unicode hex="01B2"/>
  <anchor x="248" y="0" name="bottom"/>
  <anchor x="248" y="695" name="top"/>
  <outline>
    <contour>
      <point x="511" y="530" type="line"/>
      <point x="313" y="542" type="line"/>
      <point x="313" y="281" type="line" smooth="yes"/>
      <point x="313" y="164"/>
      <point x="281" y="123"/>
      <point x="250" y="123" type="curve" smooth="yes"/>
      <point x="223" y="123"/>
      <point x="210" y="158"/>
      <point x="210" y="214" type="curve" smooth="yes"/>
      <point x="210" y="695" type="line"/>
      <point x="12" y="695" type="line"/>
      <point x="12" y="216" type="line" smooth="yes"/>
      <point x="12" y="79"/>
      <point x="97" y="-19"/>
      <point x="243" y="-19" type="curve" smooth="yes"/>
      <point x="402" y="-19"/>
      <point x="511" y="92"/>
      <point x="511" y="287" type="curve" smooth="yes"/>
    </contour>
    <contour>
      <point x="313" y="542" type="curve"/>
      <point x="511" y="530" type="line"/>
      <point x="511" y="658"/>
      <point x="453" y="715"/>
      <point x="355" y="715" type="curve" smooth="yes"/>
      <point x="314" y="715"/>
      <point x="286" y="709"/>
      <point x="259" y="698" type="curve"/>
      <point x="282" y="572" type="line"/>
      <point x="287" y="574"/>
      <point x="292" y="575"/>
      <point x="295" y="575" type="curve" smooth="yes"/>
      <point x="306" y="575"/>
      <point x="313" y="566"/>
    </contour>
  </outline>
</glyph>
<glyph name="Yhook" format="2">
  <advance width="561"/>
  <unicode hex="01B3"/>
  <anchor x="280" y="0" name="bottom"/>
  <anchor x="280" y="695" name="top"/>
  <anchor x="-7" y="695" name="topleft"/>
  <outline>
    <contour>
      <point x="164" y="0" type="line"/>
      <point x="362" y="0" type="line"/>
      <point x="362" y="257" type="line"/>
      <point x="451" y="530" type="line" smooth="yes"/>
      <point x="462" y="566"/>
      <point x="473" y="578"/>
      <point x="497" y="578" type="curve" smooth="yes"/>
      <point x="515" y="578"/>
      <point x="524" y="573"/>
      <point x="533" y="565" type="curve"/>
      <point x="579" y="679" type="line"/>
      <point x="550" y="700"/>
      <point x="519" y="715"/>
      <point x="463" y="715" type="curve" smooth="yes"/>
      <point x="366" y="715"/>
      <point x="311" y="672"/>
      <point x="291" y="555" type="curve" smooth="yes"/>
      <point x="266" y="408" type="line"/>
      <point x="198" y="695" type="line"/>
      <point x="-18" y="695" type="line"/>
      <point x="164" y="257" type="line"/>
    </contour>
  </outline>
</glyph>
<glyph name="yhook" format="2">
  <advance width="456"/>
  <unicode hex="01B4"/>
  <anchor x="228" y="-214" name="bottom"/>
  <anchor x="228" y="533" name="top"/>
  <outline>
    <contour>
      <point x="41" y="-227" type="line"/>
      <point x="197" y="-221"/>
      <point x="319" y="-153"/>
      <point x="347" y="36" type="curve" smooth="yes"/>
      <point x="403" y="415" type="line" smooth="yes"/>
      <point x="408" y="447"/>
      <point x="421" y="454"/>
      <point x="437" y="454" type="curve" smooth="yes"/>
      <point x="443" y="454"/>
      <point x="449" y="452"/>
      <point x="453" y="450" type="curve"/>
      <point x="478" y="575" type="line"/>
      <point x="454" y="584"/>
      <point x="431" y="589"/>
      <point x="398" y="589" type="curve" smooth="yes"/>
      <point x="300" y="589"/>
      <point x="261" y="534"/>
      <point x="250" y="423" type="curve" smooth="yes"/>
      <point x="218" y="117" type="line"/>
      <point x="182" y="533" type="line"/>
      <point x="-19" y="533" type="line"/>
      <point x="99" y="0" type="line"/>
      <point x="165" y="0" type="line"/>
      <point x="142" y="-62"/>
      <point x="103" y="-86"/>
      <point x="21" y="-97" type="curve"/>
    </contour>
  </outline>
</glyph>
<glyph name="Zstroke" format="2">
  <advance width="557"/>
  <unicode hex="01B5"/>
  <anchor x="233" y="0" name="bottom"/>
  <anchor x="233" y="695" name="top"/>
  <outline>
    <contour>
      <point x="452" y="695" type="line"/>
      <point x="24" y="695" type="line"/>
      <point x="24" y="545" type="line"/>
      <point x="243" y="545" type="line"/>
      <point x="3" y="136" type="line"/>
      <point x="3" y="0" type="line"/>
      <point x="443" y="0" type="line"/>
      <point x="461" y="155" type="line"/>
      <point x="221" y="155" type="line"/>
      <point x="452" y="557" type="line"/>
    </contour>
    <component base="hyphen" xScale="1.3" yScale="0.8" xOffset="-5" yOffset="93"/>
  </outline>
</glyph>
<glyph name="zstroke" format="2">
  <advance width="396"/>
  <unicode hex="01B6"/>
  <anchor x="198" y="0" name="bottom"/>
  <anchor x="198" y="533" name="top"/>
  <outline>
    <contour>
      <point x="387" y="533" type="line"/>
      <point x="15" y="533" type="line"/>
      <point x="15" y="404" type="line"/>
      <point x="178" y="404" type="line"/>
      <point x="-1" y="124" type="line"/>
      <point x="-1" y="0" type="line"/>
      <point x="378" y="0" type="line"/>
      <point x="393" y="132" type="line"/>
      <point x="212" y="132" type="line"/>
      <point x="387" y="411" type="line"/>
    </contour>
    <component base="hyphen" xScale="1.2" yScale="0.7" xOffset="-14" yOffset="53"/>
  </outline>
</glyph>
<glyph name="Ezh" format="2">
  <advance width="475"/>
  <unicode hex="01B7"/>
  <anchor x="238" y="0" name="bottom"/>
  <anchor x="235" y="695" name="top"/>
  <outline>
    <contour>
      <point x="215" y="-19" type="curve" smooth="yes"/>
      <point x="382" y="-19"/>
      <point x="471" y="83"/>
      <point x="471" y="209" type="curve" smooth="yes"/>
      <point x="471" y="332"/>
      <point x="402" y="406"/>
      <point x="290" y="406" type="curve"/>
      <point x="275" y="406" type="line"/>
      <point x="104" y="298" type="line"/>
      <point x="195" y="298" type="line" smooth="yes"/>
      <point x="231" y="298"/>
      <point x="268" y="276"/>
      <point x="268" y="218" type="curve" smooth="yes"/>
      <point x="268" y="156"/>
      <point x="238" y="123"/>
      <point x="203" y="123" type="curve" smooth="yes"/>
      <point x="160" y="123"/>
      <point x="132" y="142"/>
      <point x="93" y="185" type="curve"/>
      <point x="-3" y="89" type="line"/>
      <point x="44" y="23"/>
      <point x="111" y="-19"/>
    </contour>
    <contour>
      <point x="104" y="402" type="line"/>
      <point x="104" y="298" type="line"/>
      <point x="251" y="338" type="line"/>
      <point x="432" y="561" type="line"/>
      <point x="432" y="695" type="line"/>
      <point x="38" y="695" type="line"/>
      <point x="38" y="556" type="line"/>
      <point x="220" y="556" type="line"/>
    </contour>
  </outline>
</glyph>
<glyph name="Ezhreversed" format="2">
  <advance width="475"/>
  <unicode hex="01B8"/>
  <anchor x="238" y="0" name="bottom"/>
  <anchor x="238" y="695" name="top"/>
  <outline>
    <contour>
      <point x="254" y="-19" type="curve" smooth="yes"/>
      <point x="362" y="-19"/>
      <point x="429" y="23"/>
      <point x="478" y="89" type="curve"/>
      <point x="382" y="185" type="line"/>
      <point x="343" y="142"/>
      <point x="310" y="123"/>
      <point x="268" y="123" type="curve" smooth="yes"/>
      <point x="233" y="123"/>
      <point x="207" y="156"/>
      <point x="207" y="211" type="curve" smooth="yes"/>
      <point x="207" y="267"/>
      <point x="237" y="298"/>
      <point x="280" y="298" type="curve" smooth="yes"/>
      <point x="371" y="298" type="line"/>
      <point x="200" y="406" type="line"/>
      <point x="186" y="406" type="line"/>
      <point x="82" y="406"/>
      <point x="4" y="327"/>
      <point x="4" y="209" type="curve" smooth="yes"/>
      <point x="4" y="78"/>
      <point x="93" y="-19"/>
    </contour>
    <contour>
      <point x="371" y="400" type="line"/>
      <point x="258" y="556" type="line"/>
      <point x="438" y="556" type="line"/>
      <point x="438" y="695" type="line"/>
      <point x="43" y="695" type="line"/>
      <point x="43" y="561" type="line"/>
      <point x="224" y="338" type="line"/>
      <point x="371" y="298" type="line"/>
    </contour>
  </outline>
</glyph>
<glyph name="ezhreversed" format="2">
  <advance width="444"/>
  <unicode hex="01B9"/>
  <anchor x="222" y="-214" name="bottom"/>
  <anchor x="222" y="533" name="top"/>
  <outline>
    <contour>
      <point x="249" y="-226" type="curve" smooth="yes"/>
      <point x="352" y="-226"/>
      <point x="421" y="-183"/>
      <point x="466" y="-117" type="curve"/>
      <point x="372" y="-24" type="line"/>
      <point x="331" y="-66"/>
      <point x="301" y="-83"/>
      <point x="264" y="-83" type="curve" smooth="yes"/>
      <point x="229" y="-83"/>
      <point x="195" y="-51"/>
      <point x="195" y="19" type="curve" smooth="yes"/>
      <point x="195" y="84"/>
      <point x="228" y="111"/>
      <point x="270" y="111" type="curve" smooth="yes"/>
      <point x="359" y="111" type="line"/>
      <point x="195" y="216" type="line"/>
      <point x="179" y="216" type="line"/>
      <point x="70" y="207"/>
      <point x="3" y="138"/>
      <point x="3" y="7" type="curve" smooth="yes"/>
      <point x="3" y="-122"/>
      <point x="89" y="-226"/>
    </contour>
    <contour>
      <point x="359" y="211" type="line"/>
      <point x="246" y="395" type="line"/>
      <point x="425" y="395" type="line"/>
      <point x="425" y="533" type="line"/>
      <point x="37" y="533" type="line"/>
      <point x="37" y="406" type="line"/>
      <point x="216" y="151" type="line"/>
      <point x="359" y="111" type="line"/>
    </contour>
  </outline>
</glyph>
<glyph name="ezhtail" format="2">
  <advance width="452"/>
  <unicode hex="01BA"/>
  <anchor x="226" y="-214" name="bottom"/>
  <anchor x="210" y="533" name="top"/>
  <outline>
    <contour>
      <point x="177" y="-226" type="curve"/>
      <point x="212" y="-125" type="line"/>
      <point x="198" y="-115"/>
      <point x="190" y="-104"/>
      <point x="190" y="-90" type="curve" smooth="yes"/>
      <point x="190" y="-72"/>
      <point x="201" y="-60"/>
      <point x="276" y="-42" type="curve" smooth="yes"/>
      <point x="359" y="-22"/>
      <point x="437" y="19"/>
      <point x="437" y="134" type="curve" smooth="yes"/>
      <point x="437" y="224"/>
      <point x="386" y="284"/>
      <point x="289" y="284" type="curve"/>
      <point x="294" y="284" type="line"/>
      <point x="405" y="415" type="line"/>
      <point x="405" y="533" type="line"/>
      <point x="15" y="533" type="line"/>
      <point x="15" y="404" type="line"/>
      <point x="188" y="404" type="line"/>
      <point x="92" y="276" type="line"/>
      <point x="92" y="181" type="line"/>
      <point x="183" y="181" type="line" smooth="yes"/>
      <point x="230" y="181"/>
      <point x="245" y="169"/>
      <point x="245" y="141" type="curve" smooth="yes"/>
      <point x="245" y="108"/>
      <point x="227" y="93"/>
      <point x="168" y="77" type="curve" smooth="yes"/>
      <point x="71" y="51"/>
      <point x="22" y="10"/>
      <point x="22" y="-68" type="curve" smooth="yes"/>
      <point x="22" y="-146"/>
      <point x="90" y="-199"/>
    </contour>
  </outline>
</glyph>
<glyph name="tonefive" format="2">
  <advance width="418"/>
  <unicode hex="01BD"/>
  <anchor x="209" y="0" name="bottom"/>
  <anchor x="209" y="533" name="top"/>
  <outline>
    <contour>
      <point x="378" y="533" type="line"/>
      <point x="43" y="533" type="line"/>
      <point x="43" y="217" type="line"/>
      <point x="164" y="217" type="line"/>
      <point x="173" y="223"/>
      <point x="186" y="228"/>
      <point x="196" y="228" type="curve" smooth="yes"/>
      <point x="212" y="228"/>
      <point x="223" y="213"/>
      <point x="223" y="176" type="curve" smooth="yes"/>
      <point x="223" y="139"/>
      <point x="212" y="118"/>
      <point x="189" y="118" type="curve" smooth="yes"/>
      <point x="154" y="118"/>
      <point x="133" y="133"/>
      <point x="96" y="166" type="curve"/>
      <point x="3" y="66" type="line"/>
      <point x="55" y="15"/>
      <point x="101" y="-19"/>
      <point x="197" y="-19" type="curve" smooth="yes"/>
      <point x="318" y="-19"/>
      <point x="407" y="57"/>
      <point x="407" y="175" type="curve" smooth="yes"/>
      <point x="407" y="289"/>
      <point x="337" y="349"/>
      <point x="262" y="349" type="curve" smooth="yes"/>
      <point x="238" y="349"/>
      <point x="217" y="344"/>
      <point x="203" y="337" type="curve"/>
      <point x="203" y="399" type="line"/>
      <point x="354" y="399" type="line"/>
    </contour>
  </outline>
</glyph>
<glyph name="glottalinvertedstroke" format="2">
  <advance width="512"/>
  <unicode hex="01BE"/>
  <anchor x="186" y="0" name="bottom"/>
  <anchor x="187" y="744" name="top"/>
  <outline>
    <contour>
      <point x="46" y="625" type="line"/>
      <point x="46" y="522" type="line"/>
      <point x="98" y="522" type="line"/>
      <point x="356" y="522" type="line"/>
      <point x="356" y="625" type="line"/>
    </contour>
    <component base="glottalstopinverted"/>
  </outline>
</glyph>
<glyph name="wynn" format="2">
  <advance width="489"/>
  <unicode hex="01BF"/>
  <anchor x="245" y="-214" name="bottom"/>
  <anchor x="245" y="533" name="top"/>
  <outline>
    <contour>
      <point x="191" y="533" type="line"/>
      <point x="21" y="533" type="line"/>
      <point x="21" y="-226" type="line"/>
      <point x="211" y="-207" type="line"/>
      <point x="211" y="384" type="line"/>
      <point x="199" y="464" type="line"/>
    </contour>
    <contour>
      <point x="191" y="462" type="curve"/>
      <point x="202" y="371" type="line"/>
      <point x="217" y="399"/>
      <point x="234" y="420"/>
      <point x="258" y="420" type="curve" smooth="yes"/>
      <point x="280" y="420"/>
      <point x="292" y="396"/>
      <point x="292" y="348" type="curve" smooth="yes"/>
      <point x="292" y="258"/>
      <point x="260" y="189"/>
      <point x="223" y="137" type="curve" smooth="yes"/>
      <point x="205" y="111" type="line"/>
      <point x="205" y="-19" type="line"/>
      <point x="258" y="13" type="line" smooth="yes"/>
      <point x="384" y="89"/>
      <point x="485" y="164"/>
      <point x="485" y="351" type="curve" smooth="yes"/>
      <point x="485" y="476"/>
      <point x="418" y="553"/>
      <point x="330" y="553" type="curve" smooth="yes"/>
      <point x="275" y="553"/>
      <point x="223" y="520"/>
    </contour>
  </outline>
</glyph>
<glyph name="clickdental" format="2">
  <advance width="199"/>
  <unicode hex="01C0"/>
  <outline>
    <contour>
      <point x="179" y="760" type="line"/>
      <point x="20" y="744" type="line"/>
      <point x="20" y="0" type="line"/>
      <point x="179" y="0" type="line"/>
    </contour>
  </outline>
</glyph>
